<?xml version="1.0" encoding="UTF-8"?>
<svg id="Layer_2" data-name="Layer 2" xmlns="http://www.w3.org/2000/svg" viewBox="0 0 176.42 51.52">
  <defs>
    <style>
      .cls-1 {
        fill: #e6e6e6;
      }
    </style>
  </defs>
  <g id="Layer_1-2" data-name="Layer 1">
    <g>
      <path class="cls-1" d="m.89,16.93c-.49,0-.89-.4-.89-.89V.89c0-.49.4-.89.89-.89h51.44c.49,0,.89.4.89.89v2.71H8.21v13.33H.89Z"/>
      <path class="cls-1" d="m9.3,16.93V4.69h43.92v2.71c0,.49-.4.89-.89.89H18.75c-.69,0-1.25.56-1.25,1.25v6.5c0,.49-.4.89-.89.89h-7.31Z"/>
      <path class="cls-1" d="m.89,51.52c-.49,0-.89-.4-.89-.89v-15.15c0-.49.4-.89.89-.89h7.32v13.33h45.02v2.71c0,.49-.4.89-.89.89H.89Z"/>
      <path class="cls-1" d="m9.3,46.83v-12.24h7.31c.49,0,.89.4.89.89v6.5c0,.69.56,1.25,1.25,1.25h33.58c.49,0,.89.4.89.89v2.71H9.3Z"/>
      <path class="cls-1" d="m.89,29.9c-.49,0-.89-.4-.89-.89v-2.71h35.36v2.71c0,.49-.4.89-.89.89H.89Z"/>
      <path class="cls-1" d="m0,25.21v-2.71c0-.49.4-.89.89-.89h33.58c.49,0,.89.4.89.89v2.71H0Z"/>
      <path class="cls-1" d="m62.57,51.52c-.49,0-.89-.4-.89-.89V.89c0-.49.4-.89.89-.89h7.31v47.92h45.02v2.71c0,.49-.4.89-.89.89h-51.44Z"/>
      <path class="cls-1" d="m70.98,46.83V0h7.32c.49,0,.89.4.89.89v41.1c0,.69.56,1.25,1.25,1.25h33.58c.49,0,.89.4.89.89v2.7h-43.92Z"/>
      <path class="cls-1" d="m132.5,51.52v-29.54h10.38l25.92,25.91h7.63v2.67c0,.49-.4.89-.89.89h-7.43c-.23,0-.45-.09-.62-.25l-3.74-3.62-.76-.73-20.16-19.5c-.24-.23-.54-.35-.86-.35-.61,0-1.26.48-1.26,1.26v22.37c0,.49-.4.89-.89.89h-7.32Z"/>
      <path class="cls-1" d="m124.1,51.52c-.49,0-.89-.4-.89-.89V18.16c0-.49.4-.89.89-.89h33.58c.69,0,1.25-.56,1.25-1.25v-6.48c0-.69-.56-1.25-1.25-1.25h-15.72c-.69,0-1.25.56-1.25,1.25v2.17c0,.49-.4.89-.89.89h-7.32v-7.91h34.64v16.21h-35.73v30.63h-7.31Z"/>
      <path class="cls-1" d="m169.24,46.8l-24.81-24.82h23.81V3.59h-36.83v9h-7.31c-.49,0-.89-.4-.89-.89V.89c0-.49.4-.89.89-.89h51.44c.49,0,.89.4.89.89v23.77c0,.49-.4.89-.89.89h-19.56c-.52,0-.97.3-1.16.78-.2.48-.08,1.01.29,1.37l15.64,15.13c.23.23.54.35.87.35h3.93c.49,0,.89.4.89.89v2.73h-7.18Z"/>
    </g>
  </g>
</svg>