<?xml version="1.0" encoding="UTF-8"?>
<svg id="Layer_2" data-name="Layer 2" xmlns="http://www.w3.org/2000/svg" viewBox="0 0 155.1 45.29">
  <defs>
    <style>
      .cls-1 {
        fill: #ae00f0;
      }

      .cls-2 {
        fill: #e4e4e4;
      }

      .cls-3 {
        fill: #ff5d00;
      }
    </style>
  </defs>
  <g id="Layer_1-2" data-name="Layer 1">
    <g>
      <g>
        <path class="cls-1" d="m.78,14.88c-.43,0-.78-.35-.78-.78V.78c0-.43.35-.78.78-.78h45.22c.43,0,.78.35.78.78v2.38H7.21v11.72H.78Z"/>
        <path class="cls-1" d="m8.17,14.88V4.12h38.62v2.38c0,.43-.35.78-.78.78h-29.52c-.61,0-1.1.49-1.1,1.1v5.71c0,.43-.35.78-.78.78h-6.43Z"/>
        <path class="cls-1" d="m.78,45.29c-.43,0-.78-.35-.78-.78v-13.32c0-.43.35-.78.78-.78h6.43v11.72h39.58v2.38c0,.43-.35.78-.78.78H.78Z"/>
        <path class="cls-1" d="m8.17,41.17v-10.76h6.43c.43,0,.78.35.78.78v5.71c0,.61.49,1.1,1.1,1.1h29.52c.43,0,.78.35.78.78v2.38H8.17Z"/>
        <path class="cls-1" d="m.78,26.29c-.43,0-.78-.35-.78-.78v-2.38h31.09v2.38c0,.43-.35.78-.78.78H.78Z"/>
        <path class="cls-1" d="m0,22.17v-2.38c0-.43.35-.78.78-.78h29.52c.43,0,.78.35.78.78v2.38H0Z"/>
      </g>
      <g>
        <path class="cls-2" d="m55.01,45.29c-.43,0-.78-.35-.78-.78V.78c0-.43.35-.78.78-.78h6.43v42.13h39.58v2.38c0,.43-.35.78-.78.78h-45.22Z"/>
        <path class="cls-2" d="m62.4,41.17V0h6.43c.43,0,.78.35.78.78v36.13c0,.61.49,1.1,1.1,1.1h29.52c.43,0,.78.35.78.78v2.37h-38.62Z"/>
      </g>
      <g>
        <path class="cls-3" d="m116.48,45.29v-25.97h9.12l22.79,22.78h6.7v2.35c0,.43-.35.78-.78.78h-6.53c-.2,0-.4-.08-.54-.22l-3.29-3.18-.67-.64-17.72-17.14c-.21-.2-.48-.31-.76-.31-.53,0-1.11.42-1.11,1.1v19.67c0,.43-.35.78-.78.78h-6.43Z"/>
        <path class="cls-3" d="m109.1,45.29c-.43,0-.78-.35-.78-.78V15.96c0-.43.35-.78.78-.78h29.52c.61,0,1.1-.49,1.1-1.1v-5.7c0-.61-.49-1.1-1.1-1.1h-13.82c-.61,0-1.1.49-1.1,1.1v1.91c0,.43-.35.78-.78.78h-6.43v-6.95h30.45v14.25h-31.41v26.93h-6.43Z"/>
        <path class="cls-3" d="m148.78,41.14l-21.81-21.82h20.93V3.16h-32.37v7.91h-6.43c-.43,0-.78-.35-.78-.78V.78c0-.43.35-.78.78-.78h45.22c.43,0,.78.35.78.78v20.9c0,.43-.35.78-.78.78h-17.2c-.46,0-.85.26-1.02.69-.17.42-.07.89.26,1.21l13.75,13.3c.21.2.48.31.77.31h3.45c.43,0,.78.35.78.78v2.4h-6.32Z"/>
      </g>
    </g>
  </g>
</svg>