<?xml version="1.0" encoding="UTF-8"?>
<svg id="Layer_2" data-name="Layer 2" xmlns="http://www.w3.org/2000/svg" viewBox="0 0 457.97 385.29">
  <defs>
    <style>
      .cls-1, .cls-2 {
        fill: #fff;
      }

      .cls-2, .cls-3 {
        opacity: .25;
      }
    </style>
  </defs>
  <g id="Layer_1-2" data-name="Layer 1">
    <g>
      <path class="cls-1" d="m199.1,145.76c-.78,0-1.42-.64-1.42-1.42v-8.73c0-.78.64-1.42,1.42-1.42h67.55c3.2,0,5.79,2.6,5.79,5.79v.3c-.02.19-.03.39-.06.58-.02.1-.03.19-.06.28-.02.17-.07.33-.12.49,0,.04-.02.09-.04.13-.05.16-.11.31-.17.46-.19.44-.41.84-.7,1.21-.11.15-.23.28-.36.43-.06.06-.12.14-.19.2-.06.06-.14.13-.2.19-.14.13-.27.24-.43.36-.37.28-.78.51-1.21.7-.16.06-.31.12-.47.17-.04.02-.09.03-.13.04-.16.05-.32.1-.49.12-.09.02-.19.04-.28.06-.19.02-.38.05-.58.06h-67.85Z"/>
      <path class="cls-1" d="m441.56,57.19L362.9.63c-.56-.41-1.23-.63-1.91-.63h-66.89c-5.88,0-11,4.27-12.49,10.36-2.11,8.76-6.87,16.57-13.42,22.68-9.06,8.46-21.58,13.68-35.41,13.68-23.85,0-43.78-15.54-48.83-36.35-1.49-6.1-6.62-10.37-12.5-10.37h-66.88c-.67,0-1.34.22-1.92.63L23.99,57.19c-3.03,2.18-4.28,6.3-3.02,9.96l29.47,85.74c1.77,5.16,7.59,7.18,11.85,4.11l35.88-25.8c2.28-1.63,5.35.11,5.35,3.04v35.13c0,1.84.86,3.55,2.29,4.7,1.25,1,2.44,2.06,3.58,3.2,8.19,8.17,12.7,19.06,12.7,30.64v1.51c0,3.29,2.67,5.96,5.96,5.96h2.24c8.2,0,15.29,6.12,16.51,14.23l18.09,121.54s0,.03,0,.06c.44,2.98,2.9,5.24,5.91,5.24h84.26c2.05,0,3.65-1.76,3.45-3.79-3.21-32.03,1.87-57.5,15.21-75.86,9.28-12.78,22.22-21.79,38.6-26.95.68-.21,1.28-.64,1.72-1.21,1.83-2.42,6.2-6.89,14.29-8.49,1.47-.28,2.94-.44,4.37-.44,5.17,0,9.28,1.85,12.18,4.25.62.52,1.42.78,2.23.78h.02c3.84,0,7.53.2,11.09.59,2.05.22,3.83-1.38,3.83-3.45v-107.63c0-2.94,3.07-4.68,5.33-3.04l35.9,25.8c4.26,3.07,10.07,1.05,11.85-4.11l29.47-85.74c1.25-3.67.02-7.78-3.03-9.96Zm-198.84,34.64c0-.78.64-1.42,1.42-1.42h15.03c.79,0,1.43.64,1.43,1.42v18.77c0,.78.64,1.42,1.42,1.42h35.01c.79,0,1.43.64,1.43,1.43v1.41c0,.79-.64,1.43-1.43,1.43h-52.9c-.79,0-1.42-.64-1.42-1.43v-23.04Zm-72.63,24.47c-.34,0-.61-.28-.61-.61v-24.69c0-.33.27-.6.61-.6h56c.35,0,.63.28.63.62v3.02c0,.34-.28.62-.63.62h-38.14c-.4,0-.74.33-.74.73v4.35c0,.4.33.73.74.73h30.22c.34,0,.62.28.62.63v3.02c0,.35-.28.62-.62.62h-30.22c-.4,0-.74.32-.74.73v5.82c0,.4.33.73.74.73h38.14c.35,0,.63.28.63.63v3.02c0,.34-.28.62-.63.62h-56Zm101.69,45.65l18.68,18.67c1.15,1.15,2.74,1.81,4.37,1.81h5.9c.49,0,.87.39.87.87v11.01c0,.49-.39.87-.87.87h-25.67c-1.96,0-3.88-.79-5.27-2.18l-32.29-32.29c-.16-.16-.38-.25-.62-.25h-35.22c-.49,0-.87.39-.87.87v14.45c0,.73.11,1.47.33,2.18.22.7.55,1.37.96,1.97.65.94,1.52,1.72,2.52,2.27l.32.18c.38.2,1.04.29,1.57.32.45.03.81.41.81.87v10.71c0,.49-.39.87-.87.87h-30.55c-.48,0-.87-.39-.87-.87v-9.9c0-.39.26-.74.63-.83,1.14-.3,3.52-1.21,4.59-3.63l.09-.12c.81-1.19,1.26-2.64,1.25-4.13l-.05-31.81c0-.72-.11-1.44-.33-2.14-.21-.69-.53-1.34-.95-1.93-.68-.97-1.58-1.77-2.61-2.34l-.23-.13c-1.47-.79-2.4-2.35-2.4-4.04v-12.95c0-.48.39-.87.87-.87h105.23c5.47,0,10.62,2.13,14.49,6,2.14,2.15,3.82,4.8,4.83,7.65.78,2.2,1.17,4.5,1.17,6.84s-.39,4.63-1.17,6.83c-2.89,8.17-10.66,13.66-19.32,13.66h-8.71c-.77,0-1.17.94-.61,1.49Z"/>
      <g>
        <path class="cls-1" d="m276.81,369.92c12.38-9.18,46.98-13.99,81.86-38.96.04-.03.07-.05.11-.07,2.96-1.79,29.29-17.61,55.85-11.15,1.4.34,2.68-.95,2.41-2.44-2.61-14.77-16.71-68-85.34-58.65-72.41,9.86-63.04,82.17-58,109.93.27,1.51,1.92,2.21,3.1,1.33Z"/>
        <path class="cls-1" d="m315.28,362.85l20.85,13.63s.05.03.07.05c.94.71,20.59,15.36,39.06,5.15.02-.01.05-.02.07-.04.84-.37,16.25-7.29,32.24-27.87,10.4-13.39,24.69-15.5,34.15-14.5,1.33.14,1.87-1.76.7-2.45-19.67-11.43-25.51-12.62-30.7-13.81-4.32-.99-17.91-4.19-52.83,15.66-24.22,13.77-38.17,19.77-43.4,21.83-.96.38-1.08,1.76-.21,2.33Z"/>
        <path class="cls-1" d="m417,349.04c-1.48.96-1.77,3.11-.63,4.5,3.54,4.27,12.14,13.18,26.69,19.91,0,0,19.27,10.92,13.98-19.05-3.05-17.28-29.9-11.93-40.05-5.36Z"/>
        <path class="cls-1" d="m324.13,256.55s9.2-2.1,13.34-1.91c0,0-1.8-2.87-6.67-1.91-4.87.96-6.67,3.82-6.67,3.82Z"/>
      </g>
      <g>
        <path class="cls-1" d="m157.4,352.27l-18.09-121.53c-.67-4.47-4.5-7.78-9.01-7.78H27.21c-4.52,0-8.36,3.31-9.02,7.78L.1,352.27c-.82,5.51,3.44,10.46,9.01,10.46h139.26c5.57,0,9.84-4.95,9.02-10.46Zm-55.9-36.66c-5.82,5.82-13.87,9.42-22.75,9.42s-16.93-3.6-22.75-9.42c-5.83-5.83-9.43-13.88-9.43-22.76,0-17.77,14.41-32.18,32.18-32.18,8.89,0,16.93,3.6,22.75,9.42,5.82,5.82,9.42,13.87,9.42,22.75s-3.6,16.93-9.42,22.76Z"/>
        <path class="cls-1" d="m114.51,207.92v15.04h-12.45v-15.04c0-6.23-2.43-12.09-6.83-16.48-4.4-4.4-10.25-6.83-16.48-6.83-12.86,0-23.31,10.46-23.31,23.31v15.04h-12.45v-15.04c0-19.72,16.04-35.76,35.76-35.76,9.56,0,18.54,3.72,25.29,10.47,6.75,6.74,10.47,15.73,10.47,25.29Z"/>
        <path class="cls-2" d="m110.93,292.84c0,8.89-3.6,16.93-9.42,22.76-5.82,5.82-13.87,9.42-22.75,9.42s-16.93-3.6-22.75-9.42c-5.83-5.83-9.43-13.88-9.43-22.76,0-17.77,14.41-32.18,32.18-32.18,8.89,0,16.93,3.6,22.75,9.42,5.82,5.82,9.42,13.87,9.42,22.75Z"/>
      </g>
      <g class="cls-3">
        <path class="cls-1" d="m266.64,134.18h-67.55c-.78,0-1.42.64-1.42,1.42v8.73c0,.79.64,1.42,1.42,1.42h67.85c.2-.02.39-.04.58-.06.1-.02.19-.03.28-.06.17-.02.33-.07.49-.12.04,0,.09-.02.13-.04.16-.05.31-.11.47-.17.43-.19.83-.42,1.21-.7.15-.11.29-.23.43-.36.06-.06.14-.12.2-.19.06-.06.13-.14.19-.2.13-.15.25-.28.36-.43.28-.37.51-.78.7-1.21.06-.15.12-.3.17-.46.02-.04.03-.09.04-.13.05-.16.1-.32.12-.49.02-.09.04-.19.06-.28.03-.19.05-.39.06-.58v-.3c0-3.2-2.59-5.79-5.79-5.79Zm2.66,5.92c0,.11-.02.21-.02.24l-.05.2s-.02.11-.04.15l-.03.13c-.02.06-.04.11-.07.19-.09.19-.19.37-.32.55-.05.06-.1.11-.15.17l-.11.13-.1.08c-.06.05-.11.11-.19.15-.16.13-.34.23-.58.33-.05.02-.1.04-.15.06l-.11.03c-.06.02-.11.03-.17.05l-.16.02c-.1.02-.19.03-.27.03h-65.11c-.49,0-.87-.39-.87-.87v-3.58c0-.48.39-.87.87-.87h66.77c.49,0,.87.39.87.87v1.92Zm-2.67-5.92h-67.55c-.78,0-1.42.64-1.42,1.42v8.73c0,.79.64,1.42,1.42,1.42h67.85c.2-.02.39-.04.58-.06.1-.02.19-.03.28-.06.17-.02.33-.07.49-.12.04,0,.09-.02.13-.04.16-.05.31-.11.47-.17.43-.19.83-.42,1.21-.7.15-.11.29-.23.43-.36.06-.06.14-.12.2-.19.06-.06.13-.14.19-.2.13-.15.25-.28.36-.43.28-.37.51-.78.7-1.21.06-.15.12-.3.17-.46.02-.04.03-.09.04-.13.05-.16.1-.32.12-.49.02-.09.04-.19.06-.28.03-.19.05-.39.06-.58v-.3c0-3.2-2.59-5.79-5.79-5.79Zm2.66,5.92c0,.11-.02.21-.02.24l-.05.2s-.02.11-.04.15l-.03.13c-.02.06-.04.11-.07.19-.09.19-.19.37-.32.55-.05.06-.1.11-.15.17l-.11.13-.1.08c-.06.05-.11.11-.19.15-.16.13-.34.23-.58.33-.05.02-.1.04-.15.06l-.11.03c-.06.02-.11.03-.17.05l-.16.02c-.1.02-.19.03-.27.03h-65.11c-.49,0-.87-.39-.87-.87v-3.58c0-.48.39-.87.87-.87h66.77c.49,0,.87.39.87.87v1.92Zm-2.67-5.92h-67.55c-.78,0-1.42.64-1.42,1.42v8.73c0,.79.64,1.42,1.42,1.42h67.85c.2-.02.39-.04.58-.06.1-.02.19-.03.28-.06.17-.02.33-.07.49-.12.04,0,.09-.02.13-.04.16-.05.31-.11.47-.17.43-.19.83-.42,1.21-.7.15-.11.29-.23.43-.36.06-.06.14-.12.2-.19.06-.06.13-.14.19-.2.13-.15.25-.28.36-.43.28-.37.51-.78.7-1.21.06-.15.12-.3.17-.46.02-.04.03-.09.04-.13.05-.16.1-.32.12-.49.02-.09.04-.19.06-.28.03-.19.05-.39.06-.58v-.3c0-3.2-2.59-5.79-5.79-5.79Zm2.66,5.92c0,.11-.02.21-.02.24l-.05.2s-.02.11-.04.15l-.03.13c-.02.06-.04.11-.07.19-.09.19-.19.37-.32.55-.05.06-.1.11-.15.17l-.11.13-.1.08c-.06.05-.11.11-.19.15-.16.13-.34.23-.58.33-.05.02-.1.04-.15.06l-.11.03c-.06.02-.11.03-.17.05l-.16.02c-.1.02-.19.03-.27.03h-65.11c-.49,0-.87-.39-.87-.87v-3.58c0-.48.39-.87.87-.87h66.77c.49,0,.87.39.87.87v1.92Zm-2.67-5.92h-67.55c-.78,0-1.42.64-1.42,1.42v8.73c0,.79.64,1.42,1.42,1.42h67.85c.2-.02.39-.04.58-.06.1-.02.19-.03.28-.06.17-.02.33-.07.49-.12.04,0,.09-.02.13-.04.16-.05.31-.11.47-.17.43-.19.83-.42,1.21-.7.15-.11.29-.23.43-.36.06-.06.14-.12.2-.19.06-.06.13-.14.19-.2.13-.15.25-.28.36-.43.28-.37.51-.78.7-1.21.06-.15.12-.3.17-.46.02-.04.03-.09.04-.13.05-.16.1-.32.12-.49.02-.09.04-.19.06-.28.03-.19.05-.39.06-.58v-.3c0-3.2-2.59-5.79-5.79-5.79Zm2.66,5.92c0,.11-.02.21-.02.24l-.05.2s-.02.11-.04.15l-.03.13c-.02.06-.04.11-.07.19-.09.19-.19.37-.32.55-.05.06-.1.11-.15.17l-.11.13-.1.08c-.06.05-.11.11-.19.15-.16.13-.34.23-.58.33-.05.02-.1.04-.15.06l-.11.03c-.06.02-.11.03-.17.05l-.16.02c-.1.02-.19.03-.27.03h-65.11c-.49,0-.87-.39-.87-.87v-3.58c0-.48.39-.87.87-.87h66.77c.49,0,.87.39.87.87v1.92Zm-2.67-5.92h-67.55c-.78,0-1.42.64-1.42,1.42v8.73c0,.79.64,1.42,1.42,1.42h67.85c.2-.02.39-.04.58-.06.1-.02.19-.03.28-.06.17-.02.33-.07.49-.12.04,0,.09-.02.13-.04.16-.05.31-.11.47-.17.43-.19.83-.42,1.21-.7.15-.11.29-.23.43-.36.06-.06.14-.12.2-.19.06-.06.13-.14.19-.2.13-.15.25-.28.36-.43.28-.37.51-.78.7-1.21.06-.15.12-.3.17-.46.02-.04.03-.09.04-.13.05-.16.1-.32.12-.49.02-.09.04-.19.06-.28.03-.19.05-.39.06-.58v-.3c0-3.2-2.59-5.79-5.79-5.79Zm2.66,5.92c0,.11-.02.21-.02.24l-.05.2s-.02.11-.04.15l-.03.13c-.02.06-.04.11-.07.19-.09.19-.19.37-.32.55-.05.06-.1.11-.15.17l-.11.13-.1.08c-.06.05-.11.11-.19.15-.16.13-.34.23-.58.33-.05.02-.1.04-.15.06l-.11.03c-.06.02-.11.03-.17.05l-.16.02c-.1.02-.19.03-.27.03h-65.11c-.49,0-.87-.39-.87-.87v-3.58c0-.48.39-.87.87-.87h66.77c.49,0,.87.39.87.87v1.92Z"/>
        <path class="cls-1" d="m300.73,182.43h-5.9c-1.63,0-3.22-.66-4.37-1.81l-18.68-18.67c-.55-.55-.15-1.49.61-1.49h8.71c8.67,0,16.43-5.49,19.32-13.66.78-2.2,1.17-4.49,1.17-6.83s-.39-4.64-1.17-6.84c-1.01-2.86-2.69-5.5-4.83-7.65-3.87-3.87-9.02-6-14.49-6h-105.23c-.48,0-.87.39-.87.87v12.95c0,1.69.92,3.24,2.4,4.04l.23.13c1.03.57,1.93,1.37,2.61,2.34.41.59.74,1.25.95,1.93.23.7.33,1.42.33,2.14l.05,31.81c0,1.49-.45,2.94-1.25,4.13l-.09.12c-1.07,2.43-3.45,3.33-4.59,3.63-.37.1-.63.44-.63.83v9.9c0,.49.39.87.87.87h30.55c.49,0,.87-.39.87-.87v-10.71c0-.46-.36-.84-.81-.87-.53-.03-1.19-.12-1.57-.32l-.32-.18c-1-.55-1.87-1.34-2.52-2.27-.41-.61-.74-1.28-.96-1.97-.22-.71-.33-1.46-.33-2.18v-14.45c0-.49.39-.87.87-.87h35.22c.23,0,.45.09.62.25l32.29,32.29c1.39,1.39,3.31,2.18,5.27,2.18h25.67c.49,0,.87-.39.87-.87v-11.01c0-.48-.39-.87-.87-.87Zm-2.25,7.78c0,1.03-.83,1.85-1.85,1.85h-21.56c-1.14,0-2.24-.46-3.06-1.27l-32.94-32.95c-.33-.32-.77-.5-1.23-.5h-38.43c-.95,0-1.73.77-1.73,1.73v16.72c0,1.06.16,2.1.47,3.1.32,1,.78,1.96,1.38,2.83.93,1.35,2.16,2.46,3.59,3.24l.31.17c.48.26.77.75.77,1.29v4.17c0,.81-.66,1.47-1.48,1.47h-23.09c-.82,0-1.47-.66-1.47-1.47v-4.15c0-.55.29-1.04.77-1.3.08-.04.17-.1.27-.15,1.45-.79,2.69-1.91,3.63-3.28l.05-.06c1.21-1.76,1.85-3.84,1.84-5.96l-.04-31.8c0-1.05-.17-2.09-.48-3.07-.32-.99-.78-1.93-1.38-2.78-.95-1.37-2.21-2.49-3.66-3.29l-.24-.14c-.48-.25-.77-.75-.77-1.29v-9.21c0-.83.66-1.49,1.49-1.49h101.49c4.8,0,9.14,1.94,12.28,5.08,1.8,1.81,3.22,4.03,4.09,6.49.64,1.81.99,3.76.99,5.79s-.35,3.97-.99,5.79c-2.38,6.75-8.82,11.58-16.38,11.58h-14.18c-1.54,0-2.31,1.86-1.22,2.95l22.54,22.54c1.75,1.74,4.11,2.73,6.58,2.73h1.8c1.03,0,1.85.83,1.85,1.85v2.8Z"/>
        <path class="cls-1" d="m296.62,185.55h-1.8c-2.47,0-4.83-.99-6.58-2.73l-22.54-22.54c-1.09-1.09-.32-2.95,1.22-2.95h14.18c7.56,0,14-4.83,16.38-11.58.64-1.81.99-3.75.99-5.79s-.35-3.98-.99-5.79c-.87-2.46-2.29-4.68-4.09-6.49-3.15-3.14-7.48-5.08-12.28-5.08h-101.49c-.83,0-1.49.66-1.49,1.49v9.21c0,.54.29,1.04.77,1.29l.24.14c1.45.79,2.7,1.92,3.66,3.29.6.85,1.06,1.8,1.38,2.78.31.99.48,2.02.48,3.07l.04,31.8c0,2.13-.64,4.21-1.84,5.96l-.05.06c-.94,1.37-2.18,2.49-3.63,3.28-.1.05-.19.11-.27.15-.48.26-.77.75-.77,1.3v4.15c0,.81.66,1.47,1.47,1.47h23.09c.82,0,1.48-.66,1.48-1.47v-4.17c0-.53-.29-1.03-.77-1.29l-.31-.17c-1.43-.78-2.66-1.89-3.59-3.24-.6-.87-1.06-1.83-1.38-2.83-.31-1-.47-2.04-.47-3.1v-16.72c0-.96.78-1.73,1.73-1.73h38.43c.46,0,.9.18,1.23.5l32.94,32.95c.82.81,1.92,1.27,3.06,1.27h21.56c1.03,0,1.85-.83,1.85-1.85v-2.8c0-1.03-.83-1.85-1.85-1.85Zm-97.53-39.79c-.78,0-1.42-.64-1.42-1.42v-8.73c0-.78.64-1.42,1.42-1.42h67.55c3.2,0,5.79,2.6,5.79,5.79v.3c-.02.19-.03.39-.06.58-.02.1-.03.19-.06.28-.02.17-.07.33-.12.49,0,.04-.02.09-.04.13-.05.16-.11.31-.17.46-.19.44-.41.84-.7,1.21-.11.15-.23.28-.36.43-.06.06-.12.14-.19.2-.06.06-.14.13-.2.19-.14.13-.27.24-.43.36-.37.28-.78.51-1.21.7-.16.06-.31.12-.47.17-.04.02-.09.03-.13.04-.16.05-.32.1-.49.12-.09.02-.19.04-.28.06-.19.02-.38.05-.58.06h-67.85Z"/>
        <g>
          <path class="cls-1" d="m187.22,95.4v4.35c0,.4.33.73.74.73h30.22c.34,0,.62.28.62.63v3.02c0,.35-.28.62-.62.62h-30.22c-.4,0-.74.32-.74.73v5.82c0,.4.33.73.74.73h38.14c.35,0,.63.28.63.63v3.02c0,.34-.28.62-.63.62h-56c-.34,0-.61-.28-.61-.61v-24.69c0-.33.27-.6.61-.6h56c.35,0,.63.28.63.62v3.02c0,.34-.28.62-.63.62h-38.14c-.4,0-.74.33-.74.73Z"/>
          <path class="cls-1" d="m298.48,113.46v1.41c0,.79-.64,1.43-1.43,1.43h-52.9c-.79,0-1.42-.64-1.42-1.43v-23.04c0-.78.64-1.42,1.42-1.42h15.03c.79,0,1.43.64,1.43,1.42v18.77c0,.78.64,1.42,1.42,1.42h35.01c.79,0,1.43.64,1.43,1.43Z"/>
        </g>
      </g>
    </g>
  </g>
</svg>