<?xml version="1.0" encoding="UTF-8"?>
<svg id="Layer_2" data-name="Layer 2" xmlns="http://www.w3.org/2000/svg" xmlns:xlink="http://www.w3.org/1999/xlink" viewBox="0 0 465.99 537.95">
  <defs>
    <style>
      .cls-1 {
        fill: #fff;
      }

      .cls-2 {
        clip-path: url(#clippath-2);
      }

      .cls-3 {
        clip-path: url(#clippath-1);
      }

      .cls-4 {
        clip-path: url(#clippath-4);
      }

      .cls-5 {
        clip-path: url(#clippath);
      }

      .cls-6 {
        clip-path: url(#clippath-3);
      }
    </style>
    <clipPath id="clippath">
      <path class="cls-1" d="m200.8,225.46v98.09l-14.78-2.92c-4.37-.86-8.84-1.3-13.3-1.3-5.69,0-11.37.71-16.88,2.11l-40.13,10.2c-2.54.65-5.08,1.45-7.52,2.38l-54.45,20.74v-129.3c0-5.15,4.17-9.32,9.32-9.32h128.42c5.15,0,9.32,4.17,9.32,9.32Z"/>
    </clipPath>
    <clipPath id="clippath-1">
      <path class="cls-1" d="m380.05,225.46v150.49l-32.76,19.77c.61-2.35.96-4.79,1.02-7.27l.18-7.11c.27-10.71-4.75-20.85-13.44-27.13l-2.12-1.53c-3.76-2.72-8.16-4.63-12.71-5.53l-87.23-17.24v-104.45c0-5.15,4.17-9.32,9.32-9.32h128.42c5.15,0,9.32,4.17,9.32,9.32Z"/>
    </clipPath>
    <clipPath id="clippath-2">
      <rect class="cls-1" x="30.86" y="120.89" width="169.94" height="81.17" rx="9.32" ry="9.32"/>
    </clipPath>
    <clipPath id="clippath-3">
      <rect class="cls-1" x="232.99" y="120.89" width="169.94" height="81.17" rx="9.32" ry="9.32"/>
    </clipPath>
    <clipPath id="clippath-4">
      <path class="cls-1" d="m443.07,362.34l-8.01.83c-2.31.24-4.53.99-6.52,2.18l-115.87,69.95c-8.24,4.98-17.68,7.61-27.31,7.61h0c-6.24,0-12.43-1.11-18.29-3.27l-59.88-22.09c-3.08-1.14-2.45-5.66.82-5.92l14.7-1.15,94.29-6.46c2.4-.16,4.74-.86,6.85-2.02h0c5.1-2.83,8.33-8.14,8.47-13.97l.18-7.11c.14-5.43-2.41-10.58-6.81-13.76l-2.12-1.53c-1.92-1.39-4.12-2.34-6.44-2.8l-134.2-26.52c-7.66-1.51-15.57-1.3-23.14.62l-40.13,10.2c-1.96.5-3.88,1.11-5.77,1.82l-97.81,37.26c-9.68,3.69-16.08,12.97-16.08,23.33v68.91c0,16.59,15.88,28.56,31.83,24.01l28.91-8.26c7.34-2.1,15.15-1.96,22.41.39l125.62,40.71c5.39,1.75,11.01,2.63,16.68,2.63h6.16c9.41,0,18.66-2.46,26.84-7.13l40.62-23.21c.08-.05.17-.1.25-.16l160.01-112.82c4.19-2.95,6.68-7.76,6.68-12.88h0c0-5.24-2.6-10.13-6.94-13.06l-5.53-3.73c-3.07-2.07-6.77-3-10.45-2.61Z"/>
    </clipPath>
  </defs>
  <g id="Layer_1-2" data-name="Layer 1">
    <g>
      <g>
        <path class="cls-1" d="m200.8,225.46v98.09l-14.78-2.92c-4.37-.86-8.84-1.3-13.3-1.3-5.69,0-11.37.71-16.88,2.11l-40.13,10.2c-2.54.65-5.08,1.45-7.52,2.38l-54.45,20.74v-129.3c0-5.15,4.17-9.32,9.32-9.32h128.42c5.15,0,9.32,4.17,9.32,9.32Z"/>
        <g class="cls-5">
          <rect class="cls-1" x="53.74" y="216.14" width="147.06" height=".08"/>
          <rect class="cls-1" x="53.74" y="216.22" width="147.06" height="2.58"/>
          <rect class="cls-1" x="53.74" y="218.8" width="147.06" height="2.58"/>
          <rect class="cls-1" x="53.74" y="221.37" width="147.06" height="2.58"/>
          <rect class="cls-1" x="53.74" y="223.95" width="147.06" height="2.58"/>
          <rect class="cls-1" x="53.74" y="226.53" width="147.06" height="2.58"/>
          <rect class="cls-1" x="53.74" y="229.11" width="147.06" height="2.58"/>
          <rect class="cls-1" x="53.74" y="231.69" width="147.06" height="2.58"/>
          <rect class="cls-1" x="53.74" y="234.27" width="147.06" height="2.58"/>
          <rect class="cls-1" x="53.74" y="236.84" width="147.06" height="2.58"/>
          <rect class="cls-1" x="53.74" y="239.42" width="147.06" height="2.58"/>
          <rect class="cls-1" x="53.74" y="242" width="147.06" height="2.58"/>
          <rect class="cls-1" x="53.74" y="244.58" width="147.06" height="2.58"/>
          <rect class="cls-1" x="53.74" y="247.16" width="147.06" height="2.58"/>
          <rect class="cls-1" x="53.74" y="249.74" width="147.06" height="2.58"/>
          <rect class="cls-1" x="53.74" y="252.31" width="147.06" height="2.58"/>
          <rect class="cls-1" x="53.74" y="254.89" width="147.06" height="2.58"/>
          <rect class="cls-1" x="53.74" y="257.47" width="147.06" height="2.58"/>
          <rect class="cls-1" x="53.74" y="260.05" width="147.06" height="2.58"/>
          <rect class="cls-1" x="53.74" y="262.63" width="147.06" height="2.58"/>
          <rect class="cls-1" x="53.74" y="265.21" width="147.06" height="2.58"/>
          <rect class="cls-1" x="53.74" y="267.78" width="147.06" height="2.58"/>
          <rect class="cls-1" x="53.74" y="270.36" width="147.06" height="2.58"/>
          <rect class="cls-1" x="53.74" y="272.94" width="147.06" height="2.58"/>
          <rect class="cls-1" x="53.74" y="275.52" width="147.06" height="2.58"/>
          <rect class="cls-1" x="53.74" y="278.1" width="147.06" height="2.58"/>
          <rect class="cls-1" x="53.74" y="280.68" width="147.06" height="2.58"/>
          <rect class="cls-1" x="53.74" y="283.25" width="147.06" height="2.58"/>
          <rect class="cls-1" x="53.74" y="285.83" width="147.06" height="2.58"/>
          <rect class="cls-1" x="53.74" y="288.41" width="147.06" height="2.58"/>
          <rect class="cls-1" x="53.74" y="290.99" width="147.06" height="2.58"/>
          <rect class="cls-1" x="53.74" y="293.57" width="147.06" height="2.58"/>
          <rect class="cls-1" x="53.74" y="296.14" width="147.06" height="2.58"/>
          <rect class="cls-1" x="53.74" y="298.72" width="147.06" height="2.58"/>
          <rect class="cls-1" x="53.74" y="301.3" width="147.06" height="2.58"/>
          <rect class="cls-1" x="53.74" y="303.88" width="147.06" height="2.58"/>
          <rect class="cls-1" x="53.74" y="306.46" width="147.06" height="2.58"/>
          <rect class="cls-1" x="53.74" y="309.04" width="147.06" height="2.58"/>
          <rect class="cls-1" x="53.74" y="311.61" width="147.06" height="2.58"/>
          <rect class="cls-1" x="53.74" y="314.19" width="147.06" height="2.58"/>
          <rect class="cls-1" x="53.74" y="316.77" width="147.06" height="2.58"/>
          <rect class="cls-1" x="53.74" y="319.35" width="147.06" height="2.58"/>
          <rect class="cls-1" x="53.74" y="321.93" width="147.06" height="2.58"/>
          <rect class="cls-1" x="53.74" y="324.51" width="147.06" height="2.58"/>
          <rect class="cls-1" x="53.74" y="327.08" width="147.06" height="2.58"/>
          <rect class="cls-1" x="53.74" y="329.66" width="147.06" height="2.58"/>
          <rect class="cls-1" x="53.74" y="332.24" width="147.06" height="2.58"/>
          <rect class="cls-1" x="53.74" y="334.82" width="147.06" height="2.58"/>
          <rect class="cls-1" x="53.74" y="337.4" width="147.06" height="2.58"/>
          <rect class="cls-1" x="53.74" y="339.98" width="147.06" height="2.58"/>
          <rect class="cls-1" x="53.74" y="342.55" width="147.06" height="2.58"/>
          <rect class="cls-1" x="53.74" y="345.13" width="147.06" height="2.58"/>
          <rect class="cls-1" x="53.74" y="347.71" width="147.06" height="2.58"/>
          <rect class="cls-1" x="53.74" y="350.29" width="147.06" height="2.58"/>
          <rect class="cls-1" x="53.74" y="352.87" width="147.06" height="1.89"/>
        </g>
      </g>
      <g>
        <path class="cls-1" d="m380.05,225.46v150.49l-32.76,19.77c.61-2.35.96-4.79,1.02-7.27l.18-7.11c.27-10.71-4.75-20.85-13.44-27.13l-2.12-1.53c-3.76-2.72-8.16-4.63-12.71-5.53l-87.23-17.24v-104.45c0-5.15,4.17-9.32,9.32-9.32h128.42c5.15,0,9.32,4.17,9.32,9.32Z"/>
        <g class="cls-3">
          <rect class="cls-1" x="232.99" y="216.14" width="147.06" height=".08"/>
          <rect class="cls-1" x="232.99" y="216.22" width="147.06" height="2.58"/>
          <rect class="cls-1" x="232.99" y="218.8" width="147.06" height="2.58"/>
          <rect class="cls-1" x="232.99" y="221.37" width="147.06" height="2.58"/>
          <rect class="cls-1" x="232.99" y="223.95" width="147.06" height="2.58"/>
          <rect class="cls-1" x="232.99" y="226.53" width="147.06" height="2.58"/>
          <rect class="cls-1" x="232.99" y="229.11" width="147.06" height="2.58"/>
          <rect class="cls-1" x="232.99" y="231.69" width="147.06" height="2.58"/>
          <rect class="cls-1" x="232.99" y="234.27" width="147.06" height="2.58"/>
          <rect class="cls-1" x="232.99" y="236.84" width="147.06" height="2.58"/>
          <rect class="cls-1" x="232.99" y="239.42" width="147.06" height="2.58"/>
          <rect class="cls-1" x="232.99" y="242" width="147.06" height="2.58"/>
          <rect class="cls-1" x="232.99" y="244.58" width="147.06" height="2.58"/>
          <rect class="cls-1" x="232.99" y="247.16" width="147.06" height="2.58"/>
          <rect class="cls-1" x="232.99" y="249.74" width="147.06" height="2.58"/>
          <rect class="cls-1" x="232.99" y="252.31" width="147.06" height="2.58"/>
          <rect class="cls-1" x="232.99" y="254.89" width="147.06" height="2.58"/>
          <rect class="cls-1" x="232.99" y="257.47" width="147.06" height="2.58"/>
          <rect class="cls-1" x="232.99" y="260.05" width="147.06" height="2.58"/>
          <rect class="cls-1" x="232.99" y="262.63" width="147.06" height="2.58"/>
          <rect class="cls-1" x="232.99" y="265.21" width="147.06" height="2.58"/>
          <rect class="cls-1" x="232.99" y="267.78" width="147.06" height="2.58"/>
          <rect class="cls-1" x="232.99" y="270.36" width="147.06" height="2.58"/>
          <rect class="cls-1" x="232.99" y="272.94" width="147.06" height="2.58"/>
          <rect class="cls-1" x="232.99" y="275.52" width="147.06" height="2.58"/>
          <rect class="cls-1" x="232.99" y="278.1" width="147.06" height="2.58"/>
          <rect class="cls-1" x="232.99" y="280.68" width="147.06" height="2.58"/>
          <rect class="cls-1" x="232.99" y="283.25" width="147.06" height="2.58"/>
          <rect class="cls-1" x="232.99" y="285.83" width="147.06" height="2.58"/>
          <rect class="cls-1" x="232.99" y="288.41" width="147.06" height="2.58"/>
          <rect class="cls-1" x="232.99" y="290.99" width="147.06" height="2.58"/>
          <rect class="cls-1" x="232.99" y="293.57" width="147.06" height="2.58"/>
          <rect class="cls-1" x="232.99" y="296.14" width="147.06" height="2.58"/>
          <rect class="cls-1" x="232.99" y="298.72" width="147.06" height="2.58"/>
          <rect class="cls-1" x="232.99" y="301.3" width="147.06" height="2.58"/>
          <rect class="cls-1" x="232.99" y="303.88" width="147.06" height="2.58"/>
          <rect class="cls-1" x="232.99" y="306.46" width="147.06" height="2.58"/>
          <rect class="cls-1" x="232.99" y="309.04" width="147.06" height="2.58"/>
          <rect class="cls-1" x="232.99" y="311.61" width="147.06" height="2.58"/>
          <rect class="cls-1" x="232.99" y="314.19" width="147.06" height="2.58"/>
          <rect class="cls-1" x="232.99" y="316.77" width="147.06" height="2.58"/>
          <rect class="cls-1" x="232.99" y="319.35" width="147.06" height="2.58"/>
          <rect class="cls-1" x="232.99" y="321.93" width="147.06" height="2.58"/>
          <rect class="cls-1" x="232.99" y="324.51" width="147.06" height="2.58"/>
          <rect class="cls-1" x="232.99" y="327.08" width="147.06" height="2.58"/>
          <rect class="cls-1" x="232.99" y="329.66" width="147.06" height="2.58"/>
          <rect class="cls-1" x="232.99" y="332.24" width="147.06" height="2.58"/>
          <rect class="cls-1" x="232.99" y="334.82" width="147.06" height="2.58"/>
          <rect class="cls-1" x="232.99" y="337.4" width="147.06" height="2.58"/>
          <rect class="cls-1" x="232.99" y="339.98" width="147.06" height="2.58"/>
          <rect class="cls-1" x="232.99" y="342.55" width="147.06" height="2.58"/>
          <rect class="cls-1" x="232.99" y="345.13" width="147.06" height="2.58"/>
          <rect class="cls-1" x="232.99" y="347.71" width="147.06" height="2.58"/>
          <rect class="cls-1" x="232.99" y="350.29" width="147.06" height="2.58"/>
          <rect class="cls-1" x="232.99" y="352.87" width="147.06" height="2.58"/>
          <rect class="cls-1" x="232.99" y="355.45" width="147.06" height="2.58"/>
          <rect class="cls-1" x="232.99" y="358.02" width="147.06" height="2.58"/>
          <rect class="cls-1" x="232.99" y="360.6" width="147.06" height="2.58"/>
          <rect class="cls-1" x="232.99" y="363.18" width="147.06" height="2.58"/>
          <rect class="cls-1" x="232.99" y="365.76" width="147.06" height="2.58"/>
          <rect class="cls-1" x="232.99" y="368.34" width="147.06" height="2.58"/>
          <rect class="cls-1" x="232.99" y="370.91" width="147.06" height="2.58"/>
          <rect class="cls-1" x="232.99" y="373.49" width="147.06" height="2.58"/>
          <rect class="cls-1" x="232.99" y="376.07" width="147.06" height="2.58"/>
          <rect class="cls-1" x="232.99" y="378.65" width="147.06" height="2.58"/>
          <rect class="cls-1" x="232.99" y="381.23" width="147.06" height="2.58"/>
          <rect class="cls-1" x="232.99" y="383.81" width="147.06" height="2.58"/>
          <rect class="cls-1" x="232.99" y="386.38" width="147.06" height="2.58"/>
          <rect class="cls-1" x="232.99" y="388.96" width="147.06" height="2.58"/>
          <rect class="cls-1" x="232.99" y="391.54" width="147.06" height="2.58"/>
          <rect class="cls-1" x="232.99" y="394.12" width="147.06" height="1.6"/>
        </g>
      </g>
      <g>
        <rect class="cls-1" x="30.86" y="120.89" width="169.94" height="81.17" rx="9.32" ry="9.32"/>
        <g class="cls-2">
          <rect class="cls-1" x="30.86" y="120.89" width="169.94" height="2.52"/>
          <rect class="cls-1" x="30.86" y="123.4" width="169.94" height="2.58"/>
          <rect class="cls-1" x="30.86" y="125.98" width="169.94" height="2.58"/>
          <rect class="cls-1" x="30.86" y="128.56" width="169.94" height="2.58"/>
          <rect class="cls-1" x="30.86" y="131.14" width="169.94" height="2.58"/>
          <rect class="cls-1" x="30.86" y="133.71" width="169.94" height="2.58"/>
          <rect class="cls-1" x="30.86" y="136.29" width="169.94" height="2.58"/>
          <rect class="cls-1" x="30.86" y="138.87" width="169.94" height="2.58"/>
          <rect class="cls-1" x="30.86" y="141.45" width="169.94" height="2.58"/>
          <rect class="cls-1" x="30.86" y="144.03" width="169.94" height="2.58"/>
          <rect class="cls-1" x="30.86" y="146.6" width="169.94" height="2.58"/>
          <rect class="cls-1" x="30.86" y="149.18" width="169.94" height="2.58"/>
          <rect class="cls-1" x="30.86" y="151.76" width="169.94" height="2.58"/>
          <rect class="cls-1" x="30.86" y="154.34" width="169.94" height="2.58"/>
          <rect class="cls-1" x="30.86" y="156.92" width="169.94" height="2.58"/>
          <rect class="cls-1" x="30.86" y="159.5" width="169.94" height="2.58"/>
          <rect class="cls-1" x="30.86" y="162.07" width="169.94" height="2.58"/>
          <rect class="cls-1" x="30.86" y="164.65" width="169.94" height="2.58"/>
          <rect class="cls-1" x="30.86" y="167.23" width="169.94" height="2.58"/>
          <rect class="cls-1" x="30.86" y="169.81" width="169.94" height="2.58"/>
          <rect class="cls-1" x="30.86" y="172.39" width="169.94" height="2.58"/>
          <rect class="cls-1" x="30.86" y="174.97" width="169.94" height="2.58"/>
          <rect class="cls-1" x="30.86" y="177.54" width="169.94" height="2.58"/>
          <rect class="cls-1" x="30.86" y="180.12" width="169.94" height="2.58"/>
          <rect class="cls-1" x="30.86" y="182.7" width="169.94" height="2.58"/>
          <rect class="cls-1" x="30.86" y="185.28" width="169.94" height="2.58"/>
          <rect class="cls-1" x="30.86" y="187.86" width="169.94" height="2.58"/>
          <rect class="cls-1" x="30.86" y="190.44" width="169.94" height="2.58"/>
          <rect class="cls-1" x="30.86" y="193.01" width="169.94" height="2.58"/>
          <rect class="cls-1" x="30.86" y="195.59" width="169.94" height="2.58"/>
          <rect class="cls-1" x="30.86" y="198.17" width="169.94" height="2.58"/>
          <rect class="cls-1" x="30.86" y="200.75" width="169.94" height="1.31"/>
        </g>
      </g>
      <g>
        <rect class="cls-1" x="232.99" y="120.89" width="169.94" height="81.17" rx="9.32" ry="9.32"/>
        <g class="cls-6">
          <rect class="cls-1" x="232.99" y="120.89" width="169.94" height="2.52"/>
          <rect class="cls-1" x="232.99" y="123.4" width="169.94" height="2.58"/>
          <rect class="cls-1" x="232.99" y="125.98" width="169.94" height="2.58"/>
          <rect class="cls-1" x="232.99" y="128.56" width="169.94" height="2.58"/>
          <rect class="cls-1" x="232.99" y="131.14" width="169.94" height="2.58"/>
          <rect class="cls-1" x="232.99" y="133.71" width="169.94" height="2.58"/>
          <rect class="cls-1" x="232.99" y="136.29" width="169.94" height="2.58"/>
          <rect class="cls-1" x="232.99" y="138.87" width="169.94" height="2.58"/>
          <rect class="cls-1" x="232.99" y="141.45" width="169.94" height="2.58"/>
          <rect class="cls-1" x="232.99" y="144.03" width="169.94" height="2.58"/>
          <rect class="cls-1" x="232.99" y="146.6" width="169.94" height="2.58"/>
          <rect class="cls-1" x="232.99" y="149.18" width="169.94" height="2.58"/>
          <rect class="cls-1" x="232.99" y="151.76" width="169.94" height="2.58"/>
          <rect class="cls-1" x="232.99" y="154.34" width="169.94" height="2.58"/>
          <rect class="cls-1" x="232.99" y="156.92" width="169.94" height="2.58"/>
          <rect class="cls-1" x="232.99" y="159.5" width="169.94" height="2.58"/>
          <rect class="cls-1" x="232.99" y="162.07" width="169.94" height="2.58"/>
          <rect class="cls-1" x="232.99" y="164.65" width="169.94" height="2.58"/>
          <rect class="cls-1" x="232.99" y="167.23" width="169.94" height="2.58"/>
          <rect class="cls-1" x="232.99" y="169.81" width="169.94" height="2.58"/>
          <rect class="cls-1" x="232.99" y="172.39" width="169.94" height="2.58"/>
          <rect class="cls-1" x="232.99" y="174.97" width="169.94" height="2.58"/>
          <rect class="cls-1" x="232.99" y="177.54" width="169.94" height="2.58"/>
          <rect class="cls-1" x="232.99" y="180.12" width="169.94" height="2.58"/>
          <rect class="cls-1" x="232.99" y="182.7" width="169.94" height="2.58"/>
          <rect class="cls-1" x="232.99" y="185.28" width="169.94" height="2.58"/>
          <rect class="cls-1" x="232.99" y="187.86" width="169.94" height="2.58"/>
          <rect class="cls-1" x="232.99" y="190.44" width="169.94" height="2.58"/>
          <rect class="cls-1" x="232.99" y="193.01" width="169.94" height="2.58"/>
          <rect class="cls-1" x="232.99" y="195.59" width="169.94" height="2.58"/>
          <rect class="cls-1" x="232.99" y="198.17" width="169.94" height="2.58"/>
          <rect class="cls-1" x="232.99" y="200.75" width="169.94" height="1.31"/>
        </g>
      </g>
      <g>
        <path class="cls-1" d="m443.07,362.34l-8.01.83c-2.31.24-4.53.99-6.52,2.18l-115.87,69.95c-8.24,4.98-17.68,7.61-27.31,7.61h0c-6.24,0-12.43-1.11-18.29-3.27l-59.88-22.09c-3.08-1.14-2.45-5.66.82-5.92l14.7-1.15,94.29-6.46c2.4-.16,4.74-.86,6.85-2.02h0c5.1-2.83,8.33-8.14,8.47-13.97l.18-7.11c.14-5.43-2.41-10.58-6.81-13.76l-2.12-1.53c-1.92-1.39-4.12-2.34-6.44-2.8l-134.2-26.52c-7.66-1.51-15.57-1.3-23.14.62l-40.13,10.2c-1.96.5-3.88,1.11-5.77,1.82l-97.81,37.26c-9.68,3.69-16.08,12.97-16.08,23.33v68.91c0,16.59,15.88,28.56,31.83,24.01l28.91-8.26c7.34-2.1,15.15-1.96,22.41.39l125.62,40.71c5.39,1.75,11.01,2.63,16.68,2.63h6.16c9.41,0,18.66-2.46,26.84-7.13l40.62-23.21c.08-.05.17-.1.25-.16l160.01-112.82c4.19-2.95,6.68-7.76,6.68-12.88h0c0-5.24-2.6-10.13-6.94-13.06l-5.53-3.73c-3.07-2.07-6.77-3-10.45-2.61Z"/>
        <g class="cls-4">
          <rect class="cls-1" x="0" y="334.81" width="465.99" height=".01"/>
          <rect class="cls-1" x="0" y="334.82" width="465.99" height="2.58"/>
          <rect class="cls-1" x="0" y="337.4" width="465.99" height="2.58"/>
          <rect class="cls-1" x="0" y="339.98" width="465.99" height="2.58"/>
          <rect class="cls-1" x="0" y="342.55" width="465.99" height="2.58"/>
          <rect class="cls-1" x="0" y="345.13" width="465.99" height="2.58"/>
          <rect class="cls-1" x="0" y="347.71" width="465.99" height="2.58"/>
          <rect class="cls-1" x="0" y="350.29" width="465.99" height="2.58"/>
          <rect class="cls-1" x="0" y="352.87" width="465.99" height="2.58"/>
          <rect class="cls-1" x="0" y="355.45" width="465.99" height="2.58"/>
          <rect class="cls-1" x="0" y="358.02" width="465.99" height="2.58"/>
          <rect class="cls-1" x="0" y="360.6" width="465.99" height="2.58"/>
          <rect class="cls-1" x="0" y="363.18" width="465.99" height="2.58"/>
          <rect class="cls-1" x="0" y="365.76" width="465.99" height="2.58"/>
          <rect class="cls-1" x="0" y="368.34" width="465.99" height="2.58"/>
          <rect class="cls-1" x="0" y="370.91" width="465.99" height="2.58"/>
          <rect class="cls-1" x="0" y="373.49" width="465.99" height="2.58"/>
          <rect class="cls-1" x="0" y="376.07" width="465.99" height="2.58"/>
          <rect class="cls-1" x="0" y="378.65" width="465.99" height="2.58"/>
          <rect class="cls-1" x="0" y="381.23" width="465.99" height="2.58"/>
          <rect class="cls-1" x="0" y="383.81" width="465.99" height="2.58"/>
          <rect class="cls-1" x="0" y="386.38" width="465.99" height="2.58"/>
          <rect class="cls-1" x="0" y="388.96" width="465.99" height="2.58"/>
          <rect class="cls-1" x="0" y="391.54" width="465.99" height="2.58"/>
          <rect class="cls-1" x="0" y="394.12" width="465.99" height="2.58"/>
          <rect class="cls-1" x="0" y="396.7" width="465.99" height="2.58"/>
          <rect class="cls-1" x="0" y="399.28" width="465.99" height="2.58"/>
          <rect class="cls-1" x="0" y="401.85" width="465.99" height="2.58"/>
          <rect class="cls-1" x="0" y="404.43" width="465.99" height="2.58"/>
          <rect class="cls-1" x="0" y="407.01" width="465.99" height="2.58"/>
          <rect class="cls-1" x="0" y="409.59" width="465.99" height="2.58"/>
          <rect class="cls-1" x="0" y="412.17" width="465.99" height="2.58"/>
          <rect class="cls-1" x="0" y="414.75" width="465.99" height="2.58"/>
          <rect class="cls-1" x="0" y="417.32" width="465.99" height="2.58"/>
          <rect class="cls-1" x="0" y="419.9" width="465.99" height="2.58"/>
          <rect class="cls-1" x="0" y="422.48" width="465.99" height="2.58"/>
          <rect class="cls-1" x="0" y="425.06" width="465.99" height="2.58"/>
          <rect class="cls-1" x="0" y="427.64" width="465.99" height="2.58"/>
          <rect class="cls-1" x="0" y="430.22" width="465.99" height="2.58"/>
          <rect class="cls-1" x="0" y="432.79" width="465.99" height="2.58"/>
          <rect class="cls-1" x="0" y="435.37" width="465.99" height="2.58"/>
          <rect class="cls-1" x="0" y="437.95" width="465.99" height="2.58"/>
          <rect class="cls-1" x="0" y="440.53" width="465.99" height="2.58"/>
          <rect class="cls-1" x="0" y="443.11" width="465.99" height="2.58"/>
          <rect class="cls-1" x="0" y="445.68" width="465.99" height="2.58"/>
          <rect class="cls-1" x="0" y="448.26" width="465.99" height="2.58"/>
          <rect class="cls-1" x="0" y="450.84" width="465.99" height="2.58"/>
          <rect class="cls-1" x="0" y="453.42" width="465.99" height="2.58"/>
          <rect class="cls-1" x="0" y="456" width="465.99" height="2.58"/>
          <rect class="cls-1" x="0" y="458.58" width="465.99" height="2.58"/>
          <rect class="cls-1" x="0" y="461.15" width="465.99" height="2.58"/>
          <rect class="cls-1" x="0" y="463.73" width="465.99" height="2.58"/>
          <rect class="cls-1" x="0" y="466.31" width="465.99" height="2.58"/>
          <rect class="cls-1" x="0" y="468.89" width="465.99" height="2.58"/>
          <rect class="cls-1" x="0" y="471.47" width="465.99" height="2.58"/>
          <rect class="cls-1" x="0" y="474.05" width="465.99" height="2.58"/>
          <rect class="cls-1" x="0" y="476.62" width="465.99" height="2.58"/>
          <rect class="cls-1" x="0" y="479.2" width="465.99" height="2.58"/>
          <rect class="cls-1" x="0" y="481.78" width="465.99" height="2.58"/>
          <rect class="cls-1" x="0" y="484.36" width="465.99" height="2.58"/>
          <rect class="cls-1" x="0" y="486.94" width="465.99" height="2.58"/>
          <rect class="cls-1" x="0" y="489.52" width="465.99" height="2.58"/>
          <rect class="cls-1" x="0" y="492.09" width="465.99" height="2.58"/>
          <rect class="cls-1" x="0" y="494.67" width="465.99" height="2.58"/>
          <rect class="cls-1" x="0" y="497.25" width="465.99" height="2.58"/>
          <rect class="cls-1" x="0" y="499.83" width="465.99" height="2.58"/>
          <rect class="cls-1" x="0" y="502.41" width="465.99" height="2.58"/>
          <rect class="cls-1" x="0" y="504.99" width="465.99" height="2.58"/>
          <rect class="cls-1" x="0" y="507.56" width="465.99" height="2.58"/>
          <rect class="cls-1" x="0" y="510.14" width="465.99" height="2.58"/>
          <rect class="cls-1" x="0" y="512.72" width="465.99" height="2.58"/>
          <rect class="cls-1" x="0" y="515.3" width="465.99" height="2.58"/>
          <rect class="cls-1" x="0" y="517.88" width="465.99" height="2.58"/>
          <rect class="cls-1" x="0" y="520.46" width="465.99" height="2.58"/>
          <rect class="cls-1" x="0" y="523.03" width="465.99" height="2.58"/>
          <rect class="cls-1" x="0" y="525.61" width="465.99" height="2.58"/>
          <rect class="cls-1" x="0" y="528.19" width="465.99" height="2.58"/>
          <rect class="cls-1" x="0" y="530.77" width="465.99" height="2.58"/>
          <rect class="cls-1" x="0" y="533.35" width="465.99" height="2.58"/>
          <rect class="cls-1" x="0" y="535.92" width="465.99" height="2.02"/>
        </g>
      </g>
      <g>
        <path class="cls-1" d="m271.78,104.04c-12.8,0-24.83-.8-34.11-1.66-9.29-.87-17.12-6.82-20.45-15.53-3.33-8.72-1.46-18.38,4.89-25.22h0c10.54-11.36,26.76-27.58,44.17-40.33,23.38-17.13,42.9-23.82,59.68-20.46,10.48,2.1,24.71,9.3,32.94,31.68,8.25,22.42,2.13,37.33-4.46,45.9-10.45,13.58-29.33,21.59-57.74,24.46-8.28.84-16.76,1.16-24.93,1.16Zm-19.46-30.61c39.92,2.43,70.09-2.56,78.34-13.29,1.08-1.4,4.35-5.66.08-17.25-4.17-11.32-9.07-12.31-10.68-12.63-10.07-2.03-33.52,8.38-67.74,43.17Z"/>
        <path class="cls-1" d="m162.01,104.04c-8.17,0-16.65-.32-24.93-1.16-28.41-2.88-47.3-10.88-57.74-24.46-6.58-8.56-12.7-23.48-4.46-45.9C83.12,10.14,97.35,2.94,107.83.84c16.78-3.36,36.3,3.33,59.68,20.46,17.41,12.76,33.63,28.97,44.17,40.33h0c6.34,6.84,8.22,16.5,4.89,25.22-3.33,8.71-11.17,14.67-20.45,15.53-9.28.86-21.31,1.66-34.11,1.66ZM116.34,30.02c-.95,0-1.82.08-2.61.24-1.61.32-6.52,1.31-10.68,12.63-4.27,11.59-.99,15.85.08,17.25,8.25,10.74,38.42,15.72,78.34,13.29-31.54-32.07-53.93-43.41-65.13-43.41Z"/>
      </g>
    </g>
  </g>
</svg>