<?xml version="1.0" encoding="UTF-8"?>
<svg id="Layer_2" data-name="Layer 2" xmlns="http://www.w3.org/2000/svg" xmlns:xlink="http://www.w3.org/1999/xlink" viewBox="0 0 338.28 380.64">
  <defs>
    <style>
      .cls-1, .cls-2 {
        fill: #fff;
      }

      .cls-3 {
        clip-path: url(#clippath-1);
      }

      .cls-4 {
        clip-path: url(#clippath);
      }

      .cls-2 {
        opacity: .15;
      }
    </style>
    <clipPath id="clippath">
      <path class="cls-1" d="m181.89,35.07c0,8.42-6.82,15.23-15.23,15.23-4.2,0-8.01-1.7-10.77-4.46-2.76-2.76-4.46-6.57-4.46-10.77s1.7-8.01,4.46-10.77c2.76-2.76,6.57-4.46,10.77-4.46s8.01,1.7,10.77,4.46c2.76,2.76,4.46,6.57,4.46,10.77Z"/>
    </clipPath>
    <clipPath id="clippath-1">
      <path class="cls-1" d="m293.99,223.31c-6.18,22.01-35.28,38.37-35.28,38.37,0,0-29.1-16.35-35.28-38.37-10.31-36.73,35.28-32.19,35.28-9.08,0-23.11,45.59-27.65,35.28,9.08Z"/>
    </clipPath>
  </defs>
  <g id="Layer_1-2" data-name="Layer 1">
    <g>
      <path class="cls-2" d="m290.86,152.46h-6.73V32.53C284.13,14.59,269.54,0,251.61,0H81.72C63.78,0,49.19,14.59,49.19,32.53v35.32h-1.76C21.28,67.85,0,89.12,0,115.27v48.73C0,190.16,21.28,211.43,47.43,211.43h1.76v136.68c0,17.93,14.59,32.53,32.52,32.53h169.89c17.93,0,32.52-14.6,32.52-32.53v-52.07h6.73c26.15,0,47.42-21.27,47.42-47.42v-48.74c0-26.15-21.26-47.42-47.42-47.42Z"/>
      <path class="cls-1" d="m129.78,376.47h-48.06c-15.64,0-28.36-12.73-28.36-28.37v-18.95c0-1.46,1.19-2.65,2.65-2.65h73.78c1.46,0,2.65,1.19,2.65,2.65v44.67c0,1.46-1.19,2.65-2.65,2.65Zm-71.13-44.67v16.3c0,12.72,10.35,23.07,23.07,23.07h45.41v-39.37H58.65Z"/>
      <path class="cls-1" d="m203.55,376.47h-73.77c-1.46,0-2.65-1.19-2.65-2.65v-44.67c0-1.46,1.19-2.65,2.65-2.65h73.77c1.46,0,2.65,1.19,2.65,2.65v44.67c0,1.46-1.19,2.65-2.65,2.65Zm-71.12-5.3h68.47v-39.37h-68.47v39.37Z"/>
      <path class="cls-1" d="m251.61,376.47h-48.06c-1.46,0-2.65-1.19-2.65-2.65v-44.67c0-1.46,1.19-2.65,2.65-2.65h73.78c1.46,0,2.65,1.19,2.65,2.65v18.95c0,15.64-12.72,28.37-28.36,28.37Zm-45.41-5.3h45.41c12.72,0,23.07-10.35,23.07-23.07v-16.3h-68.48v39.37Z"/>
      <path class="cls-1" d="m251.61,380.64H81.72c-17.93,0-32.53-14.59-32.53-32.53v-143.49c0-3.76,3.05-6.81,6.81-6.81h46c8.98,0,17.74,2.53,25.32,7.33l18.19,11.49v-101.36c0-18.64-15.16-33.8-33.8-33.8h-55.71c-3.76,0-6.81-3.05-6.81-6.81v-42.13C49.19,14.59,63.78,0,81.72,0h169.89c17.93,0,32.52,14.59,32.52,32.53v126.73c0,3.76-3.05,6.81-6.81,6.81h-50.75c-18.64,0-33.8,15.16-33.8,33.8v101.36l18.19-11.49c7.6-4.79,16.36-7.33,25.32-7.33h41.04c3.76,0,6.81,3.05,6.81,6.81v58.88c0,17.94-14.59,32.53-32.52,32.53ZM62.81,211.43v136.68c0,10.43,8.48,18.91,18.9,18.91h169.89c10.42,0,18.9-8.48,18.9-18.91v-52.07h-34.23c-6.39,0-12.63,1.81-18.05,5.22l-28.64,18.09c-2.1,1.33-4.75,1.4-6.92.21-2.17-1.2-3.52-3.48-3.52-5.96v-113.72c0-26.15,21.27-47.42,47.43-47.42h43.94V32.53c0-10.43-8.48-18.91-18.9-18.91H81.72c-10.42,0-18.9,8.48-18.9,18.91v35.32h48.9c26.15,0,47.43,21.27,47.43,47.42v113.72c0,2.48-1.35,4.77-3.52,5.96-2.17,1.2-4.83,1.12-6.92-.21l-28.64-18.09c-5.4-3.42-11.64-5.22-18.04-5.22h-39.19Z"/>
      <g>
        <path class="cls-1" d="m181.89,35.07c0,8.42-6.82,15.23-15.23,15.23-4.2,0-8.01-1.7-10.77-4.46-2.76-2.76-4.46-6.57-4.46-10.77s1.7-8.01,4.46-10.77c2.76-2.76,6.57-4.46,10.77-4.46s8.01,1.7,10.77,4.46c2.76,2.76,4.46,6.57,4.46,10.77Z"/>
        <g class="cls-4">
          <rect class="cls-1" x="151.44" y="19.84" width="30.46" height="1.65"/>
          <rect class="cls-1" x="151.44" y="21.49" width="30.46" height="1.77"/>
          <rect class="cls-1" x="151.44" y="23.26" width="30.46" height="1.77"/>
          <rect class="cls-1" x="151.44" y="25.04" width="30.46" height="1.77"/>
          <rect class="cls-1" x="151.44" y="26.81" width="30.46" height="1.77"/>
          <rect class="cls-1" x="151.44" y="28.59" width="30.46" height="1.77"/>
          <rect class="cls-1" x="151.44" y="30.36" width="30.46" height="1.77"/>
          <rect class="cls-1" x="151.44" y="32.14" width="30.46" height="1.77"/>
          <rect class="cls-1" x="151.44" y="33.91" width="30.46" height="1.77"/>
          <rect class="cls-1" x="151.44" y="35.69" width="30.46" height="1.77"/>
          <rect class="cls-1" x="151.44" y="37.46" width="30.46" height="1.77"/>
          <rect class="cls-1" x="151.44" y="39.23" width="30.46" height="1.77"/>
          <rect class="cls-1" x="151.44" y="41.01" width="30.46" height="1.77"/>
          <rect class="cls-1" x="151.44" y="42.78" width="30.46" height="1.77"/>
          <rect class="cls-1" x="151.44" y="44.56" width="30.46" height="1.77"/>
          <rect class="cls-1" x="151.44" y="46.33" width="30.46" height="1.77"/>
          <rect class="cls-1" x="151.44" y="48.11" width="30.46" height="1.77"/>
          <rect class="cls-1" x="151.44" y="49.88" width="30.46" height=".42"/>
        </g>
      </g>
      <path class="cls-1" d="m152.33,235.8c-1.27,0-2.53-.35-3.64-1.05l-28.64-18.09c-5.4-3.42-11.64-5.22-18.04-5.22h-54.58c-26.15,0-47.43-21.27-47.43-47.43v-48.73c0-26.15,21.27-47.42,47.43-47.42h64.29c26.15,0,47.42,21.27,47.42,47.42v113.72c0,2.48-1.35,4.77-3.52,5.96-1.03.56-2.16.85-3.29.85ZM47.43,81.48c-18.64,0-33.8,15.16-33.8,33.8v48.73c0,18.64,15.16,33.8,33.8,33.8h54.58c8.98,0,17.74,2.53,25.32,7.33l18.19,11.49v-101.36c0-18.64-15.16-33.8-33.8-33.8H47.43Z"/>
      <path class="cls-1" d="m185.95,320.4c-1.13,0-2.26-.28-3.29-.85-2.17-1.2-3.52-3.48-3.52-5.96v-113.72c0-26.15,21.27-47.42,47.43-47.42h64.29c26.15,0,47.42,21.27,47.42,47.42v48.74c0,26.15-21.27,47.42-47.42,47.42h-54.58c-6.39,0-12.64,1.81-18.05,5.22l-28.64,18.09c-1.11.7-2.37,1.05-3.64,1.05Zm40.61-154.32c-18.64,0-33.8,15.16-33.8,33.8v101.36l18.2-11.49c7.6-4.79,16.36-7.33,25.33-7.33h54.58c18.64,0,33.8-15.16,33.8-33.8v-48.74c0-18.64-15.16-33.8-33.8-33.8h-64.29Z"/>
      <g>
        <path class="cls-1" d="m252.28,73.36h-74.45c-3.76,0-6.81-3.05-6.81-6.81s3.05-6.81,6.81-6.81h74.45c3.76,0,6.81,3.05,6.81,6.81s-3.05,6.81-6.81,6.81Z"/>
        <path class="cls-1" d="m252.28,96.37h-74.45c-3.76,0-6.81-3.05-6.81-6.81s3.05-6.81,6.81-6.81h74.45c3.76,0,6.81,3.05,6.81,6.81s-3.05,6.81-6.81,6.81Z"/>
        <path class="cls-1" d="m252.28,119.38h-74.45c-3.76,0-6.81-3.05-6.81-6.81s3.05-6.81,6.81-6.81h74.45c3.76,0,6.81,3.05,6.81,6.81s-3.05,6.81-6.81,6.81Z"/>
        <path class="cls-1" d="m226.08,142.39h-48.24c-3.76,0-6.81-3.05-6.81-6.81s3.05-6.81,6.81-6.81h48.24c3.76,0,6.81,3.05,6.81,6.81s-3.05,6.81-6.81,6.81Z"/>
      </g>
      <g>
        <path class="cls-1" d="m158.2,258.81h-78.63c-3.76,0-6.81-3.05-6.81-6.81s3.05-6.81,6.81-6.81h78.63c3.76,0,6.81,3.05,6.81,6.81s-3.05,6.81-6.81,6.81Z"/>
        <path class="cls-1" d="m158.2,276.41h-78.63c-3.76,0-6.81-3.05-6.81-6.81s3.05-6.81,6.81-6.81h78.63c3.76,0,6.81,3.05,6.81,6.81s-3.05,6.81-6.81,6.81Z"/>
        <path class="cls-1" d="m158.2,294h-78.63c-3.76,0-6.81-3.05-6.81-6.81s3.05-6.81,6.81-6.81h78.63c3.76,0,6.81,3.05,6.81,6.81s-3.05,6.81-6.81,6.81Z"/>
        <path class="cls-1" d="m156.95,311.6h-50.95c-3.76,0-6.81-3.05-6.81-6.81s3.05-6.81,6.81-6.81h50.95c3.76,0,6.81,3.05,6.81,6.81s-3.05,6.81-6.81,6.81Z"/>
      </g>
      <g>
        <path class="cls-1" d="m87.47,362.95c-1.46,0-2.65-1.19-2.65-2.65v-19.63c0-1.46,1.19-2.65,2.65-2.65s2.65,1.19,2.65,2.65v19.63c0,1.46-1.19,2.65-2.65,2.65Z"/>
        <path class="cls-1" d="m96.89,362.95c-1.46,0-2.65-1.19-2.65-2.65v-19.63c0-1.46,1.19-2.65,2.65-2.65s2.65,1.19,2.65,2.65v19.63c0,1.46-1.19,2.65-2.65,2.65Z"/>
        <path class="cls-1" d="m106.31,362.95c-1.46,0-2.65-1.19-2.65-2.65v-19.63c0-1.46,1.19-2.65,2.65-2.65s2.65,1.19,2.65,2.65v19.63c0,1.46-1.19,2.65-2.65,2.65Z"/>
      </g>
      <path class="cls-1" d="m173.77,362.63h-14.21c-4.76,0-8.63-3.87-8.63-8.63v-9.02c0-4.76,3.87-8.63,8.63-8.63h14.21c4.76,0,8.63,3.87,8.63,8.63v9.02c0,4.76-3.87,8.63-8.63,8.63Zm-14.21-20.98c-1.84,0-3.33,1.49-3.33,3.33v9.02c0,1.84,1.49,3.33,3.33,3.33h14.21c1.84,0,3.33-1.49,3.33-3.33v-9.02c0-1.84-1.49-3.33-3.33-3.33h-14.21Z"/>
      <path class="cls-1" d="m240.25,362.78c-.68,0-1.36-.26-1.87-.78l-9.64-9.64c-1.03-1.03-1.03-2.71,0-3.75l9.64-9.64c1.03-1.03,2.71-1.03,3.75,0,1.03,1.03,1.03,2.71,0,3.75l-7.77,7.77,7.77,7.77c1.03,1.03,1.03,2.71,0,3.75-.52.52-1.19.78-1.87.78Z"/>
      <g>
        <path class="cls-1" d="m104.42,185.74h-50.45c-2.51,0-4.54-2.03-4.54-4.54v-48.34c0-5.63,4.69-14.48,13.51-16.46,12.9-2.9,15.21-5.43,16.45-12.64,1.22-7.1,3.05-10.98,6.13-12.98,3.26-2.12,6.77-1.22,7.92-.92,10.98,2.81,9.93,18.21,9.36,26.49-.32,4.64-1.84,8.4-3.65,11.32l8.4.67c7.82.11,14.15,6.97,14.15,15.38,0,.17,0,.33-.03.5l-2.91,26.42c-.13,8.36-6.52,15.12-14.35,15.12Zm-45.91-9.08h45.91c2.91,0,5.27-2.83,5.27-6.31,0-.17,0-.33.03-.5l2.9-26.37c-.1-3.38-2.42-6.08-5.27-6.08-.12,0-.24,0-.36-.01l-17.93-1.42c-1.96-.16-3.6-1.55-4.06-3.47-.46-1.91.36-3.9,2.04-4.93.22-.14,6.15-4.01,6.69-11.85.73-10.71-.12-16.45-2.55-17.07-.4-.1-.66-.14-.81-.15-.31.41-1.21,1.95-2.04,6.79-2.22,12.93-9.62,16.87-23.41,19.97-4.42.99-6.42,6.17-6.42,7.6v43.8Zm58.65-32.95h0,0Z"/>
        <path class="cls-1" d="m53.97,185.74h-4.99c-8.1,0-14.69-6.59-14.69-14.69v-28.03c0-8.1,6.59-14.69,14.69-14.69h4.99c2.51,0,4.54,2.03,4.54,4.54v48.33c0,2.51-2.03,4.54-4.54,4.54Zm-4.99-48.33c-3.09,0-5.61,2.52-5.61,5.61v28.03c0,3.09,2.52,5.61,5.61,5.61h.45v-39.25h-.45Z"/>
      </g>
      <g>
        <path class="cls-1" d="m293.99,223.31c-6.18,22.01-35.28,38.37-35.28,38.37,0,0-29.1-16.35-35.28-38.37-10.31-36.73,35.28-32.19,35.28-9.08,0-23.11,45.59-27.65,35.28,9.08Z"/>
        <g class="cls-3">
          <rect class="cls-1" x="213.12" y="186.58" width="91.19" height="1.71"/>
          <rect class="cls-1" x="213.12" y="188.29" width="91.19" height="1.77"/>
          <rect class="cls-1" x="213.12" y="190.06" width="91.19" height="1.77"/>
          <rect class="cls-1" x="213.12" y="191.84" width="91.19" height="1.77"/>
          <rect class="cls-1" x="213.12" y="193.61" width="91.19" height="1.77"/>
          <rect class="cls-1" x="213.12" y="195.39" width="91.19" height="1.77"/>
          <rect class="cls-1" x="213.12" y="197.16" width="91.19" height="1.77"/>
          <rect class="cls-1" x="213.12" y="198.94" width="91.19" height="1.77"/>
          <rect class="cls-1" x="213.12" y="200.71" width="91.19" height="1.77"/>
          <rect class="cls-1" x="213.12" y="202.48" width="91.19" height="1.77"/>
          <rect class="cls-1" x="213.12" y="204.26" width="91.19" height="1.77"/>
          <rect class="cls-1" x="213.12" y="206.03" width="91.19" height="1.77"/>
          <rect class="cls-1" x="213.12" y="207.81" width="91.19" height="1.77"/>
          <rect class="cls-1" x="213.12" y="209.58" width="91.19" height="1.77"/>
          <rect class="cls-1" x="213.12" y="211.36" width="91.19" height="1.77"/>
          <rect class="cls-1" x="213.12" y="213.13" width="91.19" height="1.77"/>
          <rect class="cls-1" x="213.12" y="214.91" width="91.19" height="1.77"/>
          <rect class="cls-1" x="213.12" y="216.68" width="91.19" height="1.77"/>
          <rect class="cls-1" x="213.12" y="218.46" width="91.19" height="1.77"/>
          <rect class="cls-1" x="213.12" y="220.23" width="91.19" height="1.77"/>
          <rect class="cls-1" x="213.12" y="222" width="91.19" height="1.77"/>
          <rect class="cls-1" x="213.12" y="223.78" width="91.19" height="1.77"/>
          <rect class="cls-1" x="213.12" y="225.55" width="91.19" height="1.77"/>
          <rect class="cls-1" x="213.12" y="227.33" width="91.19" height="1.77"/>
          <rect class="cls-1" x="213.12" y="229.1" width="91.19" height="1.77"/>
          <rect class="cls-1" x="213.12" y="230.88" width="91.19" height="1.77"/>
          <rect class="cls-1" x="213.12" y="232.65" width="91.19" height="1.77"/>
          <rect class="cls-1" x="213.12" y="234.43" width="91.19" height="1.77"/>
          <rect class="cls-1" x="213.12" y="236.2" width="91.19" height="1.77"/>
          <rect class="cls-1" x="213.12" y="237.97" width="91.19" height="1.77"/>
          <rect class="cls-1" x="213.12" y="239.75" width="91.19" height="1.77"/>
          <rect class="cls-1" x="213.12" y="241.52" width="91.19" height="1.77"/>
          <rect class="cls-1" x="213.12" y="243.3" width="91.19" height="1.77"/>
          <rect class="cls-1" x="213.12" y="245.07" width="91.19" height="1.77"/>
          <rect class="cls-1" x="213.12" y="246.85" width="91.19" height="1.77"/>
          <rect class="cls-1" x="213.12" y="248.62" width="91.19" height="1.77"/>
          <rect class="cls-1" x="213.12" y="250.4" width="91.19" height="1.77"/>
          <rect class="cls-1" x="213.12" y="252.17" width="91.19" height="1.77"/>
          <rect class="cls-1" x="213.12" y="253.94" width="91.19" height="1.77"/>
          <rect class="cls-1" x="213.12" y="255.72" width="91.19" height="1.77"/>
          <rect class="cls-1" x="213.12" y="257.49" width="91.19" height="1.77"/>
          <rect class="cls-1" x="213.12" y="259.27" width="91.19" height="1.77"/>
          <rect class="cls-1" x="213.12" y="261.04" width="91.19" height=".63"/>
        </g>
      </g>
    </g>
  </g>
</svg>