<?xml version="1.0" encoding="UTF-8"?>
<svg id="Layer_2" data-name="Layer 2" xmlns="http://www.w3.org/2000/svg" xmlns:xlink="http://www.w3.org/1999/xlink" viewBox="0 0 530.37 168.5">
  <defs>
    <style>
      .cls-1 {
        fill: url(#linear-gradient-2);
      }

      .cls-2 {
        fill: #e4e4e4;
      }

      .cls-3 {
        fill: url(#linear-gradient-3);
      }

      .cls-4 {
        fill: url(#linear-gradient);
      }
    </style>
    <linearGradient id="linear-gradient" x1="185.38" y1="-16.53" x2="-11.49" y2="180.34" gradientUnits="userSpaceOnUse">
      <stop offset="0" stop-color="#b000f2"/>
      <stop offset="1" stop-color="#ff5d00"/>
    </linearGradient>
    <linearGradient id="linear-gradient-2" x1="185.32" y1="-16.59" x2="-11.55" y2="180.27" xlink:href="#linear-gradient"/>
    <linearGradient id="linear-gradient-3" x1="185.21" y1="-16.69" x2="-11.65" y2="180.17" xlink:href="#linear-gradient"/>
  </defs>
  <g id="Layer_1-2" data-name="Layer 1">
    <g>
      <path class="cls-2" d="m189.77,57.49c6.61-6.49,10.71-6.68,10.71-6.68,1.52-.01,3.03.3,4.42.91,3.13,1.09,3.3,2.79,3.3,2.79v47.54c.41,13.29-2.91,18.4-6.86,21.95-1.2,1.09-2.69,1.81-4.29,2.07-.46.11-.92-.16-1.04-.62-.02-.06-.02-.13-.03-.19.07-.92.26-1.82.59-2.69,2-5.13,1.83-13.95,1.83-13.95l.19-51.17s.16-.94-.64-.56c-7.8,6.7-8.78,16.17-9.03,20.76-.13,6.88,2.79,10.43,2.79,10.43.46.42.7,1.03.67,1.65.06.62-.39,1.16-1.01,1.22-.07,0-.14,0-.21,0-2.94-.28-7.62-3.59-9.28-7.6-.87-1.94-1.35-4.03-1.4-6.15.74-7.45,4.03-14.41,9.32-19.7h-.04Zm340.56,45.38c0,15.27-9.25,15.03-9.25,15.03-8.81.31-11.06-8.99-11.6-18.44-.42-7.11,0-15.03,0-15.03,0,0,0-.36-.31,0-2.95,5.33-4.95,13.45-5.93,19.72-.43,2.78-.69,5.58-.78,8.39.09.54-.14,1.09-.6,1.4-4.78,2.2-7.86-.92-8.95-4.4-1.4-3.3-2.29-23.15-2.29-24.18s-.83-.32-.83-.32c-6.63,11-6.68,27.31-6.68,30.58s-5.59,2.27-5.59,2.27c-4.78-.36-4.6-2.69-4.6-2.69l-.22-3.94c-1.66,3.07-4.74,6.99-9.49,6.72-7.19-.46-8.57-7.9-8.69-9.16,0,0-3.58,9.25-13.41,9.16-6.68-.11-9.37-6.99-9.37-6.99,0,0-2.69,7.22-9.25,6.99s-11.99-7.84-11.58-17.68c.09-4.99.76-9.94,1.99-14.78,0,0,.53-.94-.36-1.05s-6.57.09-6.57.09c0,0-3.21,12.87-16.78,28.88l.09,10.57c0,10.53-1.31,24.64-15.58,25.79-12.33-.84-11.63-10.34-11.63-10.34-.29-2.79,1.46-7.94,8.83-14.85l10.29-9.56-.29-4.42c-4.71,7.79-11.91,7.36-11.91,7.36,0,0-5.59,1.13-10.24-7.14-1.4,2.79-4.5,7.68-9.62,7.11-7.19-.8-8.61-7.95-8.72-9.23,0,0-3.59,9.34-13.48,9.23-6.7-.11-9.41-7.06-9.41-7.06-.75-1.53-1.31-3.15-1.69-4.81l-.29.87c-1.52,3.9-5.29,10.68-11.07,10.76-10.62,0-11.07-16.47-11.07-16.47-3.1,7.36-9.1,16.66-20.29,16.61-11.18-.06-12.58-4.1-12.58-4.68-.08-1.13.32-2.25,1.09-3.08,1.28-1.86,2.36-2.63,3.3-2.63.93.26,1.79.74,2.5,1.4,1.41,1.35,3.24,2.19,5.19,2.37,3.52-.13,4.3-2.95,4.54-5.83s-1.79-5.96-4.61-8.53l-4.98-4.54-9.34,15.38c-5.44,8.85-10.83,10.22-12.92,9.94-2.83-.39-5.59-3.33-5.76-11.92l.64-24.03c0-.77-.7-.39-.7-.39-10.75,11.41-13.97,34.87-13.97,35.33-.38.68-1.14,1.06-1.92.96-.96,0,.32,0-3.52-.19s-3.58-7.4-3.58-7.4l.25-34.95c0-1.16,1.15-1.66,4.8-.7s3.52,2.1,3.52,2.1l-.13,20.3c9.41-27.75,16.51-23.4,20.8-21.28s3.65,5.17,3.65,5.17l-.64,20.63c-.19,5.38.57,7.49,1.79,7.69,3.05.73,13.76-19.94,13.76-19.94-4.74-5.13-2.15-11.4,1.54-14.11,1.66-1.15,3.58-1.86,5.59-2.05,0,0,4.8-.25,4.67,3.79.13,4.42-4.8,9.79-4.8,9.79,9.54,6.8,13.97,10.39,14.72,15.64.21,1.39.12,2.81-.28,4.15,6.78-5.9,7.3-12.5,7.3-12.5l.11-22.06-10.06-.13s-.77,0-.94-1.94c-.14-1.86.54-3.69,1.86-5l9.59.13.38-11.53c.32-2.31,1.79-2.63,6.01-1.54s4.19,2.05,4.19,2.05l-.47,11.6,11.97.64c1.42.13,1.86.47,1.54,2.83-.03,1.22-.68,2.33-1.73,2.95l-11.9.25-.83,25.59c0,3.97.19,13.34,3.9,13.22,5.19.25,8.25-11.35,8.25-11.35v-.09c-.07-2.14.01-4.28.24-6.42.98-9.32,5.19-20.24,14.68-20.24,3.76.08,7.18,2.23,8.88,5.59l.16-2.1s-.21-2.53,3.8-1.9,5.38,2.21,5.29,3.48l-.32,25.84c.53,5.59,1.5,8.87,4.33,8.64,2.45-.36,4.19-3.71,5.23-6.54-3.55-29.52,12.58-33.11,12.58-33.11,0,0,7.16-.47,10.41,5.44l.09-1.98s-.32-2.62,3.47-1.89c1.11.17,2.2.45,3.26.84,1.68.63,2.21,1.05,2.21,2.62l-.32,29.16s8.39-11.3,10.53-22.28c-1.69-1.27-2.72-3.23-2.79-5.34.21-3.14,1.79-6.91,6.42-6.91s5,4.1,4.32,6.89c0,0,3.89-.47,7.26-1.4s7.88-1.4,8.2,3.87c.12,1.16-.1,2.32-.63,3.36,0,0-2.67,11.66-2.25,16.37s1.68,11.83,5.37,10.99,4.95-6.07,4.95-6.07c-.92-4.3-1.17-8.71-.74-13.09.98-9.25,5.12-20.09,14.63-20.09,3.75.09,7.15,2.24,8.84,5.59l.11-2.1s-.21-2.52,3.79-1.89,5.37,2.2,5.25,3.45l-.32,25.63c.53,5.59,1.48,8.81,4.31,8.58s5.02-4.68,6.44-8.39v-1.4l.08-27.22c.08-.87.77-1.56,1.63-1.65l3.27.51c4.58.68,3.94,2.43,3.94,2.43v15.38c3.4-10.44,5.03-14.43,6.57-17.09,1.31-2.27,5.59-.78,5.59-.78,0,0,4.67,1.25,4.72,5.59-.14,7.1.87,18.66.87,18.66,0,0,.18.24.26.16.05-.07.07-.16.07-.25,1.32-7.87,3.62-15.54,6.85-22.84,1.69-3.17,6.59-.92,6.59-.92,5.87,2.01,5.07,5.5,5.07,5.5-1.73,29.85,1.96,31.73,4.14,31.93s3.33-2.63,3.8-3.97,1.09-4.28,1.4-5.44c.21-.67.81-1.15,1.51-1.22.72.11,1.29.68,1.4,1.4l-.03.07Zm-198.13-22.87c-2.05.08-6.89,1.4-7.76,14.87-.87,13.47,2.7,16.93,5.7,17.33s8.39-4.44,8.64-18.74-6.59-13.45-6.59-13.45h0Zm42.16,0c-2.1.08-7.36,1.92-8.54,14.93-.88,13.61,2.79,17.14,5.79,17.55s8.39-4.48,8.77-18.99c.38-14.5-6.01-13.42-6.01-13.42v-.07Zm6.99,41.76c-11.91,10.29-12.94,17.64-12.94,17.64,0,0-1.18,6.02,4.56,6.33,6.89.7,8.05-7.68,8.23-15l.22-8.89-.07-.08Zm65.38-41.28c-2.05.08-6.89,1.4-7.76,14.87-.87,13.47,2.7,16.93,5.7,17.33s8.39-4.44,8.64-18.74-6.59-13.45-6.59-13.45h0Z"/>
      <g>
        <path class="cls-4" d="m84.48,41.25c-1.48,0-2.95.08-4.4.22s-2.87.37-4.28.66-2.78.65-4.13,1.07l-3.96,1.45-3.77,1.82-3.56,2.17-3.33,2.49-3.07,2.79-2.79,3.07-2.49,3.32-2.17,3.56-1.82,3.77c-.55,1.29-1.04,2.61-1.46,3.96s-.78,2.73-1.07,4.13-.51,2.83-.66,4.27-.22,2.91-.22,4.4.08,2.95.22,4.4c.15,1.43.37,2.86.66,4.27.29,1.41.65,2.78,1.07,4.13s.91,2.67,1.46,3.96l1.82,3.77,2.17,3.56,2.49,3.32,2.79,3.07,3.07,2.79,3.33,2.49,3.56,2.17,3.77,1.82,3.96,1.45,4.13,1.07c1.41.29,2.84.51,4.28.66,1.46.15,2.93.22,4.4.22,1.48,0,2.95-.08,4.4-.22,1.44-.15,2.86-.37,4.28-.66l4.13-1.07,3.96-1.45,3.77-1.82,3.56-2.17,3.33-2.49,3.07-2.79,2.79-3.07,2.49-3.32,2.17-3.56,1.82-3.77,1.46-3.96c.42-1.35.78-2.73,1.07-4.13l.66-4.27c.15-1.45.22-2.91.22-4.4s-.08-2.95-.22-4.4c-.15-1.43-.37-2.86-.66-4.27-.29-1.41-.65-2.78-1.07-4.13l-1.46-3.96-1.82-3.77-2.17-3.56-2.49-3.32-2.79-3.07-3.07-2.79-3.33-2.49-3.56-2.17-3.77-1.82-3.96-1.45-4.13-1.07-4.28-.66c-1.46-.15-2.93-.22-4.4-.22h0Zm0,14.89c.98,0,1.95.05,2.9.14l2.81.43,2.72.69,2.6.94,2.47,1.18,2.33,1.41,2.17,1.62,2,1.82,1.82,2,1.62,2.17,1.41,2.33,1.18,2.47c.36.85.67,1.71.95,2.6s.51,1.79.69,2.71.32,1.86.43,2.81l.14,2.9c0,.98-.05,1.95-.14,2.9s-.24,1.89-.43,2.81-.42,1.83-.69,2.71l-.95,2.6-1.18,2.47-1.41,2.33-1.62,2.17-1.82,2-2,1.82-2.17,1.62-2.33,1.41-2.47,1.18-2.6.94-2.72.69-2.81.43c-.97.1-1.93.15-2.9.14-.97,0-1.94-.05-2.91-.14l-2.81-.43c-.92-.19-1.83-.42-2.72-.69l-2.6-.94-2.47-1.18-2.33-1.41-2.17-1.62-2-1.82-1.82-2-1.62-2.17-1.41-2.33-1.18-2.47-.95-2.6-.69-2.71-.43-2.81c-.1-.96-.15-1.93-.14-2.9,0-.97.05-1.94.14-2.9.1-.95.24-1.89.43-2.81.19-.92.42-1.82.69-2.71l.95-2.6,1.18-2.47,1.41-2.33,1.62-2.17,1.82-2,2-1.82,2.17-1.62,2.33-1.41,2.47-1.18c.85-.36,1.72-.67,2.6-.94l2.72-.69c.92-.19,1.86-.33,2.81-.43.97-.1,1.93-.15,2.91-.14h0Z"/>
        <path class="cls-1" d="m129.4,28.98c-.34,0-.69.02-1.03.05-.34.03-.68.09-1.02.15-.34.07-.67.15-1,.26-.33.1-.65.22-.97.35-.32.13-.62.28-.93.45-.3.17-.59.35-.88.54-.28.19-.56.4-.82.63-.26.22-.51.46-.75.7-.24.25-.47.51-.68.78-.21.27-.41.55-.6.84-.19.29-.36.59-.51.9-.16.31-.3.62-.42.94-.12.32-.23.65-.32.98-.09.33-.17.67-.22,1.01-.06.34-.1.68-.12,1.03-.02.24-.03.49-.03.73,0,.35.02.69.05,1.03.03.34.09.68.15,1.02.07.34.15.67.25,1,.1.33.22.65.35.97.13.32.28.63.45.93.16.3.34.6.54.88.19.28.4.56.62.82.22.26.45.52.7.76.25.24.5.47.77.68.27.21.55.42.84.6.29.19.59.36.89.51.31.16.62.3.94.42.32.12.64.23.98.33.33.09.66.17,1,.23.34.06.68.1,1.02.12.24.02.48.03.73.03.34,0,.69-.02,1.03-.05.34-.03.68-.09,1.02-.15.34-.07.67-.15,1-.26.33-.1.65-.22.97-.35.32-.13.62-.28.93-.45.3-.17.59-.35.88-.54.28-.19.56-.4.82-.63.26-.22.51-.46.75-.71.24-.25.47-.51.68-.78.21-.27.41-.55.6-.84.19-.29.36-.59.51-.9.16-.31.3-.62.42-.94.12-.32.23-.65.32-.98.09-.33.17-.67.22-1.01.06-.34.1-.68.12-1.03.02-.24.03-.49.03-.73,0-.34-.02-.69-.05-1.03-.03-.34-.09-.68-.15-1.02-.07-.34-.15-.67-.25-1-.1-.33-.22-.65-.35-.97-.13-.32-.28-.63-.45-.93-.16-.3-.34-.6-.54-.88-.19-.28-.4-.56-.62-.82-.22-.26-.45-.52-.7-.76-.25-.24-.5-.47-.77-.68-.27-.21-.55-.42-.84-.6-.29-.19-.59-.36-.89-.51-.31-.16-.62-.3-.94-.42-.32-.12-.64-.23-.98-.33-.33-.09-.66-.17-1-.23-.34-.06-.68-.1-1.02-.12-.24-.02-.48-.03-.73-.03h0Z"/>
        <path class="cls-3" d="m76.29,0c-4.7,0-8.89.01-12.65.06l-10.09.27c-2.99.13-5.63.3-8,.52-1.19.11-2.3.23-3.36.37-1.01.13-2.01.28-3.02.44-.95.16-1.86.34-2.73.53s-1.7.4-2.5.62c-.78.22-1.56.45-2.33.71-.75.25-1.49.52-2.22.81-1.45.58-2.87,1.22-4.33,1.94-1.12.56-2.16,1.12-3.15,1.72s-1.92,1.23-2.83,1.91c-.94.71-1.85,1.47-2.72,2.26-.91.83-1.84,1.74-2.8,2.76-1.21,1.27-2.27,2.46-3.2,3.62-.47.58-.91,1.16-1.32,1.74-.41.57-.8,1.15-1.17,1.75-.37.59-.72,1.19-1.05,1.81-.34.63-.66,1.27-.96,1.91-.62,1.32-1.19,2.75-1.76,4.33-.43,1.17-.81,2.36-1.14,3.57-.34,1.23-.65,2.52-.92,3.91s-.51,2.89-.72,4.54c-.22,1.81-.4,3.63-.54,5.46-.15,2-.28,4.21-.38,6.66l-.24,8.16-.13,9.95-.04,12.03.11,17.49.35,13.25.27,5.18.33,4.29c.11,1.16.24,2.31.4,3.46.15,1.02.3,1.91.47,2.69.34,1.57.75,3.13,1.21,4.67.45,1.47.96,2.93,1.53,4.36.56,1.4,1.18,2.75,1.85,4.05s1.4,2.55,2.17,3.75,1.61,2.35,2.5,3.45c.89,1.1,1.83,2.16,2.83,3.16,1,1.01,2.05,1.96,3.16,2.87,1.12.92,2.29,1.78,3.5,2.59,1.12.75,2.23,1.44,3.35,2.07s2.24,1.2,3.4,1.72,2.35.99,3.59,1.41c1.24.42,2.53.79,3.9,1.13s2.81.62,4.34.88,3.17.47,4.91.66,3.61.34,5.62.47,4.15.23,6.45.32c3.55.13,8.94.2,15.14.23l20.09-.04,19.02-.27,7.23-.2,4.71-.24c1.01-.08,2-.18,2.96-.29s1.9-.24,2.81-.39,1.81-.31,2.69-.5c.87-.18,1.74-.38,2.6-.61.85-.22,1.69-.46,2.52-.72s1.65-.54,2.47-.85c.82-.3,1.64-.63,2.45-.97.81-.35,1.62-.72,2.44-1.11,1.25-.6,2.26-1.1,3.14-1.6.83-.46,1.63-.97,2.4-1.53.75-.56,1.51-1.19,2.37-1.99s1.85-1.76,3.06-2.97c1.07-1.07,1.97-1.99,2.74-2.84s1.43-1.6,2-2.33c.55-.69,1.06-1.42,1.53-2.16.46-.73.88-1.49,1.31-2.33.65-1.27,1.22-2.44,1.74-3.57.5-1.09.96-2.2,1.37-3.32.41-1.12.76-2.25,1.06-3.4.31-1.18.57-2.43.79-3.81s.42-2.86.59-4.53c.17-1.67.31-3.51.43-5.58l.33-6.95.28-8.64.2-9.63.08-10.07-.18-19.77-.24-8.85-.33-7.6-.41-5.93c-.15-1.65-.31-2.95-.48-3.83-.19-.97-.4-1.94-.63-2.9-.23-.93-.48-1.86-.75-2.79-.27-.9-.55-1.79-.86-2.68-.31-.87-.63-1.73-.97-2.57s-.71-1.65-1.09-2.45-.79-1.58-1.21-2.34-.86-1.51-1.32-2.23-.94-1.43-1.44-2.12c-.5-.69-1.01-1.36-1.55-2.01-.54-.65-1.09-1.28-1.67-1.9-.57-.61-1.17-1.21-1.78-1.79-.61-.58-1.24-1.13-1.89-1.67-.65-.54-1.32-1.06-2.01-1.56-.69-.5-1.4-.99-2.12-1.45-.73-.47-1.48-.91-2.24-1.34-.77-.43-1.56-.84-2.35-1.23-1.32-.64-2.54-1.21-3.74-1.72-1.18-.5-2.38-.95-3.6-1.33-1.23-.39-2.51-.72-3.91-1s-2.94-.52-4.67-.73-3.67-.37-5.89-.5-4.71-.24-7.55-.33l-9.67-.22-12.24-.14L76.3,0h0Zm8.14,14.87l22.61.13,8.53.16c2.35.07,4.14.14,5.19.23,1.37.12,2.67.26,3.92.43,1.2.17,2.39.37,3.57.62,1.14.24,2.22.51,3.26.81s2.03.65,2.98,1.02,1.86.79,2.73,1.25c.87.45,1.71.95,2.53,1.49.81.54,1.59,1.12,2.35,1.74s1.5,1.29,2.21,2.01c.76.76,1.46,1.53,2.1,2.32.64.79,1.24,1.62,1.78,2.48.55.87,1.04,1.78,1.48,2.71.45.95.85,1.96,1.21,3.03s.68,2.21.97,3.42c.3,1.29.55,2.59.75,3.89.22,1.38.4,2.86.56,4.44s.29,3.27.39,5.07c.09,1.45.16,3.36.22,5.61l.16,7.69.12,18.83-.14,18.81-.17,7.67-.23,5.58c-.16,2.61-.32,4.8-.52,6.72-.1.96-.21,1.84-.33,2.67-.11.78-.25,1.56-.4,2.34-.14.71-.3,1.41-.49,2.11-.18.67-.38,1.33-.6,1.98-.22.66-.47,1.3-.73,1.94-.28.68-.57,1.35-.88,2.01-.27.59-.56,1.17-.87,1.73-.3.56-.62,1.1-.96,1.63-.34.53-.69,1.04-1.05,1.54-.37.5-.75.98-1.15,1.45-.4.47-.82.92-1.25,1.35-.43.44-.88.86-1.35,1.26s-.95.79-1.45,1.17-1.02.74-1.55,1.08-1.08.68-1.65.99c-.57.32-1.15.62-1.76.9-.61.29-1.24.56-1.87.82-.65.26-1.31.51-1.97.73-1.35.46-2.78.87-4.28,1.21-1.56.36-3.14.66-4.73.89-.61.09-2.02.17-4.03.25l-7.67.21-21.73.28-22.75.04-8.93-.1-5.8-.18-4.28-.3c-1.33-.11-2.56-.24-3.72-.38s-2.24-.3-3.25-.48c-.96-.17-1.92-.36-2.86-.59-.86-.21-1.72-.46-2.56-.73-.81-.27-1.59-.57-2.35-.9s-1.49-.69-2.22-1.08-1.45-.82-2.18-1.28c-.55-.35-1.08-.7-1.59-1.08s-1.01-.75-1.48-1.14-.93-.79-1.37-1.21c-.44-.41-.86-.84-1.27-1.29-.41-.44-.79-.9-1.17-1.37-.37-.47-.73-.96-1.07-1.46-.34-.51-.67-1.03-.97-1.56-.31-.54-.6-1.09-.88-1.66-.28-.58-.55-1.17-.79-1.77-.25-.61-.48-1.24-.71-1.89-.44-1.3-.83-2.69-1.17-4.16s-.63-3.04-.87-4.72c-.24-1.67-.44-3.44-.6-5.33-.12-1.39-.21-3.55-.28-6.27l-.15-9.69.05-24.71.43-23.61.32-8.32.18-2.75c.06-.73.13-1.28.2-1.61.22-1.07.45-2.07.68-3.01.22-.88.46-1.76.72-2.63.25-.82.52-1.59.8-2.32.27-.71.58-1.4.91-2.08.33-.66.68-1.29,1.06-1.91s.79-1.21,1.24-1.8.93-1.18,1.46-1.77,1.1-1.19,1.71-1.81c.72-.72,1.47-1.42,2.25-2.08.73-.62,1.5-1.21,2.29-1.76.78-.54,1.58-1.02,2.41-1.46s1.7-.84,2.61-1.2,1.87-.68,2.88-.97c1.07-.3,2.14-.55,3.23-.76,1.14-.22,2.36-.42,3.65-.59s2.67-.32,4.15-.45c1.03-.09,2.8-.17,5.13-.23l8.49-.17,22.57-.14h0Z"/>
      </g>
    </g>
  </g>
</svg>