<?xml version="1.0" encoding="UTF-8"?>
<svg id="Layer_2" data-name="Layer 2" xmlns="http://www.w3.org/2000/svg" viewBox="0 0 260.1 260.1">
  <defs>
    <style>
      .cls-1 {
        fill: #fefefe;
      }

      .cls-1, .cls-2 {
        fill-rule: evenodd;
      }

      .cls-2 {
        fill: #1977f3;
      }
    </style>
  </defs>
  <g id="Layer_1-2" data-name="Layer 1">
    <path class="cls-2" d="m260.1,130.05C260.1,58.23,201.87,0,130.05,0S0,58.23,0,130.05c0,64.9,47.55,118.71,109.73,128.48v-90.88h-33.03v-37.6h33.03v-28.66c0-32.59,19.42-50.6,49.12-50.6,14.23,0,29.11,2.54,29.11,2.54v32h-16.4c-16.15,0-21.2,10.02-21.2,20.32v24.4h36.06l-5.76,37.6h-30.3v90.87c62.18-9.75,109.73-63.55,109.73-128.48h0Z"/>
    <path class="cls-1" d="m180.67,167.65l5.76-37.6h-36.06v-24.4c0-10.28,5.03-20.32,21.2-20.32h16.4v-32.01s-14.89-2.54-29.11-2.54c-29.7,0-49.12,18-49.12,50.6v28.66h-33.03v37.6h33.03v90.87c6.62,1.04,13.4,1.57,20.32,1.57s13.7-.55,20.32-1.57v-90.88h30.3,0Z"/>
  </g>
</svg>