<?xml version="1.0" encoding="UTF-8"?>
<svg id="Layer_2" data-name="Layer 2" xmlns="http://www.w3.org/2000/svg" viewBox="0 0 281.53 197.03">
  <defs>
    <style>
      .cls-1 {
        fill: #fff;
      }

      .cls-2 {
        fill: red;
      }
    </style>
  </defs>
  <g id="Layer_1-2" data-name="Layer 1">
    <g id="Layer_3" data-name="Layer 3">
      <path class="cls-2" d="m275.63,30.74v.04c-3.14-11.99-12.69-21.54-24.69-24.69C228.86,0,140.67,0,140.67,0c0,0-88,0-110.08,5.74-11.84,3.3-21.58,13.04-24.88,25.04C0,52.87,0,98.59,0,98.59c0,0,0,45.92,5.74,67.66,3.3,11.99,12.85,21.58,24.88,24.88,22.24,5.9,110.08,5.9,110.08,5.9,0,0,88.15,0,110.24-5.74,11.99-3.3,21.55-12.69,24.69-24.88,5.9-21.89,5.9-67.66,5.9-67.66,0,0,.16-45.92-5.9-68.01Zm-162.94,109.96V56.36l73.2,42.27-73.2,42.07Z"/>
      <polygon class="cls-1" points="185.89 98.63 112.68 140.7 112.68 56.36 185.89 98.63"/>
    </g>
  </g>
</svg>