<?xml version="1.0" encoding="UTF-8"?>
<svg id="Layer_2" data-name="Layer 2" xmlns="http://www.w3.org/2000/svg" viewBox="0 0 50.76 50.76">
  <defs>
    <style>
      .cls-1 {
        fill: #fff;
      }

      .cls-1, .cls-2, .cls-3, .cls-4 {
        fill-rule: evenodd;
      }

      .cls-2 {
        fill: #69c9d0;
      }

      .cls-3 {
        fill: #ee1d52;
      }

      .cls-4 {
        fill: #010101;
      }
    </style>
  </defs>
  <g id="Layer_3" data-name="Layer 3">
    <g>
      <path class="cls-4" d="m25.38,0h0c14.02,0,25.38,11.36,25.38,25.38h0c0,14.02-11.36,25.38-25.38,25.38h0C11.36,50.76,0,39.4,0,25.38h0C0,11.36,11.36,0,25.38,0Z"/>
      <g>
        <path class="cls-3" d="m32.37,20.83c2.12,1.51,4.71,2.4,7.51,2.4v-5.38c-.53,0-1.06-.06-1.58-.16v4.24c-2.8,0-5.39-.89-7.51-2.4v10.98c0,5.5-4.46,9.95-9.95,9.95-2.05,0-3.96-.62-5.54-1.68,1.81,1.85,4.33,2.99,7.12,2.99,5.5,0,9.96-4.45,9.96-9.95v-10.98h0Zm1.94-5.43c-1.08-1.18-1.79-2.71-1.94-4.39v-.69h-1.49c.38,2.14,1.66,3.97,3.44,5.08h0Zm-15.54,19.16c-.6-.79-.93-1.76-.93-2.76,0-2.51,2.04-4.55,4.55-4.55.47,0,.93.07,1.38.21v-5.5c-.52-.07-1.05-.1-1.58-.09v4.28c-.45-.14-.91-.21-1.38-.21-2.52,0-4.55,2.04-4.55,4.55,0,1.78,1.02,3.32,2.5,4.07Z"/>
        <path class="cls-1" d="m30.79,19.51c2.12,1.51,4.71,2.4,7.51,2.4v-4.24c-1.56-.33-2.94-1.15-3.98-2.28-1.78-1.11-3.06-2.94-3.44-5.08h-3.92v21.5c0,2.51-2.04,4.54-4.55,4.54-1.48,0-2.79-.7-3.62-1.8-1.49-.75-2.5-2.29-2.5-4.07,0-2.51,2.04-4.55,4.55-4.55.48,0,.95.07,1.38.21v-4.28c-5.4.11-9.75,4.52-9.75,9.95,0,2.71,1.08,5.16,2.84,6.96,1.58,1.06,3.49,1.68,5.54,1.68,5.5,0,9.95-4.45,9.95-9.95v-10.99Z"/>
        <path class="cls-2" d="m38.3,17.68v-1.15c-1.41,0-2.79-.39-3.98-1.14,1.06,1.16,2.45,1.96,3.98,2.28Zm-7.42-7.37c-.04-.2-.06-.41-.08-.62v-.69h-5.42v21.5c0,2.51-2.04,4.54-4.55,4.54-.74,0-1.43-.17-2.05-.49.83,1.09,2.15,1.8,3.62,1.8,2.51,0,4.54-2.03,4.55-4.54V10.31h3.92Zm-8.67,11.55v-1.22c-.45-.06-.91-.09-1.37-.09-5.5,0-9.96,4.45-9.96,9.95,0,3.44,1.75,6.48,4.41,8.27-1.76-1.79-2.84-4.25-2.84-6.96,0-5.42,4.34-9.84,9.75-9.95h0Z"/>
      </g>
    </g>
  </g>
</svg>