<?xml version="1.0" encoding="UTF-8"?>
<svg id="Layer_2" data-name="Layer 2" xmlns="http://www.w3.org/2000/svg" viewBox="0 0 72.53 50.76">
  <defs>
    <style>
      .cls-1 {
        fill: red;
      }
    </style>
  </defs>
  <g id="Layer_3" data-name="Layer 3">
    <path class="cls-1" d="m71.01,7.93c-.81-3.09-3.27-5.55-6.36-6.36C58.96,0,36.24,0,36.24,0c0,0-22.67,0-28.36,1.48-3.05.85-5.56,3.36-6.41,6.45C0,13.62,0,25.4,0,25.4c0,0,0,11.83,1.48,17.43.85,3.09,3.31,5.56,6.41,6.41,5.73,1.52,28.36,1.52,28.36,1.52,0,0,22.71,0,28.4-1.48,3.09-.85,5.55-3.27,6.36-6.41,1.52-5.64,1.52-17.43,1.52-17.43,0,0,.04-11.83-1.52-17.52Zm-41.98,28.31V14.52l18.86,10.89-18.86,10.84Z"/>
  </g>
</svg>