<?xml version="1.0" encoding="UTF-8"?>
<svg id="Layer_2" data-name="Layer 2" xmlns="http://www.w3.org/2000/svg" xmlns:xlink="http://www.w3.org/1999/xlink" viewBox="0 0 500 145.69">
  <defs>
    <style>
      .cls-1 {
        fill: url(#linear-gradient-2);
      }

      .cls-2 {
        fill: #e4e4e4;
      }

      .cls-3 {
        fill: url(#linear-gradient-3);
      }

      .cls-4 {
        fill: url(#linear-gradient);
      }

      .cls-5 {
        fill: url(#linear-gradient-4);
      }
    </style>
    <linearGradient id="linear-gradient" x1="74.28" y1="-22.04" x2="74.28" y2="104.54" gradientUnits="userSpaceOnUse">
      <stop offset="0" stop-color="#b000f2"/>
      <stop offset="1" stop-color="#ff5d00"/>
    </linearGradient>
    <linearGradient id="linear-gradient-2" x1="60.96" y1="-22.04" x2="60.96" y2="104.54" xlink:href="#linear-gradient"/>
    <linearGradient id="linear-gradient-3" x1="414.52" y1="-22.04" x2="414.52" y2="104.54" xlink:href="#linear-gradient"/>
    <linearGradient id="linear-gradient-4" x1="377.63" y1="-22.04" x2="377.63" y2="104.54" xlink:href="#linear-gradient"/>
  </defs>
  <g id="Layer_1-2" data-name="Layer 1">
    <g>
      <path class="cls-4" d="m95.55,52.59c9.41,6.72,20.93,10.68,33.38,10.68v-23.94c-2.36,0-4.71-.24-7.01-.73v18.84c-12.45,0-23.97-3.95-33.38-10.67v48.85c0,24.44-19.82,44.25-44.27,44.25-9.12,0-17.6-2.76-24.65-7.48,8.04,8.22,19.25,13.31,31.65,13.31,24.45,0,44.27-19.81,44.27-44.25v-48.85h0Zm8.65-24.15c-4.81-5.25-7.96-12.03-8.65-19.53v-3.08h-6.64c1.67,9.53,7.38,17.68,15.29,22.61h0ZM35.09,113.62c-2.69-3.52-4.14-7.83-4.13-12.25,0-11.18,9.07-20.24,20.25-20.24,2.08,0,4.16.32,6.14.95v-24.47c-2.32-.32-4.66-.45-7.01-.4v19.05c-1.99-.63-4.06-.95-6.15-.95-11.19,0-20.25,9.06-20.25,20.24,0,7.9,4.53,14.75,11.14,18.08Z"/>
      <path class="cls-1" d="m121.92,38.59v-5.1c-6.26,0-12.41-1.74-17.72-5.06,4.71,5.15,10.9,8.7,17.72,10.16ZM88.91,5.83c-.16-.91-.28-1.83-.37-2.75V0h-24.09v95.61c-.04,11.15-9.09,20.17-20.25,20.17-3.28,0-6.37-.78-9.11-2.16,3.7,4.85,9.54,7.99,16.12,7.99,11.16,0,20.21-9.02,20.25-20.17V5.83h17.45Zm-38.56,51.38v-5.42c-2.01-.28-4.04-.41-6.07-.41-24.45,0-44.27,19.81-44.27,44.25,0,15.32,7.79,28.82,19.63,36.76-7.81-7.98-12.62-18.89-12.62-30.94,0-24.12,19.32-43.74,43.34-44.24Z"/>
      <path class="cls-3" d="m401.06,119.83c17.49,0,31.68-14.07,31.68-31.42s-14.18-31.42-31.68-31.42h-4.77c17.49,0,31.68,14.07,31.68,31.42s-14.18,31.42-31.68,31.42h4.77Z"/>
      <path class="cls-5" d="m395.86,56.99h-4.77c-17.49,0-31.68,14.07-31.68,31.42s14.18,31.42,31.68,31.42h4.77c-17.5,0-31.68-14.07-31.68-31.42,0-17.35,14.18-31.42,31.68-31.42Z"/>
    </g>
    <g>
      <path class="cls-2" d="m88.54,46.76c9.41,6.72,20.93,10.67,33.38,10.67v-18.84c-6.95-1.48-13.1-5.11-17.72-10.15-7.92-4.94-13.62-13.08-15.29-22.61h-17.45v95.61c-.04,11.15-9.09,20.17-20.25,20.17-6.58,0-12.42-3.13-16.12-7.99-6.61-3.33-11.14-10.18-11.14-18.08,0-11.18,9.07-20.24,20.25-20.24,2.14,0,4.21.33,6.15.95v-19.05c-24.02.5-43.34,20.11-43.34,44.24,0,12.04,4.81,22.96,12.62,30.94,7.04,4.73,15.52,7.48,24.65,7.48,24.45,0,44.27-19.81,44.27-44.25v-48.85h0Z"/>
      <path class="cls-2" d="m155.03,42.79v15.93h18.66v60.69h18.66v-60.26h15.19l5.21-16.36h-57.71Zm152.74,0v15.93h18.66v60.69h18.66v-60.26h15.19l5.21-16.36h-57.71Zm-91.56,9.04c0-4.99,4.07-9.04,9.1-9.04s9.11,4.05,9.11,9.04-4.07,9.04-9.11,9.04c-5.03,0-9.1-4.05-9.1-9.04Zm0,15.5h18.22v52.08h-18.22v-52.08Zm26.03-24.53v76.61h18.23v-19.8l5.64-5.17,17.79,25.4h19.52l-25.6-37.01,23-22.38h-22.13l-18.22,18.08v-35.72h-18.23Zm196.56,0v76.61h18.23v-19.8l5.64-5.17,17.79,25.4h19.53l-25.6-37.01,23-22.38h-22.13l-18.23,18.08v-35.72h-18.23Z"/>
      <path class="cls-2" d="m396.29,119.83c17.49,0,31.68-14.07,31.68-31.42s-14.18-31.42-31.68-31.42h-.43c-17.49,0-31.68,14.07-31.68,31.42s14.18,31.42,31.68,31.42h.43Zm-15.62-31.42c0-8.44,6.9-15.28,15.41-15.28s15.4,6.84,15.4,15.28-6.9,15.28-15.4,15.28c-8.51,0-15.41-6.84-15.41-15.28Z"/>
    </g>
  </g>
</svg>