<?xml version="1.0" encoding="UTF-8"?>
<svg id="Layer_2" data-name="Layer 2" xmlns="http://www.w3.org/2000/svg" xmlns:xlink="http://www.w3.org/1999/xlink" viewBox="0 0 512 114.3">
  <defs>
    <style>
      .cls-1 {
        fill: #e4e4e4;
      }

      .cls-2 {
        fill: url(#linear-gradient);
      }
    </style>
    <linearGradient id="linear-gradient" x1="207.73" y1="-32.43" x2="-16.99" y2="127.22" gradientUnits="userSpaceOnUse">
      <stop offset="0" stop-color="#b000f2"/>
      <stop offset="1" stop-color="#ff5d00"/>
    </linearGradient>
  </defs>
  <g id="Layer_1-2" data-name="Layer 1">
    <g>
      <g>
        <path class="cls-2" d="m159.87,17.85c-1.89-7.03-7.41-12.56-14.44-14.44-12.73-3.41-63.79-3.41-63.79-3.41,0,0-51.06,0-63.79,3.41-7.03,1.88-12.55,7.41-14.44,14.44C0,30.58,0,57.15,0,57.15c0,0,0,26.57,3.41,39.3,1.89,7.03,7.41,12.55,14.44,14.43,12.73,3.42,63.79,3.42,63.79,3.42,0,0,51.06,0,63.79-3.42,7.03-1.88,12.55-7.4,14.44-14.43,3.41-12.73,3.41-39.3,3.41-39.3,0,0-.01-26.57-3.41-39.3Zm-94.57,63.79v-48.98l42.42,24.49-42.42,24.49Z"/>
        <polygon class="cls-1" points="107.72 57.15 65.3 81.64 65.3 32.66 107.72 57.15"/>
      </g>
      <g id="youtube-paths">
        <path class="cls-1" d="m197.75,74.31l-18.33-66.21h15.99l6.42,30.01c1.64,7.39,2.84,13.7,3.62,18.91h.47c.54-3.74,1.75-10,3.62-18.8l6.65-30.12h15.99l-18.56,66.21v31.76h-15.89v-31.76h.01Z"/>
        <path class="cls-1" d="m270.46,46.58c-1.48-4.62-3.82-8.03-7.01-10.21-3.2-2.18-7.43-3.27-12.72-3.27s-9.72,1.08-13.03,3.21c-3.31,2.14-5.74,5.56-7.3,10.22-1.56,4.66-2.34,10.86-2.34,18.56v10.39c0,7.64.69,13.74,2.05,18.33,1.37,4.6,3.67,7.99,6.89,10.17,3.23,2.17,7.68,3.27,13.38,3.26,5.52,0,9.9-1.07,13.13-3.21,3.22-2.14,5.56-5.53,7-10.16s2.16-10.75,2.16-18.39v-10.39c0-7.7-.74-13.87-2.21-18.51Zm-14.02,34.75c0,5.29-.46,9.1-1.35,11.44-.9,2.33-2.47,3.5-4.73,3.5s-3.8-1.17-4.66-3.5c-.86-2.33-1.29-6.15-1.29-11.44v-22.3c0-5.14.44-8.89,1.34-11.26.89-2.38,2.43-3.57,4.61-3.57s3.83,1.19,4.73,3.57c.9,2.36,1.35,6.12,1.35,11.26v22.3Z"/>
        <path class="cls-1" d="m324.7,106.09h-12.61l-1.4-8.76h-.35c-3.43,6.61-8.56,9.92-15.42,9.92-4.74,0-8.25-1.56-10.51-4.66-2.26-3.12-3.39-7.98-3.39-14.6v-53.48h16.12v52.54c0,3.2.35,5.47,1.05,6.83.7,1.36,1.87,2.04,3.51,2.04,1.4,0,2.74-.43,4.03-1.29,1.29-.86,2.23-1.95,2.86-3.27v-56.87h16.1v71.6Z"/>
        <path class="cls-1" d="m368.48,21.07h-15.99v85.01h-15.77V21.07h-15.99v-12.96h47.76v12.96Z"/>
        <path class="cls-1" d="m407.35,106.09h-12.61l-1.4-8.76h-.35c-3.43,6.61-8.56,9.92-15.42,9.92-4.74,0-8.25-1.56-10.51-4.66-2.26-3.12-3.39-7.98-3.39-14.6v-53.48h16.12v52.54c0,3.2.35,5.47,1.05,6.83.7,1.36,1.87,2.04,3.51,2.04,1.4,0,2.74-.43,4.03-1.29,1.29-.86,2.23-1.95,2.86-3.27v-56.87h16.1v71.6Z"/>
        <path class="cls-1" d="m460.68,45.94c-.98-4.52-2.55-7.78-4.73-9.81-2.17-2.03-5.17-3.04-8.99-3.04-2.96,0-5.72.83-8.29,2.51-2.57,1.68-4.56,3.87-5.96,6.6h-.12V4.49h-15.52v101.58h13.31l1.63-6.77h.35c1.25,2.42,3.12,4.31,5.61,5.72,2.49,1.4,5.25,2.1,8.29,2.1,5.45,0,9.46-2.51,12.03-7.53,2.57-5.02,3.86-12.86,3.86-23.53v-11.33c0-8-.5-14.28-1.47-18.79Zm-15.41,41.46c-.43,2.96-1.15,5.07-2.17,6.31-1,1.25-2.38,1.87-4.08,1.87-1.33,0-2.56-.31-3.69-.95-1.12-.61-2.04-1.55-2.74-2.79v-40.63c.54-1.95,1.48-3.54,2.81-4.79,1.32-1.25,2.77-1.87,4.32-1.87,1.64,0,2.9.65,3.79,1.93.9,1.29,1.52,3.44,1.87,6.47.34,3.04.52,7.36.52,12.96v9.24h0c0,5.21-.21,9.3-.64,12.25Z"/>
        <path class="cls-1" d="m512,75.64v-12.26c0-7.55-.6-13.46-1.81-17.75-1.21-4.29-3.3-7.43-6.25-9.46-2.96-2.03-7.21-3.04-12.73-3.04-8.03,0-13.68,2.47-16.99,7.42-3.31,4.95-4.96,12.79-4.96,23.53v12.5c0,10.43,1.58,18.14,4.78,23.12,3.19,4.99,8.75,7.47,16.7,7.47,6.61,0,11.73-1.63,15.35-4.9,3.61-3.27,5.43-8.21,5.43-14.83,0-1.08-.04-1.95-.12-2.56l-13.9-.82c-.08,4.35-.57,7.47-1.47,9.34-.88,1.87-2.55,2.81-4.96,2.81-1.78,0-3.1-.53-3.96-1.58-.86-1.06-1.43-2.72-1.7-5.02-.26-2.3-.4-5.74-.4-10.34v-3.63h26.99Zm-26.99-14.69c0-4.68.14-8.16.4-10.45.29-2.3.82-3.96,1.64-4.96.81-1.01,2.07-1.52,3.79-1.54,1.71,0,2.98.5,3.79,1.47.83.98,1.39,2.65,1.7,5.03.31,2.37.47,5.86.47,10.45v5.14h-11.79v-5.14Z"/>
      </g>
    </g>
  </g>
</svg>