<?xml version="1.0" encoding="UTF-8"?>
<svg id="Layer_2" data-name="Layer 2" xmlns="http://www.w3.org/2000/svg" xmlns:xlink="http://www.w3.org/1999/xlink" viewBox="0 0 50.33 50.32">
  <defs>
    <style>
      .cls-1 {
        fill: url(#linear-gradient-2);
      }

      .cls-2 {
        fill: url(#linear-gradient-3);
      }

      .cls-3 {
        fill: url(#linear-gradient);
      }
    </style>
    <linearGradient id="linear-gradient" x1="57.69" y1="-2.2" x2="-9.46" y2="54.29" gradientUnits="userSpaceOnUse">
      <stop offset="0" stop-color="#fed576"/>
      <stop offset=".26" stop-color="#f47133"/>
      <stop offset=".61" stop-color="#bc3081"/>
      <stop offset="1" stop-color="#4c63d2"/>
    </linearGradient>
    <linearGradient id="linear-gradient-2" x1="57.69" y1="-2.2" x2="-9.46" y2="54.29" xlink:href="#linear-gradient"/>
    <linearGradient id="linear-gradient-3" x1="56.65" y1="-3.44" x2="-10.51" y2="53.05" xlink:href="#linear-gradient"/>
  </defs>
  <g id="Layer_3" data-name="Layer 3">
    <g>
      <path class="cls-3" d="m50.18,14.78c-.12-2.68-.55-4.51-1.17-6.11-.64-1.65-1.5-3.06-2.9-4.45-1.4-1.4-2.8-2.26-4.46-2.91-1.6-.62-3.43-1.04-6.11-1.17-2.68-.12-3.54-.15-10.37-.15s-7.69.03-10.37.15c-2.69.11-4.52.54-6.12,1.17-1.66.64-3.06,1.5-4.46,2.91-1.4,1.39-2.26,2.8-2.91,4.45-.62,1.6-1.04,3.43-1.17,6.11-.12,2.68-.15,3.54-.15,10.37s.03,7.69.15,10.37c.12,2.68.55,4.51,1.17,6.11.64,1.66,1.5,3.06,2.91,4.46,1.4,1.4,2.8,2.26,4.46,2.91,1.6.62,3.43,1.04,6.11,1.17,2.68.12,3.54.15,10.37.15s7.69-.03,10.37-.15c2.68-.12,4.51-.55,6.11-1.17,1.66-.64,3.06-1.5,4.46-2.91,1.4-1.4,2.26-2.8,2.91-4.46.62-1.6,1.04-3.43,1.17-6.11.12-2.68.15-3.54.15-10.37s-.03-7.69-.15-10.37Zm-4.52,20.55c-.11,2.46-.52,3.79-.87,4.68-.46,1.18-1,2.02-1.88,2.89-.88.88-1.72,1.42-2.89,1.88-.89.35-2.22.76-4.68.87-2.65.12-3.45.14-10.17.14s-7.52-.03-10.17-.14c-2.46-.11-3.79-.52-4.68-.87-1.18-.46-2.02-1-2.9-1.88-.88-.88-1.42-1.72-1.88-2.89-.35-.89-.76-2.22-.87-4.68-.12-2.65-.14-3.45-.14-10.17s.03-7.52.14-10.17c.11-2.46.52-3.79.87-4.68.46-1.18,1-2.02,1.88-2.9s1.72-1.42,2.9-1.88c.89-.35,2.22-.76,4.68-.87,2.65-.12,3.45-.14,10.17-.14s7.52.02,10.17.14c2.46.11,3.79.52,4.68.87,1.18.46,2.02,1,2.89,1.88.88.88,1.42,1.72,1.88,2.9.35.89.76,2.22.87,4.68.12,2.65.14,3.45.14,10.17s-.03,7.52-.14,10.17Z"/>
      <path class="cls-1" d="m25.17,12.25c-7.14,0-12.92,5.78-12.92,12.92s5.79,12.92,12.92,12.92,12.92-5.79,12.92-12.92-5.78-12.92-12.92-12.92Zm0,21.31c-4.63,0-8.39-3.75-8.39-8.39s3.75-8.39,8.39-8.39,8.39,3.75,8.39,8.39-3.75,8.39-8.39,8.39Z"/>
      <circle class="cls-2" cx="38.61" cy="11.73" r="3.02"/>
    </g>
  </g>
</svg>