<?xml version="1.0" encoding="UTF-8"?>
<svg id="Layer_2" data-name="Layer 2" xmlns="http://www.w3.org/2000/svg" xmlns:xlink="http://www.w3.org/1999/xlink" viewBox="0 0 512 512">
  <defs>
    <style>
      .cls-1 {
        fill: url(#linear-gradient-2);
      }

      .cls-2 {
        fill: url(#linear-gradient-3);
      }

      .cls-3 {
        fill: url(#linear-gradient);
      }

      .cls-4 {
        fill: url(#linear-gradient-4);
      }
    </style>
    <linearGradient id="linear-gradient" x1="-527.87" y1="1957.16" x2="-84.76" y2="1957.16" gradientTransform="translate(564 2205.68) scale(1 -1)" gradientUnits="userSpaceOnUse">
      <stop offset="0" stop-color="#f8e551"/>
      <stop offset=".1" stop-color="#f3e04e"/>
      <stop offset=".21" stop-color="#e6d148"/>
      <stop offset=".34" stop-color="#d1b93d"/>
      <stop offset=".47" stop-color="#b3992d"/>
      <stop offset=".52" stop-color="#a68a27"/>
      <stop offset=".64" stop-color="#c3aa25"/>
      <stop offset=".79" stop-color="#e0ca24"/>
      <stop offset=".91" stop-color="#f2dd24"/>
      <stop offset="1" stop-color="#f9e524"/>
    </linearGradient>
    <linearGradient id="linear-gradient-2" y1="1948.58" y2="1948.58" xlink:href="#linear-gradient"/>
    <linearGradient id="linear-gradient-3" x1="-527.87" y1="1953.14" x2="-84.76" y2="1953.14" xlink:href="#linear-gradient"/>
    <linearGradient id="linear-gradient-4" x1="-527.87" y1="1975.03" x2="-84.76" y2="1975.03" xlink:href="#linear-gradient"/>
  </defs>
  <path class="cls-3" d="m399,283.66c-7.75-.58-15.52-.87-23.26-1.59-16.99-1.56-33.95-3.36-50.93-4.99-26.77-2.57-53.61-3.85-80.5-4.2-.68,0-1.35-.09-2.28-.16.34-.88.54-1.53.84-2.14,2.06-4.19,4.11-8.38,6.24-12.54.94-1.84,2.02-3.6,3.04-5.4-.06.63-.03,1.26.09,1.88l.02.08.02.08.04.16c.05.21.12.42.19.62.04.1.08.2.12.3l.06.15.03.07c.06.12.12.24.18.36.08.14.16.28.24.42.07.11.15.23.23.33.03.04.06.09.1.13.06.09.13.17.2.25.47.56,1.02,1.04,1.65,1.43.09.06.19.11.28.17l.07.04.15.08c.12.06.25.12.37.18l.08.03c1.18.49,2.48.65,3.75.45,2.17-.33,4.49-1.19,6.25-2.48,9.03-6.66,15-15.56,18.38-26.2,1.19-3.75-.64-6.6-3.18-9.02-.58-.56-1.95-.82-2.72-.54-1.9.67-3.74,1.61-5.46,2.66-1.62.99-3.08,2.26-4.48,3.31-.9-1.73-1.57-3.49-2.64-4.95-2.13-2.91-4.18-2.96-6.23-.02-2.97,4.26-5.96,8.53-8.44,13.08-3.45,6.32-8.36,11.32-13.47,16.2-.44.42-.97.74-1.46,1.11-.11-.92.07-1.65.4-2.29,3.61-6.87,7.04-13.83,10.96-20.52,1.5-2.56,1.36-4.52.03-6.78-1.63-2.76-3.19-3.06-5.65-1.03-.99.81-1.98,1.67-2.79,2.65-3.71,4.5-7.39,9.03-11.04,13.58-1.22,1.53-2.32,3.15-3.48,4.72-.16-.46-.1-.79.05-1.07,2.13-3.96,4.27-7.9,6.38-11.86.35-.65.82-1.42.73-2.07-.3-2.27-1.2-4.42-3.34-5.45-1.97-.95-3.16.91-4.49,1.96-.32.26-.61.54-.88.86-3.63,4.19-7.25,8.39-10.87,12.59-.31.35-.62.7-.93,1.05.59-1.66,1.38-3.15,2.23-4.61.79-1.36,1.58-2.73,2.5-4,.36-.49,1.05-.93,1.65-1.01,1.13-.16,1.47-.85,1.2-1.7-.43-1.31-.92-2.67-1.72-3.76-2.31-3.18-4.62-3.25-6.68.05-2.96,4.75-5.58,9.7-8.35,14.57-.43.76-.77,1.6-1.31,2.26-2.68,3.31-5.36,6.63-8.15,9.85-1.5,1.73-3.23,3.28-5,5.06,0-.43-.06-.62,0-.75,2.71-5.08,5.33-10.22,8.23-15.2.67-1.16,1.16-2.03.75-3.32-.1-.33.08-.87.32-1.16,2.1-2.5,2.61-6.47,1.11-9.01-1.37-2.31-4.35-3.34-7.77-2.71-3.47.64-6.53,2.18-9.32,4.26-8.57,6.39-15.07,14.5-19.15,24.34-1.69,4.09-4.65,6.89-7.61,9.83-.26.26-.66.39-1.4.82.41-1.38.57-2.42,1.01-3.33,3.85-7.92,7.58-15.9,11.72-23.66,1.33-2.49.76-4.19-.67-6.19-.81-1.14-1.88-1.38-3.01-.47-1.23.98-2.47,1.97-3.59,3.07-6.13,6.04-11.56,12.68-16.46,19.75-.35.51-.74,1-1.11,1.5-.11-.66.05-1.19.25-1.7,4.84-12.17,10.6-23.9,16.96-35.33,2.69-4.84,5.63-9.55,8.57-14.24,1.04-1.65,2.32-3.23,4.63-3.21-1.82-4.13-5.88-4.9-8.65-1.67-1.48,1.73-2.81,3.59-3.98,5.54-9.58,16.01-17.5,32.84-24.44,50.15-.53,1.32-1.24,2.69-2.22,3.69-6.55,6.74-13.03,13.55-19.85,20.01-6.02,5.71-12.5,10.95-20.08,14.53-2.45,1.16-5.13,2.04-7.8,2.45-3.86.59-6.31-1.32-7.03-5.15-.37-1.93-.45-3.95-.35-5.91.29-5.64,1.71-11.07,3.65-16.34,8.01-21.76,20.1-41.02,36.01-57.88,4.58-4.86,9.56-9.34,15.67-12.21,2.37-1.11,5.06-1.8,7.68-2.09,2.81-.31,4.85,1.5,4.95,4.29.07,1.96-.31,4.13-1.15,5.89-2.87,6.01-7.45,10.53-13.19,13.87-.55.32-1.21.44-2.22.8.57-1.6.98-2.75,1.4-3.9-.16-.08-.32-.16-.48-.25-.95,1.57-1.96,3.1-2.82,4.71-1.08,2.01-.79,4.09.04,6.09.72,1.75,1.8,2.31,3.48,1.47,1.81-.9,3.62-1.96,5.12-3.29,5.2-4.6,9.16-10.14,11.51-16.69.76-2.1,1.23-4.42,1.28-6.65.12-6.52-3.85-9.78-10.29-8.72-6.07,1-11.16,4.07-15.97,7.63-9.77,7.21-17.86,16.08-25.08,25.77-10.12,13.56-18.49,28.08-23.52,44.33-2.19,7.06-3.62,14.27-2.59,21.73,1,7.29,5.54,10.57,12.82,9.34,5.16-.87,9.48-3.57,13.65-6.51,9.37-6.6,17.4-14.66,25.12-23.05,3.27-3.55,6.43-7.2,9.9-11.1-.21.89-.35,1.43-.45,1.98-.36,1.89-.88,3.77-1.02,5.67-.17,2.42,2.29,4.78,3.94,4.52,0-1.16-.16-2.27.04-3.32.21-1.07.69-2.11,1.19-3.09,4.29-8.51,9.91-16.09,16.32-23.09,1.64-1.79,3.47-3.4,5.22-5.1,0,.76-.28,1.3-.58,1.83-4,7.02-7.52,14.24-9.46,22.14-.51,2.1-.03,3.92,1.2,5.61,1.28,1.75,2.29,2.03,3.92.64,1.9-1.62,3.6-3.47,5.36-5.26.71-.73,1.33-1.55,1.99-2.33.77,1.71,1.31,3.31,2.17,4.72,1.58,2.58,3.05,2.82,5.46,1.09.66-.47,1.32-.99,1.86-1.59,3.27-3.58,6.5-7.18,9.74-10.78.4-.44.78-.9,1.45-1.66-.51,2.53-1.05,4.56-1.29,6.63-.28,2.5.9,4.45,3.01,5.71,2.03,1.2,3.65-.1,5-1.37,2.08-1.96,3.99-4.09,5.93-6.19.89-.96,1.67-2.01,2.5-3.02.08,1.07-.1,1.97-.32,2.86-.65,2.66.3,4.89,2.17,6.64.71.67,1.95.87,3,1.03.3.05,1.15-.98,1.05-1.17-.86-1.69.09-3.01.9-4.22,3.75-5.63,7.55-11.24,11.45-16.77,1.44-2.05,3.22-3.86,4.85-5.78.08.62-.14,1.02-.3,1.44-1.74,4.57-3.62,9.1-5.09,13.75-.41,1.3.04,3.17.71,4.45,1.91,3.63,3.83,3.68,6.12.34,3.11-4.52,6.1-9.12,9.23-13.62,1.46-2.1,3.15-4.04,5.04-6.45-1.94,4.66-3.73,8.77-5.34,12.95-.62,1.61-1.03,3.38-1.12,5.1-.14,2.7,1.11,4.97,3.47,6.25,2.14,1.16,3.75-.52,5.3-1.73,1.22-.95,2.32-2.04,3.48-3.07.05.69-.15,1.21-.37,1.72-1.97,4.42-4.01,8.82-5.88,13.29-.59,1.41-1.34,1.89-2.85,1.9-8.24.06-16.48.16-24.71.36-19.72.49-39.32,2.14-58.66,6.22-12.05,2.54-23.8,5.97-34.76,11.74-.64.33-1.25.7-1.88,1.06l.17.54c1.94-.22,3.97-.13,5.8-.7,11.99-3.72,24.28-5.97,36.73-7.3,24.54-2.62,49.18-3.46,73.85-3.69.68,0,1.36.09,2.29.15-.28,1.08-.54,1.95-.73,2.84-.91,4.21-1.93,8.4-2.66,12.65-.39,2.27.09,4.55,1.56,6.47,1.34,1.75,3.5,2.36,5.3,1.55.79-.36,1.49-1.01.61-1.67-1.33-1.01-1.03-2.23-.88-3.48.73-5.9,2.64-11.46,4.66-17.01.44-1.22,1.19-1.56,2.38-1.52,17.34.59,34.7.8,52.02,1.81,21.46,1.26,42.86,3.4,64.32,4.72,14.77.91,29.56.67,44.23-1.8.77-.13,1.53-.32,2.3-.49l.07-.68c-1.35-.35-2.68-.9-4.04-1h0Zm-146.21-31.42s-.04,0-.05.02l-.05.02h-.02s-.02.02-.02.02c-.03.01-.07.03-.1.04-.11.05-.22.1-.32.17h0s.04-.1.04-.1l.05-.1.05-.1.07-.15c.06-.13.12-.27.18-.4l.03-.07.04-.08.03-.05.03-.05c.03-.05.06-.11.09-.16.02-.03.03-.06.05-.09.05-.09.11-.18.17-.26,5.89-7.9,12.57-15.03,20.47-20.96.77-.58,1.6-1.06,2.76-1.81-.24.82-.3,1.21-.46,1.55-3.5,7.68-7.75,14.91-13.49,21.16-1.32,1.44-2.96,2.64-4.63,3.66-1.53.94-2.65.48-3.42-1.14-.08-.17-.16-.33-.26-.48-.06-.09-.13-.18-.2-.27l-.02-.03s0,0,0,0c0,0,0,0,0,0l-.03-.03-.02-.02h0s-.04-.04-.04-.04c0,0-.01-.01-.02-.02l-.02-.02s-.09-.07-.13-.09c-.02-.01-.05-.03-.07-.04h-.02s-.02-.02-.02-.02c-.02-.01-.05-.02-.07-.03h0s-.08-.02-.12-.03h-.03s-.03,0-.03,0c-.01,0-.02,0-.03,0h-.01s-.06,0-.09,0h-.05s-.05,0-.05,0h-.02s-.03,0-.03,0h-.04s0,0-.01.01h-.05s0,0,0,0Zm-57.01-18.19c-.41-.33-.72-.56-1.01-.81-1.17-1.02-2.34-1.05-3.37.14-1.61,1.85-3.09,3.8-4.73,5.62-5.41,6.03-10.87,12.02-16.32,18.02-.23.25-.52.44-1.06.89.07-.53.05-.71.11-.86,4.21-9.48,9.56-18.17,17.64-24.9,1.46-1.22,3.13-2.29,4.87-3.06,1.11-.49,3.19-.82,3.66-.26.76.92.6,2.63.74,4.02.03.34-.29.71-.52,1.2h0Zm36.63,63.63c-.36,1.98-.05,4.07-.05,6.21-2.03.53-3.92-.24-4.31-2.64-.44-2.71-.62-5.61-.14-8.28,1.67-9.24,5.13-17.93,8.96-26.46,2.29-5.11,4.78-10.13,7.17-15.2.21-.45.38-.92.28-1.57-.62.74-1.18,1.53-1.86,2.2-2.44,2.42-4.84,4.89-7.42,7.17-2.01,1.78-3.36,1.44-4.92-.77-1.47-2.09-1.51-4.33-.85-6.69,2.02-7.2,5.36-13.79,9.39-20.06.31-.49.62-.99.92-1.48.03-.04,0-.11,0-.62-.75.73-1.36,1.2-1.82,1.79-5.09,6.61-10.17,13.22-15.21,19.87-1.41,1.86-2.54,3.92-3.97,5.76-1.09,1.41-1.97,1.33-3.17.02-1.29-1.41-1.72-3.21-1.19-4.9,1.32-4.21,2.71-8.43,4.46-12.47,1.35-3.13,3.3-6.01,4.83-9.24-.74.64-1.6,1.18-2.19,1.93-5.48,6.89-10.91,13.82-16.34,20.75-.61.78-1.09,1.66-1.64,2.49-1.61,2.43-3.38,4.79-3.14,8.43-.99-.52-1.77-.74-2.27-1.25-1.52-1.53-2.37-3.41-1.76-5.57.77-2.68,1.75-5.31,2.65-7.95.18-.53.42-1.04.35-1.74-.37.48-.72.96-1.1,1.43-3.41,4.14-6.82,8.28-10.27,12.39-.59.71-1.34,1.31-2.09,1.85-2.15,1.55-4.39.97-5.06-1.6-.44-1.67-.48-3.63-.07-5.31.69-2.81,1.88-5.5,2.88-8.24.19-.53.45-1.04.41-1.77-.34.41-.68.82-1.03,1.22-4.69,5.44-9.36,10.88-14.07,16.3-.68.78-1.52,1.45-2.34,2.1-1.27,1-2.37.68-3.3-.54-1.67-2.18-2.23-4.59-1.53-7.26,3.39-13,11.31-22.71,22.19-30.2,2.42-1.67,5.16-2.76,8.17-2.86,2.18-.07,4.37.19,5.55,2.26,1.27,2.22.76,4.57-.36,6.79.19-1.01.47-2.02.55-3.04.19-2.51-1.2-4.01-3.59-3.34-2.42.67-4.87,1.71-6.93,3.14-4.87,3.36-8.58,7.95-11.61,12.96-2.82,4.69-5.22,9.64-7.75,14.49-.33.62-.39,1.39-.57,2.08l.39.27c.48-.36.97-.7,1.43-1.08,8.37-7.04,15.28-15.4,21.91-24.03.28-.37.57-.74.87-1.1.88-1.06,1.84-1.08,2.58.04.67,1.01,1.24,2.13,1.57,3.29.14.5-.31,1.26-.66,1.79-3.33,5.08-6.52,10.24-8.49,16.03-.24.71-.36,1.47-.5,2.22-.03.15.08.32.18.71.7-.44,1.41-.73,1.92-1.23,2.08-2.04,4.21-4.05,6.13-6.23,2.46-2.8,4.76-5.76,7.1-8.67.47-.59.87-1.24,1.23-1.9,2.7-4.9,5.33-9.85,8.09-14.72,2.1-3.7,3.97-3.68,6.16-.05.49.82.8,1.76,1.01,2.24-1.22,1.11-2.47,1.8-3.06,2.86-3.26,5.86-6.37,11.81-9.52,17.73-.04.08,0,.22.03.69,1.13-1.47,2.07-2.75,3.07-3.99,4.73-5.85,9.46-11.72,14.25-17.52.96-1.16,2.15-2.14,3.3-3.12,1.24-1.06,2.34-.96,3.41.41,1.92,2.46,1.86,3.32.41,6.09-3,5.73-5.8,11.56-8.63,17.37-.39.8-.53,1.73-.78,2.61l.4.21c.37-.54.77-1.06,1.11-1.62,4.97-8.15,10.98-15.53,17.07-22.85,1.25-1.51,2.82-2.77,4.33-4.05,1.02-.86,1.99-.59,2.89.42,2.22,2.53,2.13,3.91.51,6.84-3.92,7.09-7.63,14.29-11.36,21.48-.54,1.04-.7,2.28-1.04,3.43l.57.4c1.16-.84,2.42-1.57,3.47-2.53,5.76-5.33,11.18-10.91,14.71-18.1,1.72-3.49,4.03-6.7,6.08-10.02.24-.39.58-.73.87-1.1,2.27-2.81,3.7-2.66,5.89.6.59.88.85,1.99,1.26,3l-.62-.2c-1.29,1.49-2.72,2.87-3.84,4.48-1.91,2.75-3.62,5.65-5.41,8.48l.4.29c1.62-1.79,3.27-3.57,4.87-5.39,3.69-4.19,7.87-7.82,12.61-10.78,1.58-.98,3.3-2.28,5.16-.98,2,1.39,3.47,3.36,3.5,5.96.01,1.08-.21,2.23-.59,3.24-3.39,8.86-8.31,16.72-15.57,22.93-1.82,1.55-4.1,2.73-6.35,3.56-3.22,1.19-6.59-.31-8.09-3.16-.28-.53-.4-1.14-.63-1.81.36.04.53.01.57.07,1.92,2.63,3.32,3.04,5.91.99,2.36-1.87,4.76-3.92,6.41-6.38,3.86-5.76,7.31-11.79,10.84-17.76.68-1.16.94-2.56,1.4-3.85l-.39-.34c-.65.29-1.36.48-1.93.88-8.82,6.27-16.97,13.41-22.87,22.46-4.5,6.9-7.92,14.54-11.48,22.01-3.95,8.28-7.25,16.85-8.88,25.93h0Zm34.79-68.79l-3.45,3.56c.75-2.44,2.13-3.81,3.45-3.56Z"/>
  <path class="cls-1" d="m421.48,283.83c-5.03,9.04-10.21,18-17.86,25.14-2.01,1.87-4.53,3.24-6.93,4.64-1.16.68-2.88.94-3.69-.33-.57-.9-.63-2.53-.24-3.57,2.95-7.89,8.25-14.01,14.98-18.94,4.24-3.12,8.87-5.67,13.77-7.59-.02.42.01.56-.04.65h0Zm13.98-34.87c-4.09-1.36-8.1-.82-11.98.8-6.75,2.82-11.79,7.6-15.74,13.69-2.46,3.78-6.23,6.02-10.28,7.8-.12.05-.31-.06-.54-.12.02-.32-.03-.62.05-.87.32-.94.55-1.94,1.06-2.77,3.74-6.11,7.55-12.19,11.33-18.28.33-.53.89-1.12.84-1.64-.19-2.26-.89-4.49-2.79-5.81-1.56-1.09-3.12.22-4.52.99-1.27.71-2.49,1.53-3.68,2.37-6.16,4.38-11.79,9.37-16.98,14.86-.29.31-.62.58-.94.86,3.21-5.78,6.26-11.63,10.9-16.4.53-.54,1.47-.68,2.35-1.06-.46-2.2-1.6-4.12-3.25-5.75-1.08-1.07-2.16-1.08-3.15.1-1.54,1.83-3.1,3.65-4.54,5.55-1.39,1.82-2.33,2.33-4.44,1.47-1.19-.48-2.31-1.36-3.19-2.31-.85-.92-1.33-2.18-1.99-3.27-.57-.94-1.24-1.78-2.53-1.26-1.77.71-3.24,3.02-2.62,4.81.9,2.56.03,4.5-1.41,6.45-.94,1.27-1.73,2.64-2.67,3.9-3.08,4.12-6.16,8.25-10.5,11.18-1.25.84-2.72,1.83-4.19.77-1.44-1.03-.9-2.72-.5-4.06,2.86-9.41,7.94-17.37,15.92-23.29,3.12-2.32,6.62-3.46,10.55-2.12.05.02.15-.13.56-.52-1.27-.66-2.35-1.44-3.56-1.81-3.43-1.06-6.84-.61-10.15.57-5.85,2.1-10.39,5.91-14.05,10.88-1.9,2.57-4.65,3.63-8.1,4.16.5-1.2.7-2.08,1.19-2.76,2.55-3.61,5.07-7.25,7.82-10.71,1.04-1.32,1.26-2.28.41-3.71-2.13-3.57-3.08-3.85-6.62-1.6-1.08.69-2.15,1.42-3.12,2.26-3.04,2.64-6.1,5.27-9.03,8.03-2.06,1.94-3.94,4.08-5.9,6.14,2.4-4.51,4.75-9.05,8.37-12.72.46-.47,1.31-.56,2.09-.87-.15-1.99-1.22-3.63-2.57-5.11-1.59-1.75-2.71-1.82-4.12.1-2.42,3.28-4.79,6.62-6.88,10.12-4.12,6.89-9.92,12.17-15.95,17.26-.61.52-1.45.77-2.18,1.14l-.33-.35c.23-.76.4-1.53.7-2.26,5.5-13.55,12.41-26.39,19.92-38.92.81-1.36,1.78-1.88,3.36-1.94,11.26-.42,22.26,1.19,33.11,4.03,1.71.45,3.42.9,5.13,1.35-11.88-5.56-24.52-7.99-38.07-9.18,2.42-3.21,4.41-6.08,6.65-8.73.81-.96,2.21-1.42,3.45-2.17-1.37-4.38-5.93-5.57-9.29-2-.96,1.02-1.84,2.12-2.63,3.27-1.82,2.64-3.62,5.3-5.32,8.03-.7,1.12-1.51,1.54-2.82,1.63-3.97.29-7.93.75-11.54,2.63-1.61.84-3.01,1.96-2.85,4.03.18,2.23,1.31,3.89,3.34,5.02.75-3.34,5.92-6.69,9.48-6.19-.13.34-.22.66-.37.96-3.48,6.47-6.95,12.96-10.51,19.39-.37.67-1.22,1.18-1.95,1.54-3.87,1.91-7.81,3.69-11.66,5.63-2.08,1.05-4.06.18-4.09-2.15-.01-.91.41-1.97.96-2.72,3.2-4.32,7.42-7.39,12.32-9.53.64-.28,1.41-.3,2.11-.44l.44.49c-1.72,2.61-3.44,5.21-5.16,7.82.43,0,.67.06.86,0,4.38-1.66,6.75-6.5,5.36-10.93-.78-2.49-1.68-3.18-4.24-2.8-6.21.91-11.2,3.94-14.82,9.04-2.66,3.75-2.38,7.16.57,10.73.65.79,1.3,1.6,2.05,2.53-.78.52-1.38.86-1.92,1.28-2.93,2.3-5.91,4.56-8.74,6.98-1.04.89-1.9,2.1-2.52,3.32-1.37,2.71.73,5.69,3.7,5.31,4.48-.58,8.4-2.46,11.65-5.59,3.27-3.15,3.58-5.62,1.14-9.48-.77-1.21-.43-1.8.64-2.3,3.6-1.67,7.2-3.33,10.81-4.97.12-.06.31.04.65.09-.44.98-.88,1.86-1.23,2.77-1.47,3.74-2.94,7.49-4.36,11.25-1.04,2.74-.27,5.14,1.56,7.31,1.54,1.83,2.79,2.11,4.66.64,1.79-1.4,3.47-2.95,5.06-4.57,2.31-2.37,4.49-4.87,7.03-7.63-1.05,2.84-1.98,5.27-2.85,7.72-.94,2.65-.02,4.94,1.61,6.99.45.56,1.22.87,1.65,1.16,4.26-11.68,11.64-20.39,21.68-27-.06.63-.34,1.12-.55,1.63-.82,1.99-1.76,3.95-2.37,6-.77,2.57.61,4.58,2.39,6.18,1.57,1.41,3.32.47,4.93-.2.93-.39,1.81-.91,3-1.52-.28.89-.51,1.42-.61,1.97-.46,2.46-1.21,4.91-1.28,7.38-.19,6.63,4.46,10.34,10.78,8.44,9.65-2.89,16.12-9.3,19.6-18.74.22-.59.38-1.2.58-1.81l5.62.88c-.46.81-.88,1.43-1.2,2.1-2.38,4.99-4.87,9.94-7.05,15.02-1.21,2.82.11,5.37,1.89,7.6.38.47,1.06.7,1.2.79.85-1.96,1.31-3.94,2.42-5.45,5.97-8.16,13.45-14.7,22.15-19.84.5-.3,1.08-.48,1.62-.72-.17.76-.51,1.22-.85,1.67-3.9,5.21-7.17,10.77-9.51,16.88-1.23,3.2-.66,6.03,1.19,8.77,1.02,1.51,2.37,2.05,3.9,1.19,2.13-1.18,4.13-2.61,6.15-3.98.74-.5,1.39-1.13,1.97-1.6.45,1.98.64,3.86,1.31,5.55,1.95,4.9,3.23,5.4,7.58,2.37,4.93-3.43,9.58-7.26,14.35-10.9.8-.61,1.61-1.18,2.42-1.77-1.79,4.6-3.83,8.91-6.03,13.14-.46.88-1.4,1.65-2.31,2.1-3.6,1.79-7.4,3.22-10.91,5.17-6.7,3.71-12.64,8.41-17.25,14.62-2.61,3.52-4.58,7.34-5.04,11.77-.54,5.25,3.11,8.84,8.27,7.76,2.63-.55,5.4-1.51,7.53-3.07,3.41-2.48,6.67-5.34,9.43-8.53,7.01-8.07,12.08-17.44,16.91-26.92.64-1.25,1.41-2,2.83-2.26,1.74-.32,3.44-.85,5.16-1.29l-.08-.72-5.92.33c1.72-3.62,3.05-7.15,5.02-10.28,1.05-1.67.64-2.71-.03-4.05-2.14-4.29-2.8-4.46-6.48-1.43-5.42,4.47-11.01,8.68-17.24,11.96-.73.38-1.52.65-2.68,1.14.23-.96.25-1.49.46-1.93,3.76-7.87,8.86-14.55,16.77-18.67,2.46-1.28,5.08-2.12,7.93-1.71,2.5.36,4.02,1.91,4.16,4.42.07,1.25-.17,2.51-.27,3.77.49-.55.86-1.18,1.05-1.87,1.14-4.04-1.48-8.32-6.07-9.86h0Zm-157.37,6.62l-.52-.64,10.52-8.64.57.68c-2.45,4.14-6.51,6.38-10.57,8.61h0Z"/>
  <path class="cls-2" d="m252.15,252.54s.05-.03.07-.05l-.04.08-.03-.04h0Z"/>
  <path class="cls-4" d="m267.19,228.88l-3.45,3.56c.75-2.44,2.13-3.81,3.45-3.56Z"/>
</svg>