<?xml version="1.0" encoding="UTF-8"?>
<svg id="Layer_2" data-name="Layer 2" xmlns="http://www.w3.org/2000/svg" xmlns:xlink="http://www.w3.org/1999/xlink" viewBox="0 0 183.53 183.52">
  <defs>
    <style>
      .cls-1 {
        fill: url(#linear-gradient);
      }

      .cls-2 {
        fill: url(#linear-gradient-2);
        opacity: .25;
      }
    </style>
    <linearGradient id="linear-gradient" x1="91.77" y1="0" x2="91.77" y2="183.52" gradientUnits="userSpaceOnUse">
      <stop offset="0" stop-color="#b000f2"/>
      <stop offset="1" stop-color="#ff5d00"/>
    </linearGradient>
    <linearGradient id="linear-gradient-2" x1="98.91" y1="39.75" x2="98.91" y2="143.76" xlink:href="#linear-gradient"/>
  </defs>
  <g id="Layer_1-2" data-name="Layer 1">
    <g>
      <path class="cls-1" d="m156.66,26.87C140.05,10.27,117.11,0,91.77,0S43.49,10.27,26.88,26.87C10.27,43.48,0,66.42,0,91.76c0,50.68,41.09,91.76,91.77,91.76,25.34,0,48.28-10.27,64.89-26.87,16.6-16.61,26.87-39.55,26.87-64.89s-10.27-48.28-26.87-64.89Zm-29.52,72.5l-41.24,41.24c-2.04,2.03-4.74,3.15-7.61,3.15s-5.58-1.12-7.61-3.15c-2.03-2.03-3.15-4.73-3.15-7.6s1.12-5.58,3.15-7.61l33.64-33.64-33.64-33.64c-2.03-2.03-3.15-4.74-3.15-7.61s1.12-5.58,3.15-7.61c2.03-2.03,4.73-3.15,7.61-3.15s5.57,1.12,7.61,3.15l41.24,41.25c2.03,2.03,3.15,4.73,3.15,7.61s-1.12,5.57-3.15,7.61Z"/>
      <path class="cls-2" d="m130.29,91.76c0,2.87-1.12,5.57-3.15,7.61l-41.24,41.24c-2.04,2.03-4.74,3.15-7.61,3.15s-5.58-1.12-7.61-3.15c-2.03-2.03-3.15-4.73-3.15-7.6s1.12-5.58,3.15-7.61l33.64-33.64-33.64-33.64c-2.03-2.03-3.15-4.74-3.15-7.61s1.12-5.58,3.15-7.61c2.03-2.03,4.73-3.15,7.61-3.15s5.57,1.12,7.61,3.15l41.24,41.25c2.03,2.03,3.15,4.73,3.15,7.61Z"/>
    </g>
  </g>
</svg>