<?xml version="1.0" encoding="UTF-8"?>
<svg id="Layer_2" data-name="Layer 2" xmlns="http://www.w3.org/2000/svg" xmlns:xlink="http://www.w3.org/1999/xlink" viewBox="0 0 183.53 183.52">
  <defs>
    <style>
      .cls-1 {
        fill: #fff;
      }

      .cls-2 {
        fill: url(#linear-gradient-2);
        isolation: isolate;
        opacity: .25;
      }

      .cls-3 {
        fill: url(#linear-gradient);
      }
    </style>
    <linearGradient id="linear-gradient" x1="-195.24" y1="-394.39" x2="-195.24" y2="-788.27" gradientTransform="translate(287 -555.9) scale(1 -1)" gradientUnits="userSpaceOnUse">
      <stop offset="0" stop-color="#b000f2"/>
      <stop offset="1" stop-color="#ff5d00"/>
    </linearGradient>
    <linearGradient id="linear-gradient-2" x1="-195.23" y1="-589.83" x2="-195.23" y2="-705.51" xlink:href="#linear-gradient"/>
  </defs>
  <g id="Layer_3" data-name="Layer 3">
    <g id="Layer_1-2" data-name="Layer 1-2">
      <g>
        <path class="cls-3" d="m156.66,26.87C140.05,10.27,117.11,0,91.77,0S43.49,10.27,26.88,26.87C10.27,43.48,0,66.42,0,91.76c0,50.68,41.09,91.76,91.77,91.76,25.34,0,48.28-10.27,64.89-26.87,16.6-16.61,26.87-39.55,26.87-64.89s-10.27-48.28-26.87-64.89Zm-9.34,109.38c3.05,3.05,3.05,8.01,0,11.06s-8.01,3.05-11.06,0l-44.49-44.49-44.49,44.49c-3.06,3.06-8.01,3.05-11.06,0-3.05-3.06-3.05-8,0-11.06l44.49-44.49-44.49-44.49c-3.05-3.06-3.05-8,0-11.06,3.05-3.04,8-3.05,11.06,0l44.49,44.5,44.49-44.5c3.05-3.04,8-3.05,11.06,0,3.05,3.05,3.05,8.01,0,11.06l-44.5,44.49,44.5,44.49Z"/>
        <path class="cls-2" d="m147.32,136.25c3.05,3.05,3.05,8.01,0,11.06s-8.01,3.05-11.06,0l-44.49-44.49-44.49,44.49c-3.06,3.06-8.01,3.05-11.06,0-3.05-3.06-3.05-8,0-11.06l44.49-44.49-44.49-44.49c-3.05-3.06-3.05-8,0-11.06,3.05-3.04,8-3.05,11.06,0l44.49,44.5,44.49-44.5c3.05-3.04,8-3.05,11.06,0,3.05,3.05,3.05,8.01,0,11.06l-44.5,44.49,44.5,44.49Z"/>
      </g>
    </g>
    <path class="cls-1" d="m91.77,3.5c23.57,0,45.74,9.18,62.41,25.84,16.67,16.68,25.85,38.84,25.85,62.42s-9.18,45.74-25.84,62.41c-16.68,16.67-38.84,25.85-62.42,25.85-48.67,0-88.27-39.59-88.27-88.26,0-23.58,9.18-45.74,25.85-62.41C46.03,12.68,68.2,3.5,91.77,3.5m0,72.26l-42.02-42.03c-2.14-2.13-4.98-3.3-8-3.3s-5.86,1.17-8.01,3.31c-4.4,4.41-4.4,11.59,0,16.01l42.02,42.02-42.02,42.02c-4.4,4.41-4.4,11.59,0,16.01,2.14,2.14,4.98,3.32,8.01,3.32s5.86-1.18,8-3.32l42.02-42.02,42.02,42.02c2.14,2.14,4.98,3.32,8.01,3.32s5.87-1.18,8-3.32,3.31-4.98,3.31-8-1.18-5.87-3.31-8.01l-42.02-42.01,42.02-42.02c2.14-2.14,3.31-4.98,3.31-8s-1.18-5.87-3.32-8.01c-2.14-2.13-4.98-3.3-8-3.3-3.02,0-5.86,1.17-8.01,3.31l-42.01,42.02M91.77,0C66.43,0,43.49,10.27,26.88,26.87,10.27,43.48,0,66.42,0,91.76,0,142.44,41.09,183.52,91.77,183.52c25.34,0,48.28-10.27,64.89-26.87,16.6-16.61,26.87-39.55,26.87-64.89s-10.27-48.28-26.87-64.89C140.05,10.27,117.11,0,91.77,0h0Zm0,80.71l44.49-44.5c1.53-1.52,3.53-2.28,5.53-2.28,2,0,4,.76,5.53,2.28,3.05,3.05,3.05,8.01,0,11.06l-44.5,44.49,44.5,44.49c3.05,3.05,3.05,8.01,0,11.06-1.53,1.53-3.53,2.29-5.53,2.29s-4-.76-5.53-2.29l-44.49-44.49-44.49,44.49c-1.53,1.53-3.53,2.29-5.53,2.29s-4-.76-5.53-2.29c-3.05-3.06-3.05-8,0-11.06l44.49-44.49-44.49-44.49c-3.05-3.06-3.05-8,0-11.06,1.53-1.52,3.53-2.28,5.53-2.28s4,.76,5.53,2.28l44.49,44.5h0Z"/>
  </g>
</svg>