<?xml version="1.0" encoding="UTF-8"?>
<svg id="Layer_2" data-name="Layer 2" xmlns="http://www.w3.org/2000/svg" xmlns:xlink="http://www.w3.org/1999/xlink" viewBox="0 0 183.53 183.52">
  <defs>
    <style>
      .cls-1 {
        fill: url(#linear-gradient);
      }

      .cls-2 {
        fill: url(#linear-gradient-2);
        opacity: .25;
      }
    </style>
    <linearGradient id="linear-gradient" x1="91.77" y1="-161.51" x2="91.77" y2="232.37" gradientUnits="userSpaceOnUse">
      <stop offset="0" stop-color="#b000f2"/>
      <stop offset="1" stop-color="#ff5d00"/>
    </linearGradient>
    <linearGradient id="linear-gradient-2" x1="91.77" y1="33.93" x2="91.77" y2="149.6" xlink:href="#linear-gradient"/>
  </defs>
  <g id="Layer_1-2" data-name="Layer 1">
    <g>
      <path class="cls-1" d="m156.66,26.87C140.05,10.27,117.11,0,91.77,0S43.49,10.27,26.88,26.87C10.27,43.48,0,66.42,0,91.76c0,50.68,41.09,91.76,91.77,91.76,25.34,0,48.28-10.27,64.89-26.87,16.6-16.61,26.87-39.55,26.87-64.89s-10.27-48.28-26.87-64.89Zm-9.34,109.38c3.05,3.05,3.05,8.01,0,11.06-3.06,3.06-8.01,3.05-11.06,0l-44.49-44.49-44.49,44.49c-3.06,3.06-8.01,3.05-11.06,0-3.05-3.06-3.05-8,0-11.06l44.49-44.49-44.49-44.49c-3.05-3.06-3.05-8,0-11.06,3.05-3.04,8-3.05,11.06,0l44.49,44.5,44.49-44.5c3.05-3.04,8-3.05,11.06,0,3.05,3.05,3.05,8.01,0,11.06l-44.5,44.49,44.5,44.49Z"/>
      <path class="cls-2" d="m147.32,136.25c3.05,3.05,3.05,8.01,0,11.06-3.06,3.06-8.01,3.05-11.06,0l-44.49-44.49-44.49,44.49c-3.06,3.06-8.01,3.05-11.06,0-3.05-3.06-3.05-8,0-11.06l44.49-44.49-44.49-44.49c-3.05-3.06-3.05-8,0-11.06,3.05-3.04,8-3.05,11.06,0l44.49,44.5,44.49-44.5c3.05-3.04,8-3.05,11.06,0,3.05,3.05,3.05,8.01,0,11.06l-44.5,44.49,44.5,44.49Z"/>
    </g>
  </g>
</svg>