<?xml version="1.0" encoding="UTF-8"?>
<svg id="Layer_2" data-name="Layer 2" xmlns="http://www.w3.org/2000/svg" xmlns:xlink="http://www.w3.org/1999/xlink" viewBox="0 0 300.63 271.79">
  <defs>
    <style>
      .cls-1 {
        fill: url(#linear-gradient);
      }
    </style>
    <linearGradient id="linear-gradient" x1="10.01" y1="263.16" x2="287.56" y2="-14.4" gradientUnits="userSpaceOnUse">
      <stop offset="0" stop-color="#b000f2"/>
      <stop offset="1" stop-color="#ff5d00"/>
    </linearGradient>
  </defs>
  <g id="Layer_1-2" data-name="Layer 1">
    <path class="cls-1" d="m275.55,164.88c.11-.29.2-.58.27-.88.19-.75,18.85-75.09,23.57-94.58,2.44-10.07,1.26-17.71-3.5-22.69-4.21-4.4-10.13-5.34-14.35-4.8H76.3c-1.75-7.48-3.06-13.18-3.74-16.28C67.57,2.88,51.36-.97,42.73.18H8.5C3.81.18,0,3.99,0,8.68s3.81,8.5,8.5,8.5h34.88c.52,0,1.04-.05,1.55-.14.33-.06,8.04-1.33,11.02,12.24,4.73,21.6,38.84,163.48,40.29,169.51.14.6.36,1.19.63,1.74.56,1.14,1.35,2.42,2.38,3.75-12.23,5.56-20.75,17.89-20.75,32.17,0,19.48,15.85,35.33,35.33,35.33s35.33-15.85,35.33-35.33c0-6.71-1.88-12.98-5.14-18.33h80.55c-3.26,5.35-5.14,11.62-5.14,18.33,0,19.48,15.85,35.33,35.33,35.33s35.33-15.85,35.33-35.33-15.85-35.33-35.33-35.33h-123.43c-12.35,0-17.49-5.68-18.88-7.61-.56-2.33-1.84-7.66-3.61-15.04h145.92c12.44,0,18.92-8.55,20.79-13.6Zm-20.79-3.4h-36.36l2.23-30.83h46.02c-3.5,14-6.36,25.38-7.12,28.42-.52.92-1.83,2.41-4.77,2.41Zm-159.52-39.76c-2.13-8.89-4.29-17.97-6.41-26.84h56.54l2.2,26.78h-51.72c-.21,0-.41.03-.61.06Zm59.16-26.84h59.79l-1.94,26.78h-55.66l-2.2-26.78Zm-.74-9l-2.21-26.95h65.34l-1.95,26.95h-61.18Zm57.94,44.78l-2.23,30.83h-49.51l-2.53-30.83h54.27Zm57.3-9h-47.62l1.94-26.78h52.37c-2.15,8.63-4.48,17.96-6.68,26.78Zm13.28-62.73c.46,0,.92-.04,1.37-.11.14.89.22,2.87-.69,6.6-1.08,4.45-2.89,11.79-5.04,20.46h-53.96l1.95-26.95h56.37Zm-139.76,0l2.21,26.95h-57.94c-2.28-9.57-4.45-18.73-6.4-26.95h62.13Zm-28.6,195.87c-10.11,0-18.33-8.22-18.33-18.33s8.22-18.33,18.33-18.33,18.33,8.22,18.33,18.33-8.22,18.33-18.33,18.33Zm159.27-18.33c0,10.11-8.22,18.33-18.33,18.33s-18.33-8.22-18.33-18.33,8.22-18.33,18.33-18.33,18.33,8.22,18.33,18.33Zm-175.71-105.81h50.93l2.53,30.83h-46.07c-2.21-9.23-4.74-19.77-7.38-30.83Z"/>
  </g>
</svg>