<?xml version="1.0" encoding="UTF-8"?>
<svg id="Layer_2" data-name="Layer 2" xmlns="http://www.w3.org/2000/svg" viewBox="0 0 30.47 30.47">
  <defs>
    <style>
      .cls-1 {
        fill: #fff;
      }
    </style>
  </defs>
  <g id="Layer_1-2" data-name="Layer 1">
    <g>
      <path class="cls-1" d="m2.31,4.62c-1.27,0-2.31-1.04-2.31-2.31S1.04,0,2.31,0h25.85c1.27,0,2.31,1.04,2.31,2.31s-1.04,2.31-2.31,2.31H2.31Z"/>
      <path class="cls-1" d="m2.31,17.55c-1.27,0-2.31-1.04-2.31-2.31s1.04-2.31,2.31-2.31h25.85c1.27,0,2.31,1.04,2.31,2.31s-1.04,2.31-2.31,2.31H2.31Z"/>
      <path class="cls-1" d="m2.31,30.47c-1.27,0-2.31-1.04-2.31-2.31s1.04-2.31,2.31-2.31h25.85c1.27,0,2.31,1.04,2.31,2.31s-1.04,2.31-2.31,2.31H2.31Z"/>
    </g>
  </g>
</svg>