<?xml version="1.0" encoding="UTF-8"?>
<svg id="Layer_2" data-name="Layer 2" xmlns="http://www.w3.org/2000/svg" viewBox="0 0 303.78 212.59">
  <defs>
    <style>
      .cls-1, .cls-2 {
        fill: #fff;
      }

      .cls-2 {
        opacity: .25;
      }
    </style>
  </defs>
  <g id="Layer_1-2" data-name="Layer 1">
    <g id="g5360">
      <g id="g4167">
        <path id="path4156" class="cls-1" d="m297.4,33.21c-3.38-12.95-13.69-23.26-26.64-26.64C246.93,0,151.8,0,151.8,0c0,0-94.95,0-118.78,6.19-12.76,3.57-23.26,14.07-26.83,27.02C0,57.04,0,106.39,0,106.39c0,0,0,49.54,6.19,72.99,3.57,12.95,13.89,23.27,26.83,26.83,24.02,6.38,118.78,6.38,118.78,6.38,0,0,95.13,0,118.96-6.19,12.95-3.56,23.26-13.7,26.64-26.83,6.38-23.64,6.38-72.99,6.38-72.99,0,0,.19-49.54-6.38-73.37Zm-175.81,118.59V60.8l78.99,45.59-78.99,45.41Z"/>
        <polygon class="cls-2" points="200.58 106.39 121.59 151.8 121.59 60.8 200.58 106.39"/>
      </g>
    </g>
  </g>
</svg>