<?xml version="1.0" encoding="UTF-8"?>
<svg id="Layer_2" data-name="Layer 2" xmlns="http://www.w3.org/2000/svg" viewBox="0 0 50.26 50.25">
  <defs>
    <style>
      .cls-1 {
        fill: #fff;
      }
    </style>
  </defs>
  <g id="Layer_1-2" data-name="Layer 1">
    <g>
      <path class="cls-1" d="m8.67,1.32c-1.65.64-3.05,1.5-4.45,2.9-1.4,1.39-2.26,2.8-2.9,4.44-.62,1.59-1.04,3.42-1.16,6.1-.12,2.68-.15,3.53-.15,10.36s.03,7.68.15,10.36c.12,2.68.55,4.5,1.16,6.1.64,1.65,1.5,3.05,2.9,4.45,1.4,1.4,2.8,2.26,4.45,2.9,1.59.62,3.42,1.04,6.1,1.16,2.68.12,3.53.15,10.36.15s7.68-.03,10.36-.15c2.68-.12,4.5-.55,6.1-1.16,1.65-.64,3.05-1.5,4.45-2.9,1.4-1.4,2.26-2.8,2.9-4.45.62-1.59,1.04-3.42,1.16-6.1.12-2.68.15-3.53.15-10.36s-.03-7.68-.15-10.36c-.12-2.68-.55-4.5-1.16-6.1-.64-1.64-1.5-3.05-2.89-4.44-1.4-1.4-2.8-2.26-4.45-2.9-1.59-.62-3.42-1.04-6.1-1.16-2.68-.12-3.53-.15-10.36-.15s-7.68.03-10.36.15c-2.69.11-4.52.54-6.11,1.16Zm26.61,3.35c2.45.11,3.78.52,4.67.87,1.17.46,2.01,1,2.89,1.88.88.88,1.42,1.72,1.88,2.89.35.89.76,2.22.87,4.67.12,2.65.14,3.44.14,10.15s-.03,7.51-.14,10.15c-.11,2.45-.52,3.78-.87,4.67-.46,1.17-1,2.01-1.88,2.89-.88.88-1.72,1.42-2.89,1.88-.89.35-2.22.76-4.67.87-2.65.12-3.44.14-10.15.14s-7.51-.03-10.15-.14c-2.45-.11-3.78-.52-4.67-.87-1.17-.46-2.01-1-2.89-1.88-.88-.88-1.42-1.72-1.88-2.89-.35-.89-.76-2.22-.87-4.67-.12-2.65-.14-3.44-.14-10.15s.03-7.51.14-10.15c.11-2.45.52-3.78.87-4.67.46-1.17,1-2.01,1.88-2.89.88-.88,1.72-1.42,2.89-1.88.89-.35,2.22-.76,4.67-.87,2.65-.12,3.44-.14,10.15-.14s7.51.02,10.15.14Z"/>
      <path class="cls-1" d="m12.23,25.13c0,7.13,5.78,12.9,12.9,12.9s12.9-5.78,12.9-12.9-5.77-12.9-12.9-12.9-12.9,5.77-12.9,12.9Zm21.28,0c0,4.63-3.75,8.38-8.38,8.38s-8.38-3.75-8.38-8.38,3.75-8.38,8.38-8.38,8.38,3.75,8.38,8.38Z"/>
      <circle class="cls-1" cx="38.55" cy="11.72" r="3.01"/>
    </g>
  </g>
</svg>