<?xml version="1.0" encoding="UTF-8"?>
<svg id="Layer_2" data-name="Layer 2" xmlns="http://www.w3.org/2000/svg" xmlns:xlink="http://www.w3.org/1999/xlink" viewBox="0 0 212.64 212.6">
  <defs>
    <style>
      .cls-1 {
        fill: url(#linear-gradient-5);
      }

      .cls-2 {
        fill: url(#linear-gradient-4);
      }

      .cls-2, .cls-3 {
        opacity: .25;
      }

      .cls-4 {
        fill: url(#linear-gradient-3);
      }

      .cls-5 {
        fill: url(#linear-gradient);
      }

      .cls-3 {
        fill: url(#linear-gradient-2);
      }
    </style>
    <linearGradient id="linear-gradient" x1="106.32" y1="-34.19" x2="106.32" y2="277.54" gradientUnits="userSpaceOnUse">
      <stop offset="0" stop-color="#b000f2"/>
      <stop offset="1" stop-color="#ff5d00"/>
    </linearGradient>
    <linearGradient id="linear-gradient-2" x1="106.32" y1="19.15" x2="106.32" y2="193.49" xlink:href="#linear-gradient"/>
    <linearGradient id="linear-gradient-3" x1="106.32" y1="-34.18" x2="106.32" y2="277.54" xlink:href="#linear-gradient"/>
    <linearGradient id="linear-gradient-4" x1="106.32" y1="70.88" x2="106.32" y2="141.76" xlink:href="#linear-gradient"/>
    <linearGradient id="linear-gradient-5" x1="163.11" y1="-34.19" x2="163.11" y2="277.54" xlink:href="#linear-gradient"/>
  </defs>
  <g id="Layer_1-2" data-name="Layer 1">
    <g>
      <path class="cls-5" d="m211.99,62.45c-.52-11.32-2.33-19.06-4.92-25.8-2.73-6.96-6.36-12.92-12.23-18.8-5.93-5.92-11.85-9.55-18.85-12.27-6.74-2.64-14.48-4.41-25.8-4.93s-14.95-.65-43.83-.65-32.5.13-43.82.65c-11.37.48-19.1,2.29-25.84,4.93-7.01,2.72-12.93,6.35-18.85,12.27-5.92,5.88-9.55,11.84-12.27,18.8-2.64,6.74-4.41,14.48-4.93,25.8-.52,11.33-.65,14.96-.65,43.83s.13,32.5.65,43.82c.52,11.33,2.33,19.06,4.93,25.8,2.72,7.01,6.35,12.93,12.27,18.85,5.92,5.92,11.84,9.55,18.85,12.27,6.74,2.64,14.47,4.41,25.8,4.93,11.32.52,14.95.65,43.82.65s32.5-.13,43.83-.65c11.32-.52,19.06-2.33,25.8-4.93,7-2.72,12.92-6.35,18.84-12.27,5.92-5.92,9.55-11.84,12.28-18.85,2.63-6.74,4.4-14.47,4.92-25.8.52-11.32.65-14.95.65-43.82s-.13-32.5-.65-43.83Zm-19.1,86.83c-.48,10.37-2.2,15.99-3.67,19.75-1.95,4.97-4.24,8.52-7.96,12.23-3.71,3.72-7.26,6.01-12.23,7.96-3.76,1.47-9.38,3.19-19.75,3.67-11.19.52-14.56.6-42.96.6s-31.76-.12-42.96-.6c-10.37-.48-15.99-2.2-19.75-3.67-4.97-1.95-8.51-4.24-12.23-7.96-3.72-3.71-6.01-7.26-7.95-12.23-1.47-3.76-3.2-9.38-3.68-19.75-.52-11.19-.6-14.56-.6-42.96s.13-31.76.6-42.96c.48-10.37,2.21-15.99,3.68-19.75,1.94-4.97,4.23-8.51,7.95-12.23,3.72-3.72,7.26-6.01,12.23-7.95,3.76-1.47,9.38-3.2,19.75-3.68,11.2-.52,14.57-.6,42.96-.6s31.77.08,42.96.6c10.37.48,15.99,2.21,19.75,3.68,4.97,1.94,8.52,4.23,12.23,7.95,3.72,3.72,6.01,7.26,7.96,12.23,1.47,3.76,3.19,9.38,3.67,19.75.52,11.2.61,14.57.61,42.96s-.13,31.77-.61,42.96Z"/>
      <path class="cls-3" d="m192.89,63.36c-.48-10.37-2.2-15.99-3.67-19.75-1.95-4.97-4.24-8.51-7.96-12.23-3.71-3.72-7.26-6.01-12.23-7.95-3.76-1.47-9.38-3.2-19.75-3.68-11.19-.52-14.56-.6-42.96-.6s-31.76.08-42.96.6c-10.37.48-15.99,2.21-19.75,3.68-4.97,1.94-8.51,4.23-12.23,7.95-3.72,3.72-6.01,7.26-7.95,12.23-1.47,3.76-3.2,9.38-3.68,19.75-.47,11.2-.6,14.57-.6,42.96s.08,31.77.6,42.96c.48,10.37,2.21,15.99,3.68,19.75,1.94,4.97,4.23,8.52,7.95,12.23,3.72,3.72,7.26,6.01,12.23,7.96,3.76,1.47,9.38,3.19,19.75,3.67,11.2.48,14.57.6,42.96.6s31.77-.08,42.96-.6c10.37-.48,15.99-2.2,19.75-3.67,4.97-1.95,8.52-4.24,12.23-7.96,3.72-3.71,6.01-7.26,7.96-12.23,1.47-3.76,3.19-9.38,3.67-19.75.48-11.19.61-14.56.61-42.96s-.09-31.76-.61-42.96Zm-86.57,97.55c-30.12,0-54.58-24.42-54.58-54.59s24.41-54.58,54.58-54.58,54.59,24.46,54.59,54.58-24.46,54.59-54.59,54.59Zm56.79-98.59c-7.04,0-12.75-5.7-12.75-12.75s5.71-12.75,12.75-12.75,12.75,5.71,12.75,12.75-5.71,12.75-12.75,12.75Z"/>
      <path class="cls-4" d="m106.32,51.74c-30.17,0-54.58,24.41-54.58,54.58s24.46,54.59,54.58,54.59,54.59-24.46,54.59-54.59-24.42-54.58-54.59-54.58Zm0,90.02c-19.58,0-35.44-15.86-35.44-35.44s15.86-35.44,35.44-35.44,35.44,15.86,35.44,35.44-15.86,35.44-35.44,35.44Z"/>
      <circle class="cls-2" cx="106.32" cy="106.32" r="35.44"/>
      <circle class="cls-1" cx="163.11" cy="49.57" r="12.75"/>
    </g>
  </g>
</svg>