<?xml version="1.0" encoding="UTF-8"?>
<svg id="Layer_2" data-name="Layer 2" xmlns="http://www.w3.org/2000/svg" xmlns:xlink="http://www.w3.org/1999/xlink" viewBox="0 0 61.83 50.24">
  <defs>
    <style>
      .cls-1 {
        fill: url(#linear-gradient);
      }
    </style>
    <linearGradient id="linear-gradient" x1="30.92" y1="-8.09" x2="30.92" y2="65.59" gradientUnits="userSpaceOnUse">
      <stop offset="0" stop-color="#b000f2"/>
      <stop offset="1" stop-color="#ff5d00"/>
    </linearGradient>
  </defs>
  <g id="Layer_1-2" data-name="Layer 1">
    <path class="cls-1" d="m61.83,5.94c-2.27,1.01-4.72,1.69-7.29,2,2.62-1.57,4.63-4.06,5.58-7.02-2.45,1.46-5.16,2.51-8.05,3.08-2.32-2.46-5.61-4-9.26-4-7.01,0-12.69,5.67-12.69,12.68,0,.99.11,1.96.33,2.89-10.54-.53-19.89-5.58-26.15-13.25-1.09,1.87-1.71,4.05-1.71,6.37,0,4.41,2.24,8.29,5.64,10.56-2.08-.06-4.04-.63-5.75-1.58v.16c0,6.14,4.38,11.27,10.18,12.43-1.07.29-2.19.45-3.34.45-.82,0-1.62-.08-2.39-.23,1.61,5.04,6.3,8.71,11.85,8.81-4.34,3.4-9.81,5.43-15.75,5.43-1.03,0-2.04-.06-3.03-.18,5.61,3.6,12.28,5.7,19.44,5.7,23.34,0,36.1-19.33,36.1-36.09,0-.55-.02-1.1-.04-1.64,2.48-1.79,4.63-4.02,6.33-6.57Z"/>
  </g>
</svg>