<?xml version="1.0" encoding="UTF-8"?>
<svg id="Layer_2" data-name="Layer 2" xmlns="http://www.w3.org/2000/svg" xmlns:xlink="http://www.w3.org/1999/xlink" viewBox="0 0 504.2 403.58">
  <defs>
    <style>
      .cls-1 {
        fill: url(#linear-gradient-2);
      }

      .cls-2 {
        fill: url(#linear-gradient-6);
      }

      .cls-3 {
        fill: url(#linear-gradient-5);
      }

      .cls-4 {
        fill: url(#linear-gradient-3);
        opacity: .25;
      }

      .cls-5 {
        fill: url(#linear-gradient);
      }

      .cls-6 {
        fill: url(#linear-gradient-4);
      }
    </style>
    <linearGradient id="linear-gradient" x1="141.01" y1="-98.47" x2="141.01" y2="511" gradientUnits="userSpaceOnUse">
      <stop offset="0" stop-color="#b000f2"/>
      <stop offset="1" stop-color="#ff5d00"/>
    </linearGradient>
    <linearGradient id="linear-gradient-2" x1="430.4" y1="-98.47" x2="430.4" y2="511" xlink:href="#linear-gradient"/>
    <linearGradient id="linear-gradient-3" x1="285.71" y1="-98.47" x2="285.71" y2="511" xlink:href="#linear-gradient"/>
    <linearGradient id="linear-gradient-4" x1="84.68" y1="-98.47" x2="84.68" y2="511" xlink:href="#linear-gradient"/>
    <linearGradient id="linear-gradient-5" x1="285.71" y1="-98.47" x2="285.71" y2="511" xlink:href="#linear-gradient"/>
    <linearGradient id="linear-gradient-6" x1="316.27" y1="-98.47" x2="316.27" y2="511" xlink:href="#linear-gradient"/>
  </defs>
  <g id="Layer_1-2" data-name="Layer 1">
    <g>
      <g>
        <g>
          <g>
            <path class="cls-5" d="m213.31,260.66l-32.74,23.49c-3.48-13.65-10.4-25.51-20.52-34.94-15.1-14.08-36.2-21.52-61.01-21.52-11.14,0-21.81,1.44-31.83,4.15v-74.84c0-2.92,3.3-4.62,5.68-2.92l140.42,100.75c2,1.43,2,4.4,0,5.83Z"/>
            <path class="cls-1" d="m504.2,157v201.49c0,2.92-3.31,4.62-5.68,2.92l-140.42-100.74c-2-1.43-2-4.4,0-5.83l140.42-100.75c2.37-1.7,5.68,0,5.68,2.92Z"/>
            <path class="cls-4" d="m489.64,143.46l-147.44,105.79-5.92,4.25-5.92,4.25-37.41,26.84c-4.32,3.1-10.14,3.1-14.47,0l-37.41-26.84-5.92-4.25-5.92-4.25-147.45-105.78h407.86Z"/>
          </g>
          <path class="cls-6" d="m101.47,349.49c-7.27,9.7-19.21,15.67-32.08,15.67-19.02,0-30.22-12.31-30.22-31.71,0-27.79,18.28-52.97,44.95-52.97,10.82,0,18.09,3.92,22.01,11.19l1.68-9.7h21.82l-8.77,50.36c-1.49,9.51-.75,15.48,7.65,15.48,14.18,0,20.52-23.5,20.52-41.22,0-30.03-19.02-47.38-52.78-47.38-43.83,0-75.73,34.13-75.73,78.15,0,30.96,19.21,48.12,52.6,48.12,10.82,0,22.38-2.05,31.89-6.53l3.73,17.16c-11.94,5.04-25.37,7.46-39.36,7.46-41.97,0-69.38-25.18-69.38-64.16,0-55.58,41.78-97.92,99.04-97.92,43.83,0,70.32,26.11,70.32,64.16,0,29.84-15.85,59.31-44.58,59.31-13.24,0-21.08-5.78-23.31-15.48Zm-15.67-49.61c-14.18,0-23.13,14.55-23.13,29.28,0,9.7,4.66,16.6,14.92,16.6,13.62,0,24.43-13.24,24.43-28.35,0-10.07-5.78-17.53-16.23-17.53Z"/>
        </g>
        <path class="cls-3" d="m81.78,143.46L229.22,37.66l5.92-4.25,5.92-4.25,37.41-26.84c4.32-3.1,10.14-3.1,14.47,0l37.41,26.84,5.92,4.25,5.92,4.25,147.45,105.78H81.78Z"/>
      </g>
      <path class="cls-2" d="m481.69,370.06c-.1.2-.22.4-.36.58-.62.82-1.61,1.39-2.85,1.39H150.47c4.96-2.85,9.52-6.56,13.58-11.09.74-.82,1.46-1.67,2.16-2.55.71-.87,1.39-1.77,2.06-2.7.33-.46.66-.93.99-1.41,8.97-13.18,13.91-30.44,13.91-48.62,0-2.11-.07-4.18-.2-6.23l44.16-31.69,2.09-1.5,5.92-4.24,5.92-4.26,37.41-26.84c4.33-3.1,10.15-3.1,14.47,0l37.41,26.84,5.93,4.26,5.92,4.25,1.85,1.33.05.04,77.47,55.58,59,42.33c.13.09.25.19.36.29.45.41.76.9.95,1.41.33.93.24,1.96-.19,2.83Z"/>
    </g>
  </g>
</svg>