<?xml version="1.0" encoding="UTF-8"?>
<svg id="Layer_2" data-name="Layer 2" xmlns="http://www.w3.org/2000/svg" viewBox="0 0 71.8 50.25">
  <defs>
    <style>
      .cls-1 {
        fill: #fff;
      }
    </style>
  </defs>
  <g id="Layer_1-2" data-name="Layer 1">
    <g id="g5360">
      <g id="g4167">
        <path id="path4156" class="cls-1" d="m35.88,0S13.44,0,7.81,1.46c-3.02.84-5.5,3.33-6.34,6.39C0,13.48,0,25.15,0,25.15c0,0,0,11.71,1.46,17.25.84,3.06,3.28,5.5,6.34,6.34,5.68,1.51,28.07,1.51,28.07,1.51,0,0,22.49,0,28.12-1.46,3.06-.84,5.5-3.24,6.3-6.34,1.51-5.59,1.51-17.25,1.51-17.25,0,0,.04-11.71-1.51-17.34-.8-3.06-3.24-5.5-6.3-6.3C58.36,0,35.88,0,35.88,0Zm-7.14,14.37l18.67,10.78-18.67,10.73V14.37h0Z"/>
      </g>
    </g>
  </g>
</svg>