<?xml version="1.0" encoding="UTF-8"?>
<svg id="Layer_2" data-name="Layer 2" xmlns="http://www.w3.org/2000/svg" xmlns:xlink="http://www.w3.org/1999/xlink" viewBox="0 0 465.99 537.95">
  <defs>
    <style>
      .cls-1 {
        fill: #ea453f;
      }

      .cls-2 {
        fill: #f45021;
      }

      .cls-3 {
        fill: url(#linear-gradient-2);
      }

      .cls-4 {
        fill: #f04b2f;
      }

      .cls-5 {
        fill: #e84245;
      }

      .cls-6 {
        fill: #cd229a;
      }

      .cls-7 {
        fill: #f24e28;
      }

      .cls-8 {
        fill: #d62c7f;
      }

      .cls-9 {
        fill: #c013c1;
      }

      .cls-10 {
        fill: #f24e27;
      }

      .cls-11 {
        fill: #df3762;
      }

      .cls-12 {
        fill: #d62d7e;
      }

      .cls-13 {
        fill: #d42a85;
      }

      .cls-14 {
        fill: #db326f;
      }

      .cls-15 {
        fill: #d32988;
      }

      .cls-16 {
        fill: #d72e7b;
      }

      .cls-17 {
        fill: #e23b57;
      }

      .cls-18 {
        fill: #c418b5;
      }

      .cls-19 {
        fill: #ca1fa2;
      }

      .cls-20 {
        fill: #e23b59;
      }

      .cls-21 {
        fill: #c81caa;
      }

      .cls-22 {
        fill: #f24d29;
      }

      .cls-23 {
        fill: #f34f25;
      }

      .cls-24 {
        fill: #ee4935;
      }

      .cls-25 {
        fill: #de3666;
      }

      .cls-26 {
        fill: #f5511f;
      }

      .cls-27 {
        fill: #dc346a;
      }

      .cls-28 {
        fill: #e6404b;
      }

      .cls-29 {
        fill: #c619b0;
      }

      .cls-30 {
        fill: #e94344;
      }

      .cls-31 {
        fill: #e13a5b;
      }

      .cls-32 {
        fill: #cf2593;
      }

      .cls-33 {
        fill: #de3664;
      }

      .cls-34 {
        clip-path: url(#clippath-2);
      }

      .cls-35 {
        fill: #d93075;
      }

      .cls-36 {
        fill: #c91ea5;
      }

      .cls-37 {
        fill: #ee4933;
      }

      .cls-38 {
        fill: #f34f24;
      }

      .cls-39 {
        fill: #da3172;
      }

      .cls-40 {
        fill: #e13a5a;
      }

      .cls-41 {
        fill: #e63f4d;
      }

      .cls-42 {
        fill: #c61aae;
      }

      .cls-43 {
        fill: #e7404a;
      }

      .cls-44 {
        fill: #eb463c;
      }

      .cls-45 {
        fill: #c71bab;
      }

      .cls-46 {
        fill: #c215bb;
      }

      .cls-47 {
        fill: #c013c0;
      }

      .cls-48 {
        fill: #ef4a31;
      }

      .cls-49 {
        fill: #d52b82;
      }

      .cls-50 {
        fill: #e84247;
      }

      .cls-51 {
        fill: #dc336c;
      }

      .cls-52 {
        fill: #d2288b;
      }

      .cls-53 {
        fill: #d72e7c;
      }

      .cls-54 {
        fill: #e43d53;
      }

      .cls-55 {
        fill: #cc219c;
      }

      .cls-56 {
        fill: #ea4440;
      }

      .cls-57 {
        fill: #c418b4;
      }

      .cls-58 {
        fill: #d1278c;
      }

      .cls-59 {
        fill: #ce2398;
      }

      .cls-60 {
        fill: #d42b83;
      }

      .cls-61 {
        fill: #e43d52;
      }

      .cls-62 {
        fill: #d32a86;
      }

      .cls-63 {
        fill: #e74148;
      }

      .cls-64 {
        fill: #ce2397;
      }

      .cls-65 {
        fill: #de3665;
      }

      .cls-66 {
        fill: #d1278e;
      }

      .cls-67 {
        clip-path: url(#clippath-1);
      }

      .cls-68 {
        fill: #cc219d;
      }

      .cls-69 {
        clip-path: url(#clippath-4);
      }

      .cls-70 {
        fill: #e33c56;
      }

      .cls-71 {
        fill: #c81da8;
      }

      .cls-72 {
        fill: #c519b1;
      }

      .cls-73 {
        fill: #e1395c;
      }

      .cls-74 {
        fill: #e33c55;
      }

      .cls-75 {
        fill: #e23b58;
      }

      .cls-76 {
        fill: #da3171;
      }

      .cls-77 {
        fill: #f14c2b;
      }

      .cls-78 {
        fill: #e94442;
      }

      .cls-79 {
        fill: #dd3567;
      }

      .cls-80 {
        fill: #ef4a30;
      }

      .cls-81 {
        fill: #ee4934;
      }

      .cls-82 {
        fill: #d62d7d;
      }

      .cls-83 {
        fill: #f34e26;
      }

      .cls-84 {
        fill: #d93074;
      }

      .cls-85 {
        fill: #cd229b;
      }

      .cls-86 {
        fill: #e03860;
      }

      .cls-87 {
        fill: #ef4a32;
      }

      .cls-88 {
        fill: #e94343;
      }

      .cls-89 {
        fill: #df3763;
      }

      .cls-90 {
        fill: #c71bad;
      }

      .cls-91 {
        fill: #e0385f;
      }

      .cls-92 {
        fill: #ed4837;
      }

      .cls-93 {
        fill: #d72e7a;
      }

      .cls-94 {
        fill: #ea4441;
      }

      .cls-95 {
        fill: #d42a84;
      }

      .cls-96 {
        fill: #d02591;
      }

      .cls-97 {
        fill: #c61aaf;
      }

      .cls-98 {
        fill: #dc346b;
      }

      .cls-99 {
        fill: #e0395e;
      }

      .cls-100 {
        fill: #c417b6;
      }

      .cls-101 {
        fill: #f55120;
      }

      .cls-102 {
        fill: #f44f23;
      }

      .cls-103 {
        fill: #f14d2a;
      }

      .cls-104 {
        fill: #e53e50;
      }

      .cls-105 {
        fill: #e74149;
      }

      .cls-106 {
        fill: #e43e51;
      }

      .cls-107 {
        fill: #cd2299;
      }

      .cls-108 {
        fill: #c215bc;
      }

      .cls-109 {
        clip-path: url(#clippath);
      }

      .cls-110 {
        fill: #d02690;
      }

      .cls-111 {
        fill: #d52c81;
      }

      .cls-112 {
        fill: #e53f4e;
      }

      .cls-113 {
        fill: #ec473a;
      }

      .cls-114 {
        fill: #eb453e;
      }

      .cls-115 {
        fill: #d1278d;
      }

      .cls-116 {
        fill: #d0268f;
      }

      .cls-117 {
        fill: #ce2496;
      }

      .cls-118 {
        fill: none;
      }

      .cls-119 {
        fill: #eb453d;
      }

      .cls-120 {
        fill: #ce2495;
      }

      .cls-121 {
        fill: #df3861;
      }

      .cls-122 {
        fill: #ec4739;
      }

      .cls-123 {
        fill: #ed4738;
      }

      .cls-124 {
        fill: #dd3469;
      }

      .cls-125 {
        clip-path: url(#clippath-3);
      }

      .cls-126 {
        fill: #d32987;
      }

      .cls-127 {
        fill: #c519b2;
      }

      .cls-128 {
        fill: #ca1ea3;
      }

      .cls-129 {
        fill: #dd3568;
      }

      .cls-130 {
        fill: #c114bf;
      }

      .cls-131 {
        fill: #da3270;
      }

      .cls-132 {
        fill: #cf2494;
      }

      .cls-133 {
        fill: #c518b3;
      }

      .cls-134 {
        fill: #d52c80;
      }

      .cls-135 {
        fill: #d2288a;
      }

      .cls-136 {
        fill: #cf2592;
      }

      .cls-137 {
        fill: #f04c2d;
      }

      .cls-138 {
        fill: #d22989;
      }

      .cls-139 {
        fill: #c91da7;
      }

      .cls-140 {
        fill: #c71bac;
      }

      .cls-141 {
        fill: #c316b9;
      }

      .cls-142 {
        fill: #f45022;
      }

      .cls-143 {
        fill: #c114bd;
      }

      .cls-144 {
        fill: #f14c2c;
      }

      .cls-145 {
        fill: #e6404c;
      }

      .cls-146 {
        fill: #db336d;
      }

      .cls-147 {
        fill: #d93173;
      }

      .cls-148 {
        fill: #c114be;
      }

      .cls-149 {
        fill: #c91da6;
      }

      .cls-150 {
        fill: #d82f77;
      }

      .cls-151 {
        fill: #e33d54;
      }

      .cls-152 {
        fill: url(#linear-gradient);
      }

      .cls-153 {
        fill: #ca1ea4;
      }

      .cls-154 {
        fill: #c317b7;
      }

      .cls-155 {
        fill: #e53f4f;
      }

      .cls-156 {
        fill: #ec463b;
      }

      .cls-157 {
        fill: #f04b2e;
      }

      .cls-158 {
        fill: #d82f76;
      }

      .cls-159 {
        fill: #c216ba;
      }

      .cls-160 {
        fill: #db336e;
      }

      .cls-161 {
        fill: #c316b8;
      }

      .cls-162 {
        fill: #ed4836;
      }

      .cls-163 {
        fill: #d82f78;
      }

      .cls-164 {
        fill: #c81ca9;
      }

      .cls-165 {
        fill: #e84246;
      }

      .cls-166 {
        fill: #e1395d;
      }
    </style>
    <clipPath id="clippath">
      <path class="cls-118" d="m200.8,225.46v98.09l-14.78-2.92c-4.37-.86-8.84-1.3-13.3-1.3-5.69,0-11.37.71-16.88,2.11l-40.13,10.2c-2.54.65-5.08,1.45-7.52,2.38l-54.45,20.74v-129.3c0-5.15,4.17-9.32,9.32-9.32h128.42c5.15,0,9.32,4.17,9.32,9.32Z"/>
    </clipPath>
    <clipPath id="clippath-1">
      <path class="cls-118" d="m380.05,225.46v150.49l-32.76,19.77c.61-2.35.96-4.79,1.02-7.27l.18-7.11c.27-10.71-4.75-20.85-13.44-27.13l-2.12-1.53c-3.76-2.72-8.16-4.63-12.71-5.53l-87.23-17.24v-104.45c0-5.15,4.17-9.32,9.32-9.32h128.42c5.15,0,9.32,4.17,9.32,9.32Z"/>
    </clipPath>
    <clipPath id="clippath-2">
      <rect class="cls-118" x="30.86" y="120.89" width="169.94" height="81.17" rx="9.32" ry="9.32"/>
    </clipPath>
    <clipPath id="clippath-3">
      <rect class="cls-118" x="232.99" y="120.89" width="169.94" height="81.17" rx="9.32" ry="9.32"/>
    </clipPath>
    <clipPath id="clippath-4">
      <path class="cls-118" d="m443.07,362.34l-8.01.83c-2.31.24-4.53.99-6.52,2.18l-115.87,69.95c-8.24,4.98-17.68,7.61-27.31,7.61h0c-6.24,0-12.43-1.11-18.29-3.27l-59.88-22.09c-3.08-1.14-2.45-5.66.82-5.92l14.7-1.15,94.29-6.46c2.4-.16,4.74-.86,6.85-2.02h0c5.1-2.83,8.33-8.14,8.47-13.97l.18-7.11c.14-5.43-2.41-10.58-6.81-13.76l-2.12-1.53c-1.92-1.39-4.12-2.34-6.44-2.8l-134.2-26.52c-7.66-1.51-15.57-1.3-23.14.62l-40.13,10.2c-1.96.5-3.88,1.11-5.77,1.82l-97.81,37.26c-9.68,3.69-16.08,12.97-16.08,23.33v68.91c0,16.59,15.88,28.56,31.83,24.01l28.91-8.26c7.34-2.1,15.15-1.96,22.41.39l125.62,40.71c5.39,1.75,11.01,2.63,16.68,2.63h6.16c9.41,0,18.66-2.46,26.84-7.13l40.62-23.21c.08-.05.17-.1.25-.16l160.01-112.82c4.19-2.95,6.68-7.76,6.68-12.88h0c0-5.24-2.6-10.13-6.94-13.06l-5.53-3.73c-3.07-2.07-6.77-3-10.45-2.61Z"/>
    </clipPath>
    <linearGradient id="linear-gradient" x1="289.24" y1="-1.49" x2="289.24" y2="537.97" gradientUnits="userSpaceOnUse">
      <stop offset="0" stop-color="#b000f2"/>
      <stop offset="1" stop-color="#ff5d00"/>
    </linearGradient>
    <linearGradient id="linear-gradient-2" x1="144.55" y1="-1.49" x2="144.55" y2="537.97" xlink:href="#linear-gradient"/>
  </defs>
  <g id="Layer_1-2" data-name="Layer 1">
    <g>
      <g class="cls-109">
        <rect class="cls-68" x="53.74" y="216.14" width="147.06" height=".08"/>
        <rect class="cls-55" x="53.74" y="216.22" width="147.06" height="2.58"/>
        <rect class="cls-85" x="53.74" y="218.8" width="147.06" height="2.58"/>
        <rect class="cls-6" x="53.74" y="221.37" width="147.06" height="2.58"/>
        <rect class="cls-107" x="53.74" y="223.95" width="147.06" height="2.58"/>
        <rect class="cls-59" x="53.74" y="226.53" width="147.06" height="2.58"/>
        <rect class="cls-64" x="53.74" y="229.11" width="147.06" height="2.58"/>
        <rect class="cls-117" x="53.74" y="231.69" width="147.06" height="2.58"/>
        <rect class="cls-120" x="53.74" y="234.27" width="147.06" height="2.58"/>
        <rect class="cls-132" x="53.74" y="236.84" width="147.06" height="2.58"/>
        <rect class="cls-32" x="53.74" y="239.42" width="147.06" height="2.58"/>
        <rect class="cls-136" x="53.74" y="242" width="147.06" height="2.58"/>
        <rect class="cls-96" x="53.74" y="244.58" width="147.06" height="2.58"/>
        <rect class="cls-110" x="53.74" y="247.16" width="147.06" height="2.58"/>
        <rect class="cls-116" x="53.74" y="249.74" width="147.06" height="2.58"/>
        <rect class="cls-66" x="53.74" y="252.31" width="147.06" height="2.58"/>
        <rect class="cls-115" x="53.74" y="254.89" width="147.06" height="2.58"/>
        <rect class="cls-58" x="53.74" y="257.47" width="147.06" height="2.58"/>
        <rect class="cls-52" x="53.74" y="260.05" width="147.06" height="2.58"/>
        <rect class="cls-135" x="53.74" y="262.63" width="147.06" height="2.58"/>
        <rect class="cls-138" x="53.74" y="265.21" width="147.06" height="2.58"/>
        <rect class="cls-15" x="53.74" y="267.78" width="147.06" height="2.58"/>
        <rect class="cls-126" x="53.74" y="270.36" width="147.06" height="2.58"/>
        <rect class="cls-62" x="53.74" y="272.94" width="147.06" height="2.58"/>
        <rect class="cls-13" x="53.74" y="275.52" width="147.06" height="2.58"/>
        <rect class="cls-95" x="53.74" y="278.1" width="147.06" height="2.58"/>
        <rect class="cls-60" x="53.74" y="280.68" width="147.06" height="2.58"/>
        <rect class="cls-49" x="53.74" y="283.25" width="147.06" height="2.58"/>
        <rect class="cls-111" x="53.74" y="285.83" width="147.06" height="2.58"/>
        <rect class="cls-134" x="53.74" y="288.41" width="147.06" height="2.58"/>
        <rect class="cls-8" x="53.74" y="290.99" width="147.06" height="2.58"/>
        <rect class="cls-12" x="53.74" y="293.57" width="147.06" height="2.58"/>
        <rect class="cls-82" x="53.74" y="296.14" width="147.06" height="2.58"/>
        <rect class="cls-53" x="53.74" y="298.72" width="147.06" height="2.58"/>
        <rect class="cls-16" x="53.74" y="301.3" width="147.06" height="2.58"/>
        <rect class="cls-93" x="53.74" y="303.88" width="147.06" height="2.58"/>
        <rect class="cls-163" x="53.74" y="306.46" width="147.06" height="2.58"/>
        <rect class="cls-150" x="53.74" y="309.04" width="147.06" height="2.58"/>
        <rect class="cls-158" x="53.74" y="311.61" width="147.06" height="2.58"/>
        <rect class="cls-35" x="53.74" y="314.19" width="147.06" height="2.58"/>
        <rect class="cls-84" x="53.74" y="316.77" width="147.06" height="2.58"/>
        <rect class="cls-147" x="53.74" y="319.35" width="147.06" height="2.58"/>
        <rect class="cls-39" x="53.74" y="321.93" width="147.06" height="2.58"/>
        <rect class="cls-76" x="53.74" y="324.51" width="147.06" height="2.58"/>
        <rect class="cls-131" x="53.74" y="327.08" width="147.06" height="2.58"/>
        <rect class="cls-14" x="53.74" y="329.66" width="147.06" height="2.58"/>
        <rect class="cls-160" x="53.74" y="332.24" width="147.06" height="2.58"/>
        <rect class="cls-146" x="53.74" y="334.82" width="147.06" height="2.58"/>
        <rect class="cls-51" x="53.74" y="337.4" width="147.06" height="2.58"/>
        <rect class="cls-98" x="53.74" y="339.98" width="147.06" height="2.58"/>
        <rect class="cls-27" x="53.74" y="342.55" width="147.06" height="2.58"/>
        <rect class="cls-124" x="53.74" y="345.13" width="147.06" height="2.58"/>
        <rect class="cls-129" x="53.74" y="347.71" width="147.06" height="2.58"/>
        <rect class="cls-79" x="53.74" y="350.29" width="147.06" height="2.58"/>
        <rect class="cls-25" x="53.74" y="352.87" width="147.06" height="1.89"/>
      </g>
      <g class="cls-67">
        <rect class="cls-68" x="232.99" y="216.14" width="147.06" height=".08"/>
        <rect class="cls-55" x="232.99" y="216.22" width="147.06" height="2.58"/>
        <rect class="cls-85" x="232.99" y="218.8" width="147.06" height="2.58"/>
        <rect class="cls-6" x="232.99" y="221.37" width="147.06" height="2.58"/>
        <rect class="cls-107" x="232.99" y="223.95" width="147.06" height="2.58"/>
        <rect class="cls-59" x="232.99" y="226.53" width="147.06" height="2.58"/>
        <rect class="cls-64" x="232.99" y="229.11" width="147.06" height="2.58"/>
        <rect class="cls-117" x="232.99" y="231.69" width="147.06" height="2.58"/>
        <rect class="cls-120" x="232.99" y="234.27" width="147.06" height="2.58"/>
        <rect class="cls-132" x="232.99" y="236.84" width="147.06" height="2.58"/>
        <rect class="cls-32" x="232.99" y="239.42" width="147.06" height="2.58"/>
        <rect class="cls-136" x="232.99" y="242" width="147.06" height="2.58"/>
        <rect class="cls-96" x="232.99" y="244.58" width="147.06" height="2.58"/>
        <rect class="cls-110" x="232.99" y="247.16" width="147.06" height="2.58"/>
        <rect class="cls-116" x="232.99" y="249.74" width="147.06" height="2.58"/>
        <rect class="cls-66" x="232.99" y="252.31" width="147.06" height="2.58"/>
        <rect class="cls-115" x="232.99" y="254.89" width="147.06" height="2.58"/>
        <rect class="cls-58" x="232.99" y="257.47" width="147.06" height="2.58"/>
        <rect class="cls-52" x="232.99" y="260.05" width="147.06" height="2.58"/>
        <rect class="cls-135" x="232.99" y="262.63" width="147.06" height="2.58"/>
        <rect class="cls-138" x="232.99" y="265.21" width="147.06" height="2.58"/>
        <rect class="cls-15" x="232.99" y="267.78" width="147.06" height="2.58"/>
        <rect class="cls-126" x="232.99" y="270.36" width="147.06" height="2.58"/>
        <rect class="cls-62" x="232.99" y="272.94" width="147.06" height="2.58"/>
        <rect class="cls-13" x="232.99" y="275.52" width="147.06" height="2.58"/>
        <rect class="cls-95" x="232.99" y="278.1" width="147.06" height="2.58"/>
        <rect class="cls-60" x="232.99" y="280.68" width="147.06" height="2.58"/>
        <rect class="cls-49" x="232.99" y="283.25" width="147.06" height="2.58"/>
        <rect class="cls-111" x="232.99" y="285.83" width="147.06" height="2.58"/>
        <rect class="cls-134" x="232.99" y="288.41" width="147.06" height="2.58"/>
        <rect class="cls-8" x="232.99" y="290.99" width="147.06" height="2.58"/>
        <rect class="cls-12" x="232.99" y="293.57" width="147.06" height="2.58"/>
        <rect class="cls-82" x="232.99" y="296.14" width="147.06" height="2.58"/>
        <rect class="cls-53" x="232.99" y="298.72" width="147.06" height="2.58"/>
        <rect class="cls-16" x="232.99" y="301.3" width="147.06" height="2.58"/>
        <rect class="cls-93" x="232.99" y="303.88" width="147.06" height="2.58"/>
        <rect class="cls-163" x="232.99" y="306.46" width="147.06" height="2.58"/>
        <rect class="cls-150" x="232.99" y="309.04" width="147.06" height="2.58"/>
        <rect class="cls-158" x="232.99" y="311.61" width="147.06" height="2.58"/>
        <rect class="cls-35" x="232.99" y="314.19" width="147.06" height="2.58"/>
        <rect class="cls-84" x="232.99" y="316.77" width="147.06" height="2.58"/>
        <rect class="cls-147" x="232.99" y="319.35" width="147.06" height="2.58"/>
        <rect class="cls-39" x="232.99" y="321.93" width="147.06" height="2.58"/>
        <rect class="cls-76" x="232.99" y="324.51" width="147.06" height="2.58"/>
        <rect class="cls-131" x="232.99" y="327.08" width="147.06" height="2.58"/>
        <rect class="cls-14" x="232.99" y="329.66" width="147.06" height="2.58"/>
        <rect class="cls-160" x="232.99" y="332.24" width="147.06" height="2.58"/>
        <rect class="cls-146" x="232.99" y="334.82" width="147.06" height="2.58"/>
        <rect class="cls-51" x="232.99" y="337.4" width="147.06" height="2.58"/>
        <rect class="cls-98" x="232.99" y="339.98" width="147.06" height="2.58"/>
        <rect class="cls-27" x="232.99" y="342.55" width="147.06" height="2.58"/>
        <rect class="cls-124" x="232.99" y="345.13" width="147.06" height="2.58"/>
        <rect class="cls-129" x="232.99" y="347.71" width="147.06" height="2.58"/>
        <rect class="cls-79" x="232.99" y="350.29" width="147.06" height="2.58"/>
        <rect class="cls-25" x="232.99" y="352.87" width="147.06" height="2.58"/>
        <rect class="cls-65" x="232.99" y="355.45" width="147.06" height="2.58"/>
        <rect class="cls-33" x="232.99" y="358.02" width="147.06" height="2.58"/>
        <rect class="cls-89" x="232.99" y="360.6" width="147.06" height="2.58"/>
        <rect class="cls-11" x="232.99" y="363.18" width="147.06" height="2.58"/>
        <rect class="cls-121" x="232.99" y="365.76" width="147.06" height="2.58"/>
        <rect class="cls-86" x="232.99" y="368.34" width="147.06" height="2.58"/>
        <rect class="cls-91" x="232.99" y="370.91" width="147.06" height="2.58"/>
        <rect class="cls-99" x="232.99" y="373.49" width="147.06" height="2.58"/>
        <rect class="cls-166" x="232.99" y="376.07" width="147.06" height="2.58"/>
        <rect class="cls-73" x="232.99" y="378.65" width="147.06" height="2.58"/>
        <rect class="cls-31" x="232.99" y="381.23" width="147.06" height="2.58"/>
        <rect class="cls-40" x="232.99" y="383.81" width="147.06" height="2.58"/>
        <rect class="cls-20" x="232.99" y="386.38" width="147.06" height="2.58"/>
        <rect class="cls-75" x="232.99" y="388.96" width="147.06" height="2.58"/>
        <rect class="cls-17" x="232.99" y="391.54" width="147.06" height="2.58"/>
        <rect class="cls-70" x="232.99" y="394.12" width="147.06" height="1.6"/>
      </g>
      <g class="cls-34">
        <rect class="cls-9" x="30.86" y="120.89" width="169.94" height="2.52"/>
        <rect class="cls-47" x="30.86" y="123.4" width="169.94" height="2.58"/>
        <rect class="cls-130" x="30.86" y="125.98" width="169.94" height="2.58"/>
        <rect class="cls-148" x="30.86" y="128.56" width="169.94" height="2.58"/>
        <rect class="cls-143" x="30.86" y="131.14" width="169.94" height="2.58"/>
        <rect class="cls-108" x="30.86" y="133.71" width="169.94" height="2.58"/>
        <rect class="cls-46" x="30.86" y="136.29" width="169.94" height="2.58"/>
        <rect class="cls-159" x="30.86" y="138.87" width="169.94" height="2.58"/>
        <rect class="cls-141" x="30.86" y="141.45" width="169.94" height="2.58"/>
        <rect class="cls-161" x="30.86" y="144.03" width="169.94" height="2.58"/>
        <rect class="cls-154" x="30.86" y="146.6" width="169.94" height="2.58"/>
        <rect class="cls-100" x="30.86" y="149.18" width="169.94" height="2.58"/>
        <rect class="cls-18" x="30.86" y="151.76" width="169.94" height="2.58"/>
        <rect class="cls-57" x="30.86" y="154.34" width="169.94" height="2.58"/>
        <rect class="cls-133" x="30.86" y="156.92" width="169.94" height="2.58"/>
        <rect class="cls-127" x="30.86" y="159.5" width="169.94" height="2.58"/>
        <rect class="cls-72" x="30.86" y="162.07" width="169.94" height="2.58"/>
        <rect class="cls-29" x="30.86" y="164.65" width="169.94" height="2.58"/>
        <rect class="cls-97" x="30.86" y="167.23" width="169.94" height="2.58"/>
        <rect class="cls-42" x="30.86" y="169.81" width="169.94" height="2.58"/>
        <rect class="cls-90" x="30.86" y="172.39" width="169.94" height="2.58"/>
        <rect class="cls-140" x="30.86" y="174.97" width="169.94" height="2.58"/>
        <rect class="cls-45" x="30.86" y="177.54" width="169.94" height="2.58"/>
        <rect class="cls-21" x="30.86" y="180.12" width="169.94" height="2.58"/>
        <rect class="cls-164" x="30.86" y="182.7" width="169.94" height="2.58"/>
        <rect class="cls-71" x="30.86" y="185.28" width="169.94" height="2.58"/>
        <rect class="cls-139" x="30.86" y="187.86" width="169.94" height="2.58"/>
        <rect class="cls-149" x="30.86" y="190.44" width="169.94" height="2.58"/>
        <rect class="cls-36" x="30.86" y="193.01" width="169.94" height="2.58"/>
        <rect class="cls-153" x="30.86" y="195.59" width="169.94" height="2.58"/>
        <rect class="cls-128" x="30.86" y="198.17" width="169.94" height="2.58"/>
        <rect class="cls-19" x="30.86" y="200.75" width="169.94" height="1.31"/>
      </g>
      <g class="cls-125">
        <rect class="cls-9" x="232.99" y="120.89" width="169.94" height="2.52"/>
        <rect class="cls-47" x="232.99" y="123.4" width="169.94" height="2.58"/>
        <rect class="cls-130" x="232.99" y="125.98" width="169.94" height="2.58"/>
        <rect class="cls-148" x="232.99" y="128.56" width="169.94" height="2.58"/>
        <rect class="cls-143" x="232.99" y="131.14" width="169.94" height="2.58"/>
        <rect class="cls-108" x="232.99" y="133.71" width="169.94" height="2.58"/>
        <rect class="cls-46" x="232.99" y="136.29" width="169.94" height="2.58"/>
        <rect class="cls-159" x="232.99" y="138.87" width="169.94" height="2.58"/>
        <rect class="cls-141" x="232.99" y="141.45" width="169.94" height="2.58"/>
        <rect class="cls-161" x="232.99" y="144.03" width="169.94" height="2.58"/>
        <rect class="cls-154" x="232.99" y="146.6" width="169.94" height="2.58"/>
        <rect class="cls-100" x="232.99" y="149.18" width="169.94" height="2.58"/>
        <rect class="cls-18" x="232.99" y="151.76" width="169.94" height="2.58"/>
        <rect class="cls-57" x="232.99" y="154.34" width="169.94" height="2.58"/>
        <rect class="cls-133" x="232.99" y="156.92" width="169.94" height="2.58"/>
        <rect class="cls-127" x="232.99" y="159.5" width="169.94" height="2.58"/>
        <rect class="cls-72" x="232.99" y="162.07" width="169.94" height="2.58"/>
        <rect class="cls-29" x="232.99" y="164.65" width="169.94" height="2.58"/>
        <rect class="cls-97" x="232.99" y="167.23" width="169.94" height="2.58"/>
        <rect class="cls-42" x="232.99" y="169.81" width="169.94" height="2.58"/>
        <rect class="cls-90" x="232.99" y="172.39" width="169.94" height="2.58"/>
        <rect class="cls-140" x="232.99" y="174.97" width="169.94" height="2.58"/>
        <rect class="cls-45" x="232.99" y="177.54" width="169.94" height="2.58"/>
        <rect class="cls-21" x="232.99" y="180.12" width="169.94" height="2.58"/>
        <rect class="cls-164" x="232.99" y="182.7" width="169.94" height="2.58"/>
        <rect class="cls-71" x="232.99" y="185.28" width="169.94" height="2.58"/>
        <rect class="cls-139" x="232.99" y="187.86" width="169.94" height="2.58"/>
        <rect class="cls-149" x="232.99" y="190.44" width="169.94" height="2.58"/>
        <rect class="cls-36" x="232.99" y="193.01" width="169.94" height="2.58"/>
        <rect class="cls-153" x="232.99" y="195.59" width="169.94" height="2.58"/>
        <rect class="cls-128" x="232.99" y="198.17" width="169.94" height="2.58"/>
        <rect class="cls-19" x="232.99" y="200.75" width="169.94" height="1.31"/>
      </g>
      <g class="cls-69">
        <rect class="cls-160" x="0" y="334.81" width="465.99" height=".01"/>
        <rect class="cls-146" x="0" y="334.82" width="465.99" height="2.58"/>
        <rect class="cls-51" x="0" y="337.4" width="465.99" height="2.58"/>
        <rect class="cls-98" x="0" y="339.98" width="465.99" height="2.58"/>
        <rect class="cls-27" x="0" y="342.55" width="465.99" height="2.58"/>
        <rect class="cls-124" x="0" y="345.13" width="465.99" height="2.58"/>
        <rect class="cls-129" x="0" y="347.71" width="465.99" height="2.58"/>
        <rect class="cls-79" x="0" y="350.29" width="465.99" height="2.58"/>
        <rect class="cls-25" x="0" y="352.87" width="465.99" height="2.58"/>
        <rect class="cls-65" x="0" y="355.45" width="465.99" height="2.58"/>
        <rect class="cls-33" x="0" y="358.02" width="465.99" height="2.58"/>
        <rect class="cls-89" x="0" y="360.6" width="465.99" height="2.58"/>
        <rect class="cls-11" x="0" y="363.18" width="465.99" height="2.58"/>
        <rect class="cls-121" x="0" y="365.76" width="465.99" height="2.58"/>
        <rect class="cls-86" x="0" y="368.34" width="465.99" height="2.58"/>
        <rect class="cls-91" x="0" y="370.91" width="465.99" height="2.58"/>
        <rect class="cls-99" x="0" y="373.49" width="465.99" height="2.58"/>
        <rect class="cls-166" x="0" y="376.07" width="465.99" height="2.58"/>
        <rect class="cls-73" x="0" y="378.65" width="465.99" height="2.58"/>
        <rect class="cls-31" x="0" y="381.23" width="465.99" height="2.58"/>
        <rect class="cls-40" x="0" y="383.81" width="465.99" height="2.58"/>
        <rect class="cls-20" x="0" y="386.38" width="465.99" height="2.58"/>
        <rect class="cls-75" x="0" y="388.96" width="465.99" height="2.58"/>
        <rect class="cls-17" x="0" y="391.54" width="465.99" height="2.58"/>
        <rect class="cls-70" x="0" y="394.12" width="465.99" height="2.58"/>
        <rect class="cls-74" x="0" y="396.7" width="465.99" height="2.58"/>
        <rect class="cls-151" x="0" y="399.28" width="465.99" height="2.58"/>
        <rect class="cls-54" x="0" y="401.85" width="465.99" height="2.58"/>
        <rect class="cls-61" x="0" y="404.43" width="465.99" height="2.58"/>
        <rect class="cls-106" x="0" y="407.01" width="465.99" height="2.58"/>
        <rect class="cls-104" x="0" y="409.59" width="465.99" height="2.58"/>
        <rect class="cls-155" x="0" y="412.17" width="465.99" height="2.58"/>
        <rect class="cls-112" x="0" y="414.75" width="465.99" height="2.58"/>
        <rect class="cls-41" x="0" y="417.32" width="465.99" height="2.58"/>
        <rect class="cls-145" x="0" y="419.9" width="465.99" height="2.58"/>
        <rect class="cls-28" x="0" y="422.48" width="465.99" height="2.58"/>
        <rect class="cls-43" x="0" y="425.06" width="465.99" height="2.58"/>
        <rect class="cls-105" x="0" y="427.64" width="465.99" height="2.58"/>
        <rect class="cls-63" x="0" y="430.22" width="465.99" height="2.58"/>
        <rect class="cls-50" x="0" y="432.79" width="465.99" height="2.58"/>
        <rect class="cls-165" x="0" y="435.37" width="465.99" height="2.58"/>
        <rect class="cls-5" x="0" y="437.95" width="465.99" height="2.58"/>
        <rect class="cls-30" x="0" y="440.53" width="465.99" height="2.58"/>
        <rect class="cls-88" x="0" y="443.11" width="465.99" height="2.58"/>
        <rect class="cls-78" x="0" y="445.68" width="465.99" height="2.58"/>
        <rect class="cls-94" x="0" y="448.26" width="465.99" height="2.58"/>
        <rect class="cls-56" x="0" y="450.84" width="465.99" height="2.58"/>
        <rect class="cls-1" x="0" y="453.42" width="465.99" height="2.58"/>
        <rect class="cls-114" x="0" y="456" width="465.99" height="2.58"/>
        <rect class="cls-119" x="0" y="458.58" width="465.99" height="2.58"/>
        <rect class="cls-44" x="0" y="461.15" width="465.99" height="2.58"/>
        <rect class="cls-156" x="0" y="463.73" width="465.99" height="2.58"/>
        <rect class="cls-113" x="0" y="466.31" width="465.99" height="2.58"/>
        <rect class="cls-122" x="0" y="468.89" width="465.99" height="2.58"/>
        <rect class="cls-123" x="0" y="471.47" width="465.99" height="2.58"/>
        <rect class="cls-92" x="0" y="474.05" width="465.99" height="2.58"/>
        <rect class="cls-162" x="0" y="476.62" width="465.99" height="2.58"/>
        <rect class="cls-24" x="0" y="479.2" width="465.99" height="2.58"/>
        <rect class="cls-81" x="0" y="481.78" width="465.99" height="2.58"/>
        <rect class="cls-37" x="0" y="484.36" width="465.99" height="2.58"/>
        <rect class="cls-87" x="0" y="486.94" width="465.99" height="2.58"/>
        <rect class="cls-48" x="0" y="489.52" width="465.99" height="2.58"/>
        <rect class="cls-80" x="0" y="492.09" width="465.99" height="2.58"/>
        <rect class="cls-4" x="0" y="494.67" width="465.99" height="2.58"/>
        <rect class="cls-157" x="0" y="497.25" width="465.99" height="2.58"/>
        <rect class="cls-137" x="0" y="499.83" width="465.99" height="2.58"/>
        <rect class="cls-144" x="0" y="502.41" width="465.99" height="2.58"/>
        <rect class="cls-77" x="0" y="504.99" width="465.99" height="2.58"/>
        <rect class="cls-103" x="0" y="507.56" width="465.99" height="2.58"/>
        <rect class="cls-22" x="0" y="510.14" width="465.99" height="2.58"/>
        <rect class="cls-7" x="0" y="512.72" width="465.99" height="2.58"/>
        <rect class="cls-10" x="0" y="515.3" width="465.99" height="2.58"/>
        <rect class="cls-83" x="0" y="517.88" width="465.99" height="2.58"/>
        <rect class="cls-23" x="0" y="520.46" width="465.99" height="2.58"/>
        <rect class="cls-38" x="0" y="523.03" width="465.99" height="2.58"/>
        <rect class="cls-102" x="0" y="525.61" width="465.99" height="2.58"/>
        <rect class="cls-142" x="0" y="528.19" width="465.99" height="2.58"/>
        <rect class="cls-2" x="0" y="530.77" width="465.99" height="2.58"/>
        <rect class="cls-101" x="0" y="533.35" width="465.99" height="2.58"/>
        <rect class="cls-26" x="0" y="535.92" width="465.99" height="2.02"/>
      </g>
      <g>
        <path class="cls-152" d="m271.78,104.04c-12.8,0-24.83-.8-34.11-1.66-9.29-.87-17.12-6.82-20.45-15.53-3.33-8.72-1.46-18.38,4.89-25.22h0c10.54-11.36,26.76-27.58,44.17-40.33,23.38-17.13,42.9-23.82,59.68-20.46,10.48,2.1,24.71,9.3,32.94,31.68,8.25,22.42,2.13,37.33-4.46,45.9-10.45,13.58-29.33,21.59-57.74,24.46-8.28.84-16.76,1.16-24.93,1.16Zm-19.46-30.61c39.92,2.43,70.09-2.56,78.34-13.29,1.08-1.4,4.35-5.66.08-17.25-4.17-11.32-9.07-12.31-10.68-12.63-10.07-2.03-33.52,8.38-67.74,43.17Z"/>
        <path class="cls-3" d="m162.01,104.04c-8.17,0-16.65-.32-24.93-1.16-28.41-2.88-47.3-10.88-57.74-24.46-6.58-8.56-12.7-23.48-4.46-45.9C83.12,10.14,97.35,2.94,107.83.84c16.78-3.36,36.3,3.33,59.68,20.46,17.41,12.76,33.63,28.97,44.17,40.33h0c6.34,6.84,8.22,16.5,4.89,25.22-3.33,8.71-11.17,14.67-20.45,15.53-9.28.86-21.31,1.66-34.11,1.66ZM116.34,30.02c-.95,0-1.82.08-2.61.24-1.61.32-6.52,1.31-10.68,12.63-4.27,11.59-.99,15.85.08,17.25,8.25,10.74,38.42,15.72,78.34,13.29-31.54-32.07-53.93-43.41-65.13-43.41Z"/>
      </g>
    </g>
  </g>
</svg>