<?xml version="1.0" encoding="UTF-8"?>
<svg id="Layer_2" data-name="Layer 2" xmlns="http://www.w3.org/2000/svg" viewBox="0 0 414.43 156.75">
  <defs>
    <style>
      .cls-1 {
        fill: #fff;
      }
    </style>
  </defs>
  <g id="Layer_1-2" data-name="Layer 1">
    <g>
      <g>
        <path class="cls-1" d="m2.09,39.76c-1.15,0-2.09-.94-2.09-2.09V2.09C0,.94.94,0,2.09,0h120.84c1.15,0,2.09.94,2.09,2.09v6.36H19.28v31.31H2.09Z"/>
        <path class="cls-1" d="m21.84,39.76V11.02h103.18v6.36c0,1.15-.94,2.09-2.09,2.09H44.04c-1.62,0-2.94,1.32-2.94,2.94v15.27c0,1.15-.94,2.09-2.09,2.09h-17.17Z"/>
        <path class="cls-1" d="m2.09,121.02c-1.15,0-2.09-.94-2.09-2.09v-35.59c0-1.15.94-2.09,2.09-2.09h17.19v31.32h105.75v6.36c0,1.15-.94,2.09-2.09,2.09H2.09Z"/>
        <path class="cls-1" d="m21.84,110.01v-28.75h17.17c1.15,0,2.09.94,2.09,2.09v15.27c0,1.62,1.32,2.94,2.94,2.94h78.89c1.15,0,2.09.94,2.09,2.09v6.36H21.84Z"/>
        <path class="cls-1" d="m2.09,70.24c-1.15,0-2.09-.94-2.09-2.09v-6.36h83.07v6.36c0,1.15-.94,2.09-2.09,2.09H2.09Z"/>
        <path class="cls-1" d="m0,59.23v-6.36c0-1.15.94-2.09,2.09-2.09h78.89c1.15,0,2.09.94,2.09,2.09v6.36H0Z"/>
      </g>
      <g>
        <path class="cls-1" d="m146.99,121.02c-1.15,0-2.09-.94-2.09-2.09V2.09c0-1.15.94-2.09,2.09-2.09h17.17v112.57h105.75v6.36c0,1.15-.94,2.09-2.09,2.09h-120.83Z"/>
        <path class="cls-1" d="m166.73,110.01V0h17.19c1.15,0,2.09.94,2.09,2.09v96.54c0,1.62,1.32,2.94,2.94,2.94h78.87c1.15,0,2.09.94,2.09,2.09v6.34h-103.18Z"/>
      </g>
      <g>
        <path class="cls-1" d="m311.25,121.02V51.63h24.38l60.89,60.87h17.91v6.27c0,1.15-.94,2.09-2.09,2.09h-17.45c-.55,0-1.06-.21-1.45-.59l-8.79-8.51-1.78-1.71-47.35-45.8c-.56-.54-1.28-.83-2.03-.83-1.42,0-2.96,1.13-2.96,2.95v52.55c0,1.15-.94,2.09-2.09,2.09h-17.19Z"/>
        <path class="cls-1" d="m291.51,121.02c-1.15,0-2.09-.94-2.09-2.09V42.66c0-1.15.94-2.09,2.09-2.09h78.87c1.62,0,2.94-1.32,2.94-2.94v-15.23c0-1.62-1.32-2.94-2.94-2.94h-36.92c-1.62,0-2.94,1.32-2.94,2.94v5.09c0,1.15-.94,2.09-2.09,2.09h-17.19V11h81.38v38.07h-83.94v71.95h-17.17Z"/>
        <path class="cls-1" d="m397.55,109.94l-58.29-58.3h55.92V8.43h-86.51v21.14h-17.17c-1.15,0-2.09-.94-2.09-2.09V2.09c0-1.15.94-2.09,2.09-2.09h120.83c1.15,0,2.09.94,2.09,2.09v55.84c0,1.15-.94,2.09-2.09,2.09h-45.96c-1.22,0-2.27.7-2.73,1.84-.46,1.13-.2,2.37.68,3.22l36.73,35.54c.55.53,1.28.83,2.05.83h9.22c1.15,0,2.09.94,2.09,2.09v6.41h-16.88Z"/>
      </g>
      <g>
        <path class="cls-1" d="m13.9,140.9v3.11H4.21v2.77l8.08.03v3.11l-8.08-.03v3.45h9.7v3.11H0v-15.56h13.9Z"/>
        <path class="cls-1" d="m31.16,148.67l6.76,7.78h-5.37l-4.07-4.69-4.07,4.69h-5.37l6.76-7.78-6.76-7.78h5.37l4.07,4.69,4.07-4.69h5.37l-6.76,7.78Z"/>
        <path class="cls-1" d="m59.5,148.66c0,5.33-4.19,8.09-9.27,8.09s-9.27-2.78-9.27-8.09,4.19-8.09,9.27-8.09,9.27,3,9.27,8.09Zm-4.19,0c0-3.33-2.19-4.87-5.07-4.87s-5.07,1.55-5.07,4.87,2.18,4.87,5.07,4.87,5.07-1.53,5.07-4.87Z"/>
        <path class="cls-1" d="m82,140.9v3.11h-6.77v12.45h-4.32v-12.45h-6.78v-3.11h17.87Z"/>
        <path class="cls-1" d="m91.75,156.46h-4v-15.56h4v15.56Z"/>
        <path class="cls-1" d="m115.88,150.19c-.73,4.33-4.58,6.56-9.14,6.56-5.07,0-9.27-2.78-9.27-8.09s4.19-8.09,9.27-8.09c4.59,0,8.15,2.24,9.04,6.11h-4.48c-.51-1.94-2.33-2.89-4.56-2.89-2.88,0-5.07,1.55-5.07,4.87s2.18,4.87,5.07,4.87c2.42,0,4.43-1.08,4.75-3.34h4.39Z"/>
      </g>
      <g>
        <path class="cls-1" d="m147.73,153.34v3.11h-13.81v-15.56h4.32v12.45h9.49Z"/>
        <path class="cls-1" d="m168.71,140.88v9.6c0,3.44-2.38,6.26-8,6.26s-8-2.83-8-6.26v-9.6h3.81v9.57h0v.11c0,2.45,2.27,3.12,4.18,3.12s4.18-.67,4.18-3.13v-.11h0v-9.57h3.82Z"/>
        <path class="cls-1" d="m185.77,148.67l6.76,7.78h-5.37l-4.07-4.69-4.07,4.69h-5.37l6.76-7.78-6.76-7.78h5.37l4.07,4.69,4.07-4.69h5.37l-6.76,7.78Z"/>
        <path class="cls-1" d="m213.43,140.88v9.6c0,3.44-2.38,6.26-8,6.26s-8-2.83-8-6.26v-9.6h3.81v9.57h0v.11c0,2.45,2.27,3.12,4.18,3.12s4.18-.67,4.18-3.13v-.11h0v-9.57h3.82Z"/>
        <path class="cls-1" d="m236.28,156.46h-4.93l-3.85-5.6h-3.55v5.6h-4.32v-15.56h9c4.24,0,6.82,2.45,6.82,5.01,0,2-1.45,3.92-3.75,4.6l4.58,5.95Zm-7.32-8.62c1.5,0,2.71-.73,2.71-1.93s-1.21-2-2.71-2h-5.02v3.92h5.02Z"/>
        <path class="cls-1" d="m256.4,140.91l-6.65,9.33v6.22h-4.09v-6.22l-6.65-9.33h4.94l3.74,6.09,3.76-6.09h4.94Z"/>
      </g>
      <g>
        <path class="cls-1" d="m290.43,156.46h-4.93l-3.85-5.6h-3.55v5.6h-4.32v-15.56h9c4.24,0,6.82,2.45,6.82,5.01,0,2-1.45,3.92-3.75,4.6l4.58,5.95Zm-7.32-8.62c1.5,0,2.71-.73,2.71-1.93s-1.21-2-2.71-2h-5.02v3.92h5.02Z"/>
        <path class="cls-1" d="m309.74,140.9v3.11h-9.7v2.77l8.08.03v3.11l-8.08-.03v3.45h9.7v3.11h-13.9v-15.56h13.9Z"/>
        <path class="cls-1" d="m321.27,156.46l-6.43-15.56h4.09l4.64,11.23,4.66-11.24h4.09l-6.43,15.56h-4.62Z"/>
        <path class="cls-1" d="m341.43,156.46h-4v-15.56h4v15.56Z"/>
        <path class="cls-1" d="m361.74,140.9v3.11h-9.7v2.77l8.08.03v3.11l-8.08-.03v3.45h9.7v3.11h-13.9v-15.56h13.9Z"/>
        <path class="cls-1" d="m394.36,140.89l-6,15.56h-4.62l-3.52-9.86-3.53,9.87h-4.62s-6-15.56-6-15.56h4.09l4.21,11.24,3.81-11.24h4.09l3.78,11.23,4.24-11.24h4.09Z"/>
        <path class="cls-1" d="m414.43,151.51c0,3.08-2.9,5.24-8.51,5.24-4.66,0-7.57-2.18-7.57-4.97v-.3h4.63v.3c0,1.34,1.81,1.81,3.58,1.81s3.44-.39,3.44-1.81c0-1.15-2.07-1.54-4.46-2-3.06-.58-6.88-1.31-6.88-4.21s3.14-4.98,8-4.98c4.47,0,7.6,2.05,7.6,4.98v.3h-4.26v-.3c0-1.18-1.92-1.88-3.77-1.88-1.24,0-3.08.47-3.08,1.6s1.98,1.45,4.27,1.85c3.12.56,7.01,1.26,7.01,4.37Z"/>
      </g>
    </g>
  </g>
</svg>